ISO-10303-21;
HEADER;
/* Generated by software containing ST-Developer
 * from STEP Tools, Inc. (www.steptools.com) 
 */
/* OPTION: using custom renumber hook */

FILE_DESCRIPTION(
/* description */ ('STEP AP242 Edition 2',
'CAx-IF Rec.Pracs.---Representation and Presentation of Product Manufa
cturing Information (PMI)---4.0---2014-10-13',
'CAx-IF Rec.Pracs.---3D Tessellated Geometry---0.4---2014-09-14','2;1',
'CAx-IF Rec.Pracs.---User Defined Attributes---1.5---2016-08-15'),
/* implementation_level */ '2;1');

FILE_NAME(
/* name */ 'Bottom - Part 1',
/* time_stamp */ '2026-10-04T08:38:33Z',
/* author */ (''),
/* organization */ (''),
/* preprocessor_version */ 'ST-DEVELOPER v20',
/* originating_system */ 'ONSHAPE BY PTC INC, 1.221',
/* authorisation */ '  ');

FILE_SCHEMA (('AP242_MANAGED_MODEL_BASED_3D_ENGINEERING_MIM_LF { 1 0 10303 442 3 1 4 }'));
ENDSEC;

DATA;
#10=SHAPE_REPRESENTATION_RELATIONSHIP('','',#661,#11);
#11=ADVANCED_BREP_SHAPE_REPRESENTATION('',(#659),#1153);
#12=CONICAL_SURFACE('',#745,0.006,0.785398163397449);
#13=CONICAL_SURFACE('',#748,0.006,0.78539816339745);
#14=CONICAL_SURFACE('',#752,0.006,0.785398163397449);
#15=ELLIPSE('',#741,0.000541196100146197,0.0005);
#16=ELLIPSE('',#743,0.000541196100146197,0.0005);
#17=TOROIDAL_SURFACE('',#729,0.0055,0.0005);
#18=TOROIDAL_SURFACE('',#736,0.0055,0.0005);
#19=TOROIDAL_SURFACE('',#738,0.0055,0.0005);
#20=LINE('',#1027,#56);
#21=LINE('',#1030,#57);
#22=LINE('',#1032,#58);
#23=LINE('',#1034,#59);
#24=LINE('',#1038,#60);
#25=LINE('',#1042,#61);
#26=LINE('',#1044,#62);
#27=LINE('',#1046,#63);
#28=LINE('',#1050,#64);
#29=LINE('',#1054,#65);
#30=LINE('',#1056,#66);
#31=LINE('',#1058,#67);
#32=LINE('',#1062,#68);
#33=LINE('',#1066,#69);
#34=LINE('',#1068,#70);
#35=LINE('',#1070,#71);
#36=LINE('',#1072,#72);
#37=LINE('',#1073,#73);
#38=LINE('',#1075,#74);
#39=LINE('',#1080,#75);
#40=LINE('',#1084,#76);
#41=LINE('',#1088,#77);
#42=LINE('',#1090,#78);
#43=LINE('',#1092,#79);
#44=LINE('',#1095,#80);
#45=LINE('',#1097,#81);
#46=LINE('',#1101,#82);
#47=LINE('',#1105,#83);
#48=LINE('',#1137,#84);
#49=LINE('',#1138,#85);
#50=LINE('',#1140,#86);
#51=LINE('',#1142,#87);
#52=LINE('',#1144,#88);
#53=LINE('',#1146,#89);
#54=LINE('',#1148,#90);
#55=LINE('',#1150,#91);
#56=VECTOR('',#829,1.);
#57=VECTOR('',#830,1.);
#58=VECTOR('',#831,1.);
#59=VECTOR('',#832,1.);
#60=VECTOR('',#837,1.);
#61=VECTOR('',#842,1.);
#62=VECTOR('',#843,1.);
#63=VECTOR('',#844,1.);
#64=VECTOR('',#849,1.);
#65=VECTOR('',#854,1.);
#66=VECTOR('',#855,1.);
#67=VECTOR('',#856,1.);
#68=VECTOR('',#861,1.);
#69=VECTOR('',#866,1.);
#70=VECTOR('',#867,1.);
#71=VECTOR('',#868,1.);
#72=VECTOR('',#871,1.);
#73=VECTOR('',#872,1.);
#74=VECTOR('',#875,1.);
#75=VECTOR('',#878,1.);
#76=VECTOR('',#881,1.);
#77=VECTOR('',#884,1.);
#78=VECTOR('',#885,1.);
#79=VECTOR('',#888,1.);
#80=VECTOR('',#889,1.);
#81=VECTOR('',#890,1.);
#82=VECTOR('',#893,1.);
#83=VECTOR('',#896,1.);
#84=VECTOR('',#949,1.);
#85=VECTOR('',#950,1.);
#86=VECTOR('',#953,1.);
#87=VECTOR('',#956,1.);
#88=VECTOR('',#959,1.);
#89=VECTOR('',#962,1.);
#90=VECTOR('',#965,1.);
#91=VECTOR('',#968,1.);
#92=PLANE('',#666);
#93=PLANE('',#670);
#94=PLANE('',#674);
#95=PLANE('',#678);
#96=PLANE('',#682);
#97=PLANE('',#686);
#98=PLANE('',#690);
#99=PLANE('',#694);
#100=PLANE('',#698);
#101=PLANE('',#699);
#102=PLANE('',#703);
#103=PLANE('',#707);
#104=PLANE('',#711);
#105=PLANE('',#712);
#106=PLANE('',#713);
#107=PLANE('',#717);
#108=PLANE('',#725);
#109=PLANE('',#728);
#110=PLANE('',#746);
#111=PLANE('',#747);
#112=PLANE('',#749);
#113=PLANE('',#750);
#114=PLANE('',#751);
#115=ORIENTED_EDGE('',*,*,#271,.F.);
#116=ORIENTED_EDGE('',*,*,#272,.F.);
#117=ORIENTED_EDGE('',*,*,#272,.T.);
#118=ORIENTED_EDGE('',*,*,#273,.F.);
#119=ORIENTED_EDGE('',*,*,#274,.F.);
#120=ORIENTED_EDGE('',*,*,#274,.T.);
#121=ORIENTED_EDGE('',*,*,#275,.F.);
#122=ORIENTED_EDGE('',*,*,#276,.F.);
#123=ORIENTED_EDGE('',*,*,#276,.T.);
#124=ORIENTED_EDGE('',*,*,#277,.F.);
#125=ORIENTED_EDGE('',*,*,#278,.F.);
#126=ORIENTED_EDGE('',*,*,#278,.T.);
#127=ORIENTED_EDGE('',*,*,#279,.F.);
#128=ORIENTED_EDGE('',*,*,#280,.F.);
#129=ORIENTED_EDGE('',*,*,#280,.T.);
#130=ORIENTED_EDGE('',*,*,#281,.F.);
#131=ORIENTED_EDGE('',*,*,#282,.F.);
#132=ORIENTED_EDGE('',*,*,#282,.T.);
#133=ORIENTED_EDGE('',*,*,#283,.F.);
#134=ORIENTED_EDGE('',*,*,#284,.F.);
#135=ORIENTED_EDGE('',*,*,#284,.T.);
#136=ORIENTED_EDGE('',*,*,#285,.F.);
#137=ORIENTED_EDGE('',*,*,#286,.F.);
#138=ORIENTED_EDGE('',*,*,#286,.T.);
#139=ORIENTED_EDGE('',*,*,#287,.F.);
#140=ORIENTED_EDGE('',*,*,#288,.F.);
#141=ORIENTED_EDGE('',*,*,#288,.T.);
#142=ORIENTED_EDGE('',*,*,#289,.F.);
#143=ORIENTED_EDGE('',*,*,#290,.T.);
#144=ORIENTED_EDGE('',*,*,#291,.T.);
#145=ORIENTED_EDGE('',*,*,#292,.T.);
#146=ORIENTED_EDGE('',*,*,#291,.F.);
#147=ORIENTED_EDGE('',*,*,#293,.T.);
#148=ORIENTED_EDGE('',*,*,#294,.T.);
#149=ORIENTED_EDGE('',*,*,#295,.T.);
#150=ORIENTED_EDGE('',*,*,#294,.F.);
#151=ORIENTED_EDGE('',*,*,#296,.T.);
#152=ORIENTED_EDGE('',*,*,#297,.T.);
#153=ORIENTED_EDGE('',*,*,#298,.T.);
#154=ORIENTED_EDGE('',*,*,#297,.F.);
#155=ORIENTED_EDGE('',*,*,#299,.T.);
#156=ORIENTED_EDGE('',*,*,#300,.T.);
#157=ORIENTED_EDGE('',*,*,#301,.T.);
#158=ORIENTED_EDGE('',*,*,#300,.F.);
#159=ORIENTED_EDGE('',*,*,#302,.T.);
#160=ORIENTED_EDGE('',*,*,#303,.T.);
#161=ORIENTED_EDGE('',*,*,#304,.T.);
#162=ORIENTED_EDGE('',*,*,#303,.F.);
#163=ORIENTED_EDGE('',*,*,#305,.T.);
#164=ORIENTED_EDGE('',*,*,#306,.T.);
#165=ORIENTED_EDGE('',*,*,#307,.T.);
#166=ORIENTED_EDGE('',*,*,#306,.F.);
#167=ORIENTED_EDGE('',*,*,#308,.T.);
#168=ORIENTED_EDGE('',*,*,#309,.T.);
#169=ORIENTED_EDGE('',*,*,#310,.T.);
#170=ORIENTED_EDGE('',*,*,#309,.F.);
#171=ORIENTED_EDGE('',*,*,#311,.T.);
#172=ORIENTED_EDGE('',*,*,#289,.T.);
#173=ORIENTED_EDGE('',*,*,#312,.T.);
#174=ORIENTED_EDGE('',*,*,#313,.T.);
#175=ORIENTED_EDGE('',*,*,#314,.T.);
#176=ORIENTED_EDGE('',*,*,#315,.T.);
#177=ORIENTED_EDGE('',*,*,#316,.T.);
#178=ORIENTED_EDGE('',*,*,#317,.T.);
#179=ORIENTED_EDGE('',*,*,#318,.T.);
#180=ORIENTED_EDGE('',*,*,#319,.T.);
#181=ORIENTED_EDGE('',*,*,#320,.T.);
#182=ORIENTED_EDGE('',*,*,#321,.T.);
#183=ORIENTED_EDGE('',*,*,#322,.T.);
#184=ORIENTED_EDGE('',*,*,#323,.T.);
#185=ORIENTED_EDGE('',*,*,#324,.T.);
#186=ORIENTED_EDGE('',*,*,#325,.T.);
#187=ORIENTED_EDGE('',*,*,#326,.T.);
#188=ORIENTED_EDGE('',*,*,#327,.T.);
#189=ORIENTED_EDGE('',*,*,#328,.T.);
#190=ORIENTED_EDGE('',*,*,#271,.T.);
#191=ORIENTED_EDGE('',*,*,#273,.T.);
#192=ORIENTED_EDGE('',*,*,#275,.T.);
#193=ORIENTED_EDGE('',*,*,#277,.T.);
#194=ORIENTED_EDGE('',*,*,#279,.T.);
#195=ORIENTED_EDGE('',*,*,#281,.T.);
#196=ORIENTED_EDGE('',*,*,#329,.T.);
#197=ORIENTED_EDGE('',*,*,#283,.T.);
#198=ORIENTED_EDGE('',*,*,#285,.T.);
#199=ORIENTED_EDGE('',*,*,#287,.T.);
#200=ORIENTED_EDGE('',*,*,#330,.T.);
#201=ORIENTED_EDGE('',*,*,#330,.F.);
#202=ORIENTED_EDGE('',*,*,#331,.F.);
#203=ORIENTED_EDGE('',*,*,#331,.T.);
#204=ORIENTED_EDGE('',*,*,#329,.F.);
#205=ORIENTED_EDGE('',*,*,#332,.F.);
#206=ORIENTED_EDGE('',*,*,#332,.T.);
#207=ORIENTED_EDGE('',*,*,#333,.F.);
#208=ORIENTED_EDGE('',*,*,#326,.F.);
#209=ORIENTED_EDGE('',*,*,#334,.F.);
#210=ORIENTED_EDGE('',*,*,#301,.F.);
#211=ORIENTED_EDGE('',*,*,#334,.T.);
#212=ORIENTED_EDGE('',*,*,#325,.F.);
#213=ORIENTED_EDGE('',*,*,#335,.F.);
#214=ORIENTED_EDGE('',*,*,#298,.F.);
#215=ORIENTED_EDGE('',*,*,#333,.T.);
#216=ORIENTED_EDGE('',*,*,#304,.F.);
#217=ORIENTED_EDGE('',*,*,#336,.F.);
#218=ORIENTED_EDGE('',*,*,#327,.F.);
#219=ORIENTED_EDGE('',*,*,#335,.T.);
#220=ORIENTED_EDGE('',*,*,#324,.F.);
#221=ORIENTED_EDGE('',*,*,#337,.F.);
#222=ORIENTED_EDGE('',*,*,#295,.F.);
#223=ORIENTED_EDGE('',*,*,#336,.T.);
#224=ORIENTED_EDGE('',*,*,#307,.F.);
#225=ORIENTED_EDGE('',*,*,#338,.F.);
#226=ORIENTED_EDGE('',*,*,#328,.F.);
#227=ORIENTED_EDGE('',*,*,#337,.T.);
#228=ORIENTED_EDGE('',*,*,#323,.F.);
#229=ORIENTED_EDGE('',*,*,#339,.F.);
#230=ORIENTED_EDGE('',*,*,#292,.F.);
#231=ORIENTED_EDGE('',*,*,#338,.T.);
#232=ORIENTED_EDGE('',*,*,#310,.F.);
#233=ORIENTED_EDGE('',*,*,#340,.F.);
#234=ORIENTED_EDGE('',*,*,#321,.F.);
#235=ORIENTED_EDGE('',*,*,#339,.T.);
#236=ORIENTED_EDGE('',*,*,#322,.F.);
#237=ORIENTED_EDGE('',*,*,#340,.T.);
#238=ORIENTED_EDGE('',*,*,#312,.F.);
#239=ORIENTED_EDGE('',*,*,#341,.F.);
#240=ORIENTED_EDGE('',*,*,#318,.F.);
#241=ORIENTED_EDGE('',*,*,#342,.F.);
#242=ORIENTED_EDGE('',*,*,#293,.F.);
#243=ORIENTED_EDGE('',*,*,#342,.T.);
#244=ORIENTED_EDGE('',*,*,#317,.F.);
#245=ORIENTED_EDGE('',*,*,#343,.F.);
#246=ORIENTED_EDGE('',*,*,#296,.F.);
#247=ORIENTED_EDGE('',*,*,#341,.T.);
#248=ORIENTED_EDGE('',*,*,#290,.F.);
#249=ORIENTED_EDGE('',*,*,#344,.F.);
#250=ORIENTED_EDGE('',*,*,#319,.F.);
#251=ORIENTED_EDGE('',*,*,#343,.T.);
#252=ORIENTED_EDGE('',*,*,#316,.F.);
#253=ORIENTED_EDGE('',*,*,#345,.F.);
#254=ORIENTED_EDGE('',*,*,#299,.F.);
#255=ORIENTED_EDGE('',*,*,#344,.T.);
#256=ORIENTED_EDGE('',*,*,#311,.F.);
#257=ORIENTED_EDGE('',*,*,#346,.F.);
#258=ORIENTED_EDGE('',*,*,#320,.F.);
#259=ORIENTED_EDGE('',*,*,#345,.T.);
#260=ORIENTED_EDGE('',*,*,#315,.F.);
#261=ORIENTED_EDGE('',*,*,#347,.F.);
#262=ORIENTED_EDGE('',*,*,#302,.F.);
#263=ORIENTED_EDGE('',*,*,#346,.T.);
#264=ORIENTED_EDGE('',*,*,#308,.F.);
#265=ORIENTED_EDGE('',*,*,#348,.F.);
#266=ORIENTED_EDGE('',*,*,#313,.F.);
#267=ORIENTED_EDGE('',*,*,#347,.T.);
#268=ORIENTED_EDGE('',*,*,#314,.F.);
#269=ORIENTED_EDGE('',*,*,#348,.T.);
#270=ORIENTED_EDGE('',*,*,#305,.F.);
#271=EDGE_CURVE('',#349,#349,#403,.F.);
#272=EDGE_CURVE('',#350,#350,#404,.T.);
#273=EDGE_CURVE('',#351,#351,#405,.F.);
#274=EDGE_CURVE('',#352,#352,#406,.T.);
#275=EDGE_CURVE('',#353,#353,#407,.F.);
#276=EDGE_CURVE('',#354,#354,#408,.T.);
#277=EDGE_CURVE('',#355,#355,#409,.F.);
#278=EDGE_CURVE('',#356,#356,#410,.T.);
#279=EDGE_CURVE('',#357,#357,#411,.F.);
#280=EDGE_CURVE('',#358,#358,#412,.T.);
#281=EDGE_CURVE('',#359,#359,#413,.F.);
#282=EDGE_CURVE('',#360,#360,#414,.T.);
#283=EDGE_CURVE('',#361,#361,#415,.F.);
#284=EDGE_CURVE('',#362,#362,#416,.T.);
#285=EDGE_CURVE('',#363,#363,#417,.F.);
#286=EDGE_CURVE('',#364,#364,#418,.T.);
#287=EDGE_CURVE('',#365,#365,#419,.F.);
#288=EDGE_CURVE('',#366,#366,#420,.T.);
#289=EDGE_CURVE('',#367,#368,#20,.T.);
#290=EDGE_CURVE('',#367,#369,#21,.T.);
#291=EDGE_CURVE('',#369,#370,#22,.T.);
#292=EDGE_CURVE('',#370,#368,#23,.T.);
#293=EDGE_CURVE('',#369,#371,#421,.T.);
#294=EDGE_CURVE('',#371,#372,#24,.T.);
#295=EDGE_CURVE('',#372,#370,#422,.F.);
#296=EDGE_CURVE('',#371,#373,#25,.T.);
#297=EDGE_CURVE('',#373,#374,#26,.T.);
#298=EDGE_CURVE('',#374,#372,#27,.F.);
#299=EDGE_CURVE('',#373,#375,#423,.T.);
#300=EDGE_CURVE('',#375,#376,#28,.T.);
#301=EDGE_CURVE('',#376,#374,#424,.F.);
#302=EDGE_CURVE('',#375,#377,#29,.T.);
#303=EDGE_CURVE('',#377,#378,#30,.T.);
#304=EDGE_CURVE('',#378,#376,#31,.F.);
#305=EDGE_CURVE('',#377,#379,#425,.T.);
#306=EDGE_CURVE('',#379,#380,#32,.T.);
#307=EDGE_CURVE('',#380,#378,#426,.F.);
#308=EDGE_CURVE('',#379,#381,#33,.T.);
#309=EDGE_CURVE('',#381,#382,#34,.T.);
#310=EDGE_CURVE('',#382,#380,#35,.T.);
#311=EDGE_CURVE('',#381,#367,#36,.T.);
#312=EDGE_CURVE('',#368,#382,#37,.T.);
#313=EDGE_CURVE('',#383,#384,#38,.T.);
#314=EDGE_CURVE('',#384,#385,#427,.F.);
#315=EDGE_CURVE('',#385,#386,#39,.T.);
#316=EDGE_CURVE('',#386,#387,#428,.F.);
#317=EDGE_CURVE('',#387,#388,#40,.T.);
#318=EDGE_CURVE('',#388,#389,#429,.F.);
#319=EDGE_CURVE('',#389,#390,#41,.T.);
#320=EDGE_CURVE('',#390,#383,#42,.T.);
#321=EDGE_CURVE('',#391,#392,#43,.F.);
#322=EDGE_CURVE('',#392,#393,#44,.F.);
#323=EDGE_CURVE('',#393,#394,#45,.F.);
#324=EDGE_CURVE('',#394,#395,#430,.T.);
#325=EDGE_CURVE('',#395,#396,#46,.T.);
#326=EDGE_CURVE('',#396,#397,#431,.T.);
#327=EDGE_CURVE('',#397,#398,#47,.T.);
#328=EDGE_CURVE('',#398,#391,#432,.T.);
#329=EDGE_CURVE('',#399,#399,#433,.F.);
#330=EDGE_CURVE('',#400,#400,#434,.F.);
#331=EDGE_CURVE('',#401,#401,#435,.T.);
#332=EDGE_CURVE('',#402,#402,#436,.T.);
#333=EDGE_CURVE('',#397,#376,#437,.T.);
#334=EDGE_CURVE('',#374,#396,#438,.T.);
#335=EDGE_CURVE('',#372,#395,#439,.T.);
#336=EDGE_CURVE('',#398,#378,#440,.T.);
#337=EDGE_CURVE('',#370,#394,#441,.T.);
#338=EDGE_CURVE('',#391,#380,#442,.T.);
#339=EDGE_CURVE('',#368,#393,#15,.F.);
#340=EDGE_CURVE('',#392,#382,#16,.T.);
#341=EDGE_CURVE('',#389,#369,#48,.T.);
#342=EDGE_CURVE('',#371,#388,#49,.T.);
#343=EDGE_CURVE('',#373,#387,#50,.T.);
#344=EDGE_CURVE('',#390,#367,#51,.T.);
#345=EDGE_CURVE('',#375,#386,#52,.T.);
#346=EDGE_CURVE('',#383,#381,#53,.T.);
#347=EDGE_CURVE('',#377,#385,#54,.T.);
#348=EDGE_CURVE('',#384,#379,#55,.T.);
#349=VERTEX_POINT('',#974);
#350=VERTEX_POINT('',#976);
#351=VERTEX_POINT('',#980);
#352=VERTEX_POINT('',#982);
#353=VERTEX_POINT('',#986);
#354=VERTEX_POINT('',#988);
#355=VERTEX_POINT('',#992);
#356=VERTEX_POINT('',#994);
#357=VERTEX_POINT('',#998);
#358=VERTEX_POINT('',#1000);
#359=VERTEX_POINT('',#1004);
#360=VERTEX_POINT('',#1006);
#361=VERTEX_POINT('',#1010);
#362=VERTEX_POINT('',#1012);
#363=VERTEX_POINT('',#1016);
#364=VERTEX_POINT('',#1018);
#365=VERTEX_POINT('',#1022);
#366=VERTEX_POINT('',#1024);
#367=VERTEX_POINT('',#1028);
#368=VERTEX_POINT('',#1029);
#369=VERTEX_POINT('',#1031);
#370=VERTEX_POINT('',#1033);
#371=VERTEX_POINT('',#1037);
#372=VERTEX_POINT('',#1039);
#373=VERTEX_POINT('',#1043);
#374=VERTEX_POINT('',#1045);
#375=VERTEX_POINT('',#1049);
#376=VERTEX_POINT('',#1051);
#377=VERTEX_POINT('',#1055);
#378=VERTEX_POINT('',#1057);
#379=VERTEX_POINT('',#1061);
#380=VERTEX_POINT('',#1063);
#381=VERTEX_POINT('',#1067);
#382=VERTEX_POINT('',#1069);
#383=VERTEX_POINT('',#1076);
#384=VERTEX_POINT('',#1077);
#385=VERTEX_POINT('',#1079);
#386=VERTEX_POINT('',#1081);
#387=VERTEX_POINT('',#1083);
#388=VERTEX_POINT('',#1085);
#389=VERTEX_POINT('',#1087);
#390=VERTEX_POINT('',#1089);
#391=VERTEX_POINT('',#1093);
#392=VERTEX_POINT('',#1094);
#393=VERTEX_POINT('',#1096);
#394=VERTEX_POINT('',#1098);
#395=VERTEX_POINT('',#1100);
#396=VERTEX_POINT('',#1102);
#397=VERTEX_POINT('',#1104);
#398=VERTEX_POINT('',#1106);
#399=VERTEX_POINT('',#1109);
#400=VERTEX_POINT('',#1111);
#401=VERTEX_POINT('',#1114);
#402=VERTEX_POINT('',#1118);
#403=CIRCLE('',#664,0.003015);
#404=CIRCLE('',#665,0.003015);
#405=CIRCLE('',#668,0.003015);
#406=CIRCLE('',#669,0.003015);
#407=CIRCLE('',#672,0.003015);
#408=CIRCLE('',#673,0.003015);
#409=CIRCLE('',#676,0.003015);
#410=CIRCLE('',#677,0.003015);
#411=CIRCLE('',#680,0.003015);
#412=CIRCLE('',#681,0.003015);
#413=CIRCLE('',#684,0.003015);
#414=CIRCLE('',#685,0.003015);
#415=CIRCLE('',#688,0.003015);
#416=CIRCLE('',#689,0.003015);
#417=CIRCLE('',#692,0.003015);
#418=CIRCLE('',#693,0.003015);
#419=CIRCLE('',#696,0.003015);
#420=CIRCLE('',#697,0.003015);
#421=CIRCLE('',#701,0.006);
#422=CIRCLE('',#702,0.006);
#423=CIRCLE('',#705,0.006);
#424=CIRCLE('',#706,0.006);
#425=CIRCLE('',#709,0.006);
#426=CIRCLE('',#710,0.006);
#427=CIRCLE('',#714,0.005);
#428=CIRCLE('',#715,0.005);
#429=CIRCLE('',#716,0.005);
#430=CIRCLE('',#718,0.0055);
#431=CIRCLE('',#719,0.0055);
#432=CIRCLE('',#720,0.0055);
#433=CIRCLE('',#721,0.003015);
#434=CIRCLE('',#722,0.003015);
#435=CIRCLE('',#724,0.003015);
#436=CIRCLE('',#727,0.003015);
#437=CIRCLE('',#730,0.0005);
#438=CIRCLE('',#731,0.0005);
#439=CIRCLE('',#733,0.0005);
#440=CIRCLE('',#735,0.0005);
#441=CIRCLE('',#737,0.0005);
#442=CIRCLE('',#739,0.0005);
#443=EDGE_LOOP('',(#115));
#444=EDGE_LOOP('',(#116));
#445=EDGE_LOOP('',(#117));
#446=EDGE_LOOP('',(#118));
#447=EDGE_LOOP('',(#119));
#448=EDGE_LOOP('',(#120));
#449=EDGE_LOOP('',(#121));
#450=EDGE_LOOP('',(#122));
#451=EDGE_LOOP('',(#123));
#452=EDGE_LOOP('',(#124));
#453=EDGE_LOOP('',(#125));
#454=EDGE_LOOP('',(#126));
#455=EDGE_LOOP('',(#127));
#456=EDGE_LOOP('',(#128));
#457=EDGE_LOOP('',(#129));
#458=EDGE_LOOP('',(#130));
#459=EDGE_LOOP('',(#131));
#460=EDGE_LOOP('',(#132));
#461=EDGE_LOOP('',(#133));
#462=EDGE_LOOP('',(#134));
#463=EDGE_LOOP('',(#135));
#464=EDGE_LOOP('',(#136));
#465=EDGE_LOOP('',(#137));
#466=EDGE_LOOP('',(#138));
#467=EDGE_LOOP('',(#139));
#468=EDGE_LOOP('',(#140));
#469=EDGE_LOOP('',(#141));
#470=EDGE_LOOP('',(#142,#143,#144,#145));
#471=EDGE_LOOP('',(#146,#147,#148,#149));
#472=EDGE_LOOP('',(#150,#151,#152,#153));
#473=EDGE_LOOP('',(#154,#155,#156,#157));
#474=EDGE_LOOP('',(#158,#159,#160,#161));
#475=EDGE_LOOP('',(#162,#163,#164,#165));
#476=EDGE_LOOP('',(#166,#167,#168,#169));
#477=EDGE_LOOP('',(#170,#171,#172,#173));
#478=EDGE_LOOP('',(#174,#175,#176,#177,#178,#179,#180,#181));
#479=EDGE_LOOP('',(#182,#183,#184,#185,#186,#187,#188,#189));
#480=EDGE_LOOP('',(#190));
#481=EDGE_LOOP('',(#191));
#482=EDGE_LOOP('',(#192));
#483=EDGE_LOOP('',(#193));
#484=EDGE_LOOP('',(#194));
#485=EDGE_LOOP('',(#195));
#486=EDGE_LOOP('',(#196));
#487=EDGE_LOOP('',(#197));
#488=EDGE_LOOP('',(#198));
#489=EDGE_LOOP('',(#199));
#490=EDGE_LOOP('',(#200));
#491=EDGE_LOOP('',(#201));
#492=EDGE_LOOP('',(#202));
#493=EDGE_LOOP('',(#203));
#494=EDGE_LOOP('',(#204));
#495=EDGE_LOOP('',(#205));
#496=EDGE_LOOP('',(#206));
#497=EDGE_LOOP('',(#207,#208,#209,#210));
#498=EDGE_LOOP('',(#211,#212,#213,#214));
#499=EDGE_LOOP('',(#215,#216,#217,#218));
#500=EDGE_LOOP('',(#219,#220,#221,#222));
#501=EDGE_LOOP('',(#223,#224,#225,#226));
#502=EDGE_LOOP('',(#227,#228,#229,#230));
#503=EDGE_LOOP('',(#231,#232,#233,#234));
#504=EDGE_LOOP('',(#235,#236,#237,#238));
#505=EDGE_LOOP('',(#239,#240,#241,#242));
#506=EDGE_LOOP('',(#243,#244,#245,#246));
#507=EDGE_LOOP('',(#247,#248,#249,#250));
#508=EDGE_LOOP('',(#251,#252,#253,#254));
#509=EDGE_LOOP('',(#255,#256,#257,#258));
#510=EDGE_LOOP('',(#259,#260,#261,#262));
#511=EDGE_LOOP('',(#263,#264,#265,#266));
#512=EDGE_LOOP('',(#267,#268,#269,#270));
#513=FACE_BOUND('',#443,.T.);
#514=FACE_BOUND('',#444,.T.);
#515=FACE_BOUND('',#445,.T.);
#516=FACE_BOUND('',#446,.T.);
#517=FACE_BOUND('',#447,.T.);
#518=FACE_BOUND('',#448,.T.);
#519=FACE_BOUND('',#449,.T.);
#520=FACE_BOUND('',#450,.T.);
#521=FACE_BOUND('',#451,.T.);
#522=FACE_BOUND('',#452,.T.);
#523=FACE_BOUND('',#453,.T.);
#524=FACE_BOUND('',#454,.T.);
#525=FACE_BOUND('',#455,.T.);
#526=FACE_BOUND('',#456,.T.);
#527=FACE_BOUND('',#457,.T.);
#528=FACE_BOUND('',#458,.T.);
#529=FACE_BOUND('',#459,.T.);
#530=FACE_BOUND('',#460,.T.);
#531=FACE_BOUND('',#461,.T.);
#532=FACE_BOUND('',#462,.T.);
#533=FACE_BOUND('',#463,.T.);
#534=FACE_BOUND('',#464,.T.);
#535=FACE_BOUND('',#465,.T.);
#536=FACE_BOUND('',#466,.T.);
#537=FACE_BOUND('',#467,.T.);
#538=FACE_BOUND('',#468,.T.);
#539=FACE_BOUND('',#469,.T.);
#540=FACE_BOUND('',#470,.T.);
#541=FACE_BOUND('',#471,.T.);
#542=FACE_BOUND('',#472,.T.);
#543=FACE_BOUND('',#473,.T.);
#544=FACE_BOUND('',#474,.T.);
#545=FACE_BOUND('',#475,.T.);
#546=FACE_BOUND('',#476,.T.);
#547=FACE_BOUND('',#477,.T.);
#548=FACE_BOUND('',#478,.T.);
#549=FACE_BOUND('',#479,.T.);
#550=FACE_BOUND('',#480,.T.);
#551=FACE_BOUND('',#481,.T.);
#552=FACE_BOUND('',#482,.T.);
#553=FACE_BOUND('',#483,.T.);
#554=FACE_BOUND('',#484,.T.);
#555=FACE_BOUND('',#485,.T.);
#556=FACE_BOUND('',#486,.T.);
#557=FACE_BOUND('',#487,.T.);
#558=FACE_BOUND('',#488,.T.);
#559=FACE_BOUND('',#489,.T.);
#560=FACE_BOUND('',#490,.T.);
#561=FACE_BOUND('',#491,.T.);
#562=FACE_BOUND('',#492,.T.);
#563=FACE_BOUND('',#493,.T.);
#564=FACE_BOUND('',#494,.T.);
#565=FACE_BOUND('',#495,.T.);
#566=FACE_BOUND('',#496,.T.);
#567=FACE_BOUND('',#497,.T.);
#568=FACE_BOUND('',#498,.T.);
#569=FACE_BOUND('',#499,.T.);
#570=FACE_BOUND('',#500,.T.);
#571=FACE_BOUND('',#501,.T.);
#572=FACE_BOUND('',#502,.T.);
#573=FACE_BOUND('',#503,.T.);
#574=FACE_BOUND('',#504,.T.);
#575=FACE_BOUND('',#505,.T.);
#576=FACE_BOUND('',#506,.T.);
#577=FACE_BOUND('',#507,.T.);
#578=FACE_BOUND('',#508,.T.);
#579=FACE_BOUND('',#509,.T.);
#580=FACE_BOUND('',#510,.T.);
#581=FACE_BOUND('',#511,.T.);
#582=FACE_BOUND('',#512,.T.);
#583=CYLINDRICAL_SURFACE('',#663,0.003015);
#584=CYLINDRICAL_SURFACE('',#667,0.003015);
#585=CYLINDRICAL_SURFACE('',#671,0.003015);
#586=CYLINDRICAL_SURFACE('',#675,0.003015);
#587=CYLINDRICAL_SURFACE('',#679,0.003015);
#588=CYLINDRICAL_SURFACE('',#683,0.003015);
#589=CYLINDRICAL_SURFACE('',#687,0.003015);
#590=CYLINDRICAL_SURFACE('',#691,0.003015);
#591=CYLINDRICAL_SURFACE('',#695,0.003015);
#592=CYLINDRICAL_SURFACE('',#700,0.006);
#593=CYLINDRICAL_SURFACE('',#704,0.006);
#594=CYLINDRICAL_SURFACE('',#708,0.006);
#595=CYLINDRICAL_SURFACE('',#723,0.003015);
#596=CYLINDRICAL_SURFACE('',#726,0.003015);
#597=CYLINDRICAL_SURFACE('',#732,0.0005);
#598=CYLINDRICAL_SURFACE('',#734,0.0005);
#599=CYLINDRICAL_SURFACE('',#740,0.0005);
#600=CYLINDRICAL_SURFACE('',#742,0.0005);
#601=CYLINDRICAL_SURFACE('',#744,0.0005);
#602=ADVANCED_FACE('',(#513,#514),#583,.F.);
#603=ADVANCED_FACE('',(#515),#92,.T.);
#604=ADVANCED_FACE('',(#516,#517),#584,.F.);
#605=ADVANCED_FACE('',(#518),#93,.T.);
#606=ADVANCED_FACE('',(#519,#520),#585,.F.);
#607=ADVANCED_FACE('',(#521),#94,.T.);
#608=ADVANCED_FACE('',(#522,#523),#586,.F.);
#609=ADVANCED_FACE('',(#524),#95,.T.);
#610=ADVANCED_FACE('',(#525,#526),#587,.F.);
#611=ADVANCED_FACE('',(#527),#96,.T.);
#612=ADVANCED_FACE('',(#528,#529),#588,.F.);
#613=ADVANCED_FACE('',(#530),#97,.T.);
#614=ADVANCED_FACE('',(#531,#532),#589,.F.);
#615=ADVANCED_FACE('',(#533),#98,.T.);
#616=ADVANCED_FACE('',(#534,#535),#590,.F.);
#617=ADVANCED_FACE('',(#536),#99,.T.);
#618=ADVANCED_FACE('',(#537,#538),#591,.F.);
#619=ADVANCED_FACE('',(#539),#100,.T.);
#620=ADVANCED_FACE('',(#540),#101,.F.);
#621=ADVANCED_FACE('',(#541),#592,.T.);
#622=ADVANCED_FACE('',(#542),#102,.T.);
#623=ADVANCED_FACE('',(#543),#593,.T.);
#624=ADVANCED_FACE('',(#544),#103,.T.);
#625=ADVANCED_FACE('',(#545),#594,.T.);
#626=ADVANCED_FACE('',(#546),#104,.F.);
#627=ADVANCED_FACE('',(#547),#105,.F.);
#628=ADVANCED_FACE('',(#548),#106,.F.);
#629=ADVANCED_FACE('',(#549,#550,#551,#552,#553,#554,#555,#556,#557,#558,
#559,#560),#107,.T.);
#630=ADVANCED_FACE('',(#561,#562),#595,.F.);
#631=ADVANCED_FACE('',(#563),#108,.T.);
#632=ADVANCED_FACE('',(#564,#565),#596,.F.);
#633=ADVANCED_FACE('',(#566),#109,.T.);
#634=ADVANCED_FACE('',(#567),#17,.T.);
#635=ADVANCED_FACE('',(#568),#597,.T.);
#636=ADVANCED_FACE('',(#569),#598,.T.);
#637=ADVANCED_FACE('',(#570),#18,.T.);
#638=ADVANCED_FACE('',(#571),#19,.T.);
#639=ADVANCED_FACE('',(#572),#599,.T.);
#640=ADVANCED_FACE('',(#573),#600,.T.);
#641=ADVANCED_FACE('',(#574),#601,.T.);
#642=ADVANCED_FACE('',(#575),#12,.T.);
#643=ADVANCED_FACE('',(#576),#110,.T.);
#644=ADVANCED_FACE('',(#577),#111,.F.);
#645=ADVANCED_FACE('',(#578),#13,.T.);
#646=ADVANCED_FACE('',(#579),#112,.F.);
#647=ADVANCED_FACE('',(#580),#113,.T.);
#648=ADVANCED_FACE('',(#581),#114,.F.);
#649=ADVANCED_FACE('',(#582),#14,.T.);
#650=CLOSED_SHELL('',(#602,#603,#604,#605,#606,#607,#608,#609,#610,#611,
#612,#613,#614,#615,#616,#617,#618,#619,#620,#621,#622,#623,#624,#625,#626,
#627,#628,#629,#630,#631,#632,#633,#634,#635,#636,#637,#638,#639,#640,#641,
#642,#643,#644,#645,#646,#647,#648,#649));
#651=STYLED_ITEM('',(#652),#659);
#652=PRESENTATION_STYLE_ASSIGNMENT((#653));
#653=SURFACE_STYLE_USAGE(.BOTH.,#654);
#654=SURFACE_SIDE_STYLE('',(#655));
#655=SURFACE_STYLE_FILL_AREA(#656);
#656=FILL_AREA_STYLE('',(#657));
#657=FILL_AREA_STYLE_COLOUR('',#658);
#658=COLOUR_RGB('',0.615686274509804,0.811764705882353,0.929411764705882);
#659=MANIFOLD_SOLID_BREP('Part 1',#650);
#660=SHAPE_DEFINITION_REPRESENTATION(#1158,#661);
#661=SHAPE_REPRESENTATION('Part 1',(#662),#1153);
#662=AXIS2_PLACEMENT_3D('',#971,#753,#754);
#663=AXIS2_PLACEMENT_3D('',#972,#755,#756);
#664=AXIS2_PLACEMENT_3D('',#973,#757,#758);
#665=AXIS2_PLACEMENT_3D('',#975,#759,#760);
#666=AXIS2_PLACEMENT_3D('',#977,#761,#762);
#667=AXIS2_PLACEMENT_3D('',#978,#763,#764);
#668=AXIS2_PLACEMENT_3D('',#979,#765,#766);
#669=AXIS2_PLACEMENT_3D('',#981,#767,#768);
#670=AXIS2_PLACEMENT_3D('',#983,#769,#770);
#671=AXIS2_PLACEMENT_3D('',#984,#771,#772);
#672=AXIS2_PLACEMENT_3D('',#985,#773,#774);
#673=AXIS2_PLACEMENT_3D('',#987,#775,#776);
#674=AXIS2_PLACEMENT_3D('',#989,#777,#778);
#675=AXIS2_PLACEMENT_3D('',#990,#779,#780);
#676=AXIS2_PLACEMENT_3D('',#991,#781,#782);
#677=AXIS2_PLACEMENT_3D('',#993,#783,#784);
#678=AXIS2_PLACEMENT_3D('',#995,#785,#786);
#679=AXIS2_PLACEMENT_3D('',#996,#787,#788);
#680=AXIS2_PLACEMENT_3D('',#997,#789,#790);
#681=AXIS2_PLACEMENT_3D('',#999,#791,#792);
#682=AXIS2_PLACEMENT_3D('',#1001,#793,#794);
#683=AXIS2_PLACEMENT_3D('',#1002,#795,#796);
#684=AXIS2_PLACEMENT_3D('',#1003,#797,#798);
#685=AXIS2_PLACEMENT_3D('',#1005,#799,#800);
#686=AXIS2_PLACEMENT_3D('',#1007,#801,#802);
#687=AXIS2_PLACEMENT_3D('',#1008,#803,#804);
#688=AXIS2_PLACEMENT_3D('',#1009,#805,#806);
#689=AXIS2_PLACEMENT_3D('',#1011,#807,#808);
#690=AXIS2_PLACEMENT_3D('',#1013,#809,#810);
#691=AXIS2_PLACEMENT_3D('',#1014,#811,#812);
#692=AXIS2_PLACEMENT_3D('',#1015,#813,#814);
#693=AXIS2_PLACEMENT_3D('',#1017,#815,#816);
#694=AXIS2_PLACEMENT_3D('',#1019,#817,#818);
#695=AXIS2_PLACEMENT_3D('',#1020,#819,#820);
#696=AXIS2_PLACEMENT_3D('',#1021,#821,#822);
#697=AXIS2_PLACEMENT_3D('',#1023,#823,#824);
#698=AXIS2_PLACEMENT_3D('',#1025,#825,#826);
#699=AXIS2_PLACEMENT_3D('',#1026,#827,#828);
#700=AXIS2_PLACEMENT_3D('',#1035,#833,#834);
#701=AXIS2_PLACEMENT_3D('',#1036,#835,#836);
#702=AXIS2_PLACEMENT_3D('',#1040,#838,#839);
#703=AXIS2_PLACEMENT_3D('',#1041,#840,#841);
#704=AXIS2_PLACEMENT_3D('',#1047,#845,#846);
#705=AXIS2_PLACEMENT_3D('',#1048,#847,#848);
#706=AXIS2_PLACEMENT_3D('',#1052,#850,#851);
#707=AXIS2_PLACEMENT_3D('',#1053,#852,#853);
#708=AXIS2_PLACEMENT_3D('',#1059,#857,#858);
#709=AXIS2_PLACEMENT_3D('',#1060,#859,#860);
#710=AXIS2_PLACEMENT_3D('',#1064,#862,#863);
#711=AXIS2_PLACEMENT_3D('',#1065,#864,#865);
#712=AXIS2_PLACEMENT_3D('',#1071,#869,#870);
#713=AXIS2_PLACEMENT_3D('',#1074,#873,#874);
#714=AXIS2_PLACEMENT_3D('',#1078,#876,#877);
#715=AXIS2_PLACEMENT_3D('',#1082,#879,#880);
#716=AXIS2_PLACEMENT_3D('',#1086,#882,#883);
#717=AXIS2_PLACEMENT_3D('',#1091,#886,#887);
#718=AXIS2_PLACEMENT_3D('',#1099,#891,#892);
#719=AXIS2_PLACEMENT_3D('',#1103,#894,#895);
#720=AXIS2_PLACEMENT_3D('',#1107,#897,#898);
#721=AXIS2_PLACEMENT_3D('',#1108,#899,#900);
#722=AXIS2_PLACEMENT_3D('',#1110,#901,#902);
#723=AXIS2_PLACEMENT_3D('',#1112,#903,#904);
#724=AXIS2_PLACEMENT_3D('',#1113,#905,#906);
#725=AXIS2_PLACEMENT_3D('',#1115,#907,#908);
#726=AXIS2_PLACEMENT_3D('',#1116,#909,#910);
#727=AXIS2_PLACEMENT_3D('',#1117,#911,#912);
#728=AXIS2_PLACEMENT_3D('',#1119,#913,#914);
#729=AXIS2_PLACEMENT_3D('',#1120,#915,#916);
#730=AXIS2_PLACEMENT_3D('',#1121,#917,#918);
#731=AXIS2_PLACEMENT_3D('',#1122,#919,#920);
#732=AXIS2_PLACEMENT_3D('',#1123,#921,#922);
#733=AXIS2_PLACEMENT_3D('',#1124,#923,#924);
#734=AXIS2_PLACEMENT_3D('',#1125,#925,#926);
#735=AXIS2_PLACEMENT_3D('',#1126,#927,#928);
#736=AXIS2_PLACEMENT_3D('',#1127,#929,#930);
#737=AXIS2_PLACEMENT_3D('',#1128,#931,#932);
#738=AXIS2_PLACEMENT_3D('',#1129,#933,#934);
#739=AXIS2_PLACEMENT_3D('',#1130,#935,#936);
#740=AXIS2_PLACEMENT_3D('',#1131,#937,#938);
#741=AXIS2_PLACEMENT_3D('',#1132,#939,#940);
#742=AXIS2_PLACEMENT_3D('',#1133,#941,#942);
#743=AXIS2_PLACEMENT_3D('',#1134,#943,#944);
#744=AXIS2_PLACEMENT_3D('',#1135,#945,#946);
#745=AXIS2_PLACEMENT_3D('',#1136,#947,#948);
#746=AXIS2_PLACEMENT_3D('',#1139,#951,#952);
#747=AXIS2_PLACEMENT_3D('',#1141,#954,#955);
#748=AXIS2_PLACEMENT_3D('',#1143,#957,#958);
#749=AXIS2_PLACEMENT_3D('',#1145,#960,#961);
#750=AXIS2_PLACEMENT_3D('',#1147,#963,#964);
#751=AXIS2_PLACEMENT_3D('',#1149,#966,#967);
#752=AXIS2_PLACEMENT_3D('',#1151,#969,#970);
#753=DIRECTION('',(0.,0.,1.));
#754=DIRECTION('',(1.,0.,0.));
#755=DIRECTION('',(0.,0.,-1.));
#756=DIRECTION('',(-1.,0.,0.));
#757=DIRECTION('',(0.,0.,1.));
#758=DIRECTION('',(1.,0.,0.));
#759=DIRECTION('',(0.,0.,1.));
#760=DIRECTION('',(1.,0.,0.));
#761=DIRECTION('',(0.,0.,1.));
#762=DIRECTION('',(1.,0.,0.));
#763=DIRECTION('',(0.,0.,-1.));
#764=DIRECTION('',(-1.,0.,0.));
#765=DIRECTION('',(0.,0.,1.));
#766=DIRECTION('',(1.,0.,0.));
#767=DIRECTION('',(0.,0.,1.));
#768=DIRECTION('',(1.,0.,0.));
#769=DIRECTION('',(0.,0.,1.));
#770=DIRECTION('',(1.,0.,0.));
#771=DIRECTION('',(0.,0.,-1.));
#772=DIRECTION('',(-1.,0.,0.));
#773=DIRECTION('',(0.,0.,1.));
#774=DIRECTION('',(1.,0.,0.));
#775=DIRECTION('',(0.,0.,1.));
#776=DIRECTION('',(1.,0.,0.));
#777=DIRECTION('',(0.,0.,1.));
#778=DIRECTION('',(1.,0.,0.));
#779=DIRECTION('',(0.,0.,-1.));
#780=DIRECTION('',(-1.,0.,0.));
#781=DIRECTION('',(0.,0.,1.));
#782=DIRECTION('',(1.,0.,0.));
#783=DIRECTION('',(0.,0.,1.));
#784=DIRECTION('',(1.,0.,0.));
#785=DIRECTION('',(0.,0.,1.));
#786=DIRECTION('',(1.,0.,0.));
#787=DIRECTION('',(0.,0.,-1.));
#788=DIRECTION('',(-1.,0.,0.));
#789=DIRECTION('',(0.,0.,1.));
#790=DIRECTION('',(1.,0.,0.));
#791=DIRECTION('',(0.,0.,1.));
#792=DIRECTION('',(1.,0.,0.));
#793=DIRECTION('',(0.,0.,1.));
#794=DIRECTION('',(1.,0.,0.));
#795=DIRECTION('',(0.,0.,-1.));
#796=DIRECTION('',(-1.,0.,0.));
#797=DIRECTION('',(0.,0.,1.));
#798=DIRECTION('',(1.,0.,0.));
#799=DIRECTION('',(0.,0.,1.));
#800=DIRECTION('',(1.,0.,0.));
#801=DIRECTION('',(0.,0.,1.));
#802=DIRECTION('',(1.,0.,0.));
#803=DIRECTION('',(0.,0.,-1.));
#804=DIRECTION('',(-1.,0.,0.));
#805=DIRECTION('',(0.,0.,1.));
#806=DIRECTION('',(1.,0.,0.));
#807=DIRECTION('',(0.,0.,1.));
#808=DIRECTION('',(1.,0.,0.));
#809=DIRECTION('',(0.,0.,1.));
#810=DIRECTION('',(1.,0.,0.));
#811=DIRECTION('',(0.,0.,-1.));
#812=DIRECTION('',(-1.,0.,0.));
#813=DIRECTION('',(0.,0.,1.));
#814=DIRECTION('',(1.,0.,0.));
#815=DIRECTION('',(0.,0.,1.));
#816=DIRECTION('',(1.,0.,0.));
#817=DIRECTION('',(0.,0.,1.));
#818=DIRECTION('',(1.,0.,0.));
#819=DIRECTION('',(0.,0.,-1.));
#820=DIRECTION('',(-1.,0.,0.));
#821=DIRECTION('',(0.,0.,1.));
#822=DIRECTION('',(1.,0.,0.));
#823=DIRECTION('',(0.,0.,1.));
#824=DIRECTION('',(1.,0.,0.));
#825=DIRECTION('',(0.,0.,1.));
#826=DIRECTION('',(1.,0.,0.));
#827=DIRECTION('',(1.,1.62630325872825E-16,0.));
#828=DIRECTION('',(-1.62630325872825E-16,1.,0.));
#829=DIRECTION('',(0.,0.,1.));
#830=DIRECTION('',(1.62630325872825E-16,-1.,0.));
#831=DIRECTION('',(0.,0.,1.));
#832=DIRECTION('',(-1.62630325872825E-16,1.,0.));
#833=DIRECTION('',(0.,0.,1.));
#834=DIRECTION('',(1.,0.,0.));
#835=DIRECTION('',(0.,0.,1.));
#836=DIRECTION('',(1.,0.,0.));
#837=DIRECTION('',(0.,0.,1.));
#838=DIRECTION('',(0.,0.,1.));
#839=DIRECTION('',(1.,0.,0.));
#840=DIRECTION('',(0.,-1.,0.));
#841=DIRECTION('',(0.,0.,-1.));
#842=DIRECTION('',(1.,0.,0.));
#843=DIRECTION('',(0.,0.,1.));
#844=DIRECTION('',(1.,0.,0.));
#845=DIRECTION('',(0.,0.,1.));
#846=DIRECTION('',(1.,0.,0.));
#847=DIRECTION('',(0.,0.,1.));
#848=DIRECTION('',(1.,0.,0.));
#849=DIRECTION('',(0.,0.,1.));
#850=DIRECTION('',(0.,0.,1.));
#851=DIRECTION('',(1.,0.,0.));
#852=DIRECTION('',(1.,0.,0.));
#853=DIRECTION('',(0.,0.,-1.));
#854=DIRECTION('',(0.,1.,0.));
#855=DIRECTION('',(0.,0.,1.));
#856=DIRECTION('',(0.,1.,0.));
#857=DIRECTION('',(0.,0.,1.));
#858=DIRECTION('',(1.,0.,0.));
#859=DIRECTION('',(0.,0.,1.));
#860=DIRECTION('',(1.,0.,0.));
#861=DIRECTION('',(0.,0.,1.));
#862=DIRECTION('',(0.,0.,1.));
#863=DIRECTION('',(1.,0.,0.));
#864=DIRECTION('',(0.,-1.,0.));
#865=DIRECTION('',(0.,0.,-1.));
#866=DIRECTION('',(-1.,0.,0.));
#867=DIRECTION('',(0.,0.,1.));
#868=DIRECTION('',(1.,0.,0.));
#869=DIRECTION('',(0.707106781186547,-0.707106781186548,0.));
#870=DIRECTION('',(0.707106781186548,0.707106781186547,0.));
#871=DIRECTION('',(-0.707106781186548,-0.707106781186547,0.));
#872=DIRECTION('',(0.707106781186548,0.707106781186547,0.));
#873=DIRECTION('',(0.,0.,1.));
#874=DIRECTION('',(1.,0.,0.));
#875=DIRECTION('',(1.,0.,0.));
#876=DIRECTION('',(0.,0.,1.));
#877=DIRECTION('',(1.,0.,0.));
#878=DIRECTION('',(0.,-1.,0.));
#879=DIRECTION('',(0.,0.,1.));
#880=DIRECTION('',(1.,0.,0.));
#881=DIRECTION('',(-1.,0.,0.));
#882=DIRECTION('',(0.,0.,1.));
#883=DIRECTION('',(1.,0.,0.));
#884=DIRECTION('',(-1.62630325872825E-16,1.,0.));
#885=DIRECTION('',(0.707106781186548,0.707106781186547,0.));
#886=DIRECTION('',(0.,0.,1.));
#887=DIRECTION('',(1.,0.,0.));
#888=DIRECTION('',(1.,0.,0.));
#889=DIRECTION('',(0.707106781186548,0.707106781186547,0.));
#890=DIRECTION('',(-1.62630325872825E-16,1.,0.));
#891=DIRECTION('',(0.,0.,1.));
#892=DIRECTION('',(1.,0.,0.));
#893=DIRECTION('',(1.,0.,0.));
#894=DIRECTION('',(0.,0.,1.));
#895=DIRECTION('',(1.,0.,0.));
#896=DIRECTION('',(0.,1.,0.));
#897=DIRECTION('',(0.,0.,1.));
#898=DIRECTION('',(1.,0.,0.));
#899=DIRECTION('',(0.,0.,1.));
#900=DIRECTION('',(1.,0.,0.));
#901=DIRECTION('',(0.,0.,1.));
#902=DIRECTION('',(1.,0.,0.));
#903=DIRECTION('',(0.,0.,-1.));
#904=DIRECTION('',(-1.,0.,0.));
#905=DIRECTION('',(0.,0.,1.));
#906=DIRECTION('',(1.,0.,0.));
#907=DIRECTION('',(0.,0.,1.));
#908=DIRECTION('',(1.,0.,0.));
#909=DIRECTION('',(0.,0.,-1.));
#910=DIRECTION('',(-1.,0.,0.));
#911=DIRECTION('',(0.,0.,1.));
#912=DIRECTION('',(1.,0.,0.));
#913=DIRECTION('',(0.,0.,1.));
#914=DIRECTION('',(1.,0.,0.));
#915=DIRECTION('',(0.,0.,1.));
#916=DIRECTION('',(1.,0.,0.));
#917=DIRECTION('',(0.,1.,0.));
#918=DIRECTION('',(0.,0.,1.));
#919=DIRECTION('',(-1.,0.,0.));
#920=DIRECTION('',(0.,0.,1.));
#921=DIRECTION('',(1.,0.,0.));
#922=DIRECTION('',(0.,0.,-1.));
#923=DIRECTION('',(-1.,0.,0.));
#924=DIRECTION('',(0.,0.,1.));
#925=DIRECTION('',(0.,1.,0.));
#926=DIRECTION('',(0.,0.,1.));
#927=DIRECTION('',(0.,1.,0.));
#928=DIRECTION('',(0.,0.,1.));
#929=DIRECTION('',(0.,0.,1.));
#930=DIRECTION('',(1.,0.,0.));
#931=DIRECTION('',(0.,1.,0.));
#932=DIRECTION('',(0.,0.,1.));
#933=DIRECTION('',(0.,0.,1.));
#934=DIRECTION('',(1.,0.,0.));
#935=DIRECTION('',(-1.,0.,0.));
#936=DIRECTION('',(0.,0.,1.));
#937=DIRECTION('',(1.62630325872825E-16,-1.,0.));
#938=DIRECTION('',(1.,1.62630325872825E-16,0.));
#939=DIRECTION('',(-0.38268343236509,-0.923879532511287,0.));
#940=DIRECTION('',(0.923879532511287,-0.38268343236509,0.));
#941=DIRECTION('',(-1.,0.,0.));
#942=DIRECTION('',(0.,0.,1.));
#943=DIRECTION('',(-0.923879532511287,-0.38268343236509,0.));
#944=DIRECTION('',(-0.38268343236509,0.923879532511287,0.));
#945=DIRECTION('',(-0.707106781186548,-0.707106781186547,0.));
#946=DIRECTION('',(0.707106781186547,-0.707106781186548,0.));
#947=DIRECTION('',(0.,0.,1.));
#948=DIRECTION('',(1.,0.,0.));
#949=DIRECTION('',(-0.707106781186548,-1.2266347333467E-15,0.707106781186547));
#950=DIRECTION('',(0.,0.707106781186548,-0.707106781186547));
#951=DIRECTION('',(0.,-0.707106781186547,-0.707106781186548));
#952=DIRECTION('',(-1.,0.,0.));
#953=DIRECTION('',(0.,0.707106781186548,-0.707106781186547));
#954=DIRECTION('',(0.707106781186547,1.14997006251253E-16,0.707106781186548));
#955=DIRECTION('',(-1.62630325872825E-16,1.,0.));
#956=DIRECTION('',(-0.678598344545848,0.281084637714816,0.678598344545848));
#957=DIRECTION('',(0.,0.,1.));
#958=DIRECTION('',(1.,0.,0.));
#959=DIRECTION('',(-0.707106781186548,0.,-0.707106781186547));
#960=DIRECTION('',(0.5,-0.5,0.707106781186546));
#961=DIRECTION('',(0.707106781186548,0.707106781186547,0.));
#962=DIRECTION('',(-0.281084637714815,0.678598344545848,0.678598344545848));
#963=DIRECTION('',(0.707106781186547,0.,-0.707106781186548));
#964=DIRECTION('',(0.,-1.,0.));
#965=DIRECTION('',(-0.707106781186548,0.,-0.707106781186547));
#966=DIRECTION('',(0.,-0.707106781186547,0.707106781186548));
#967=DIRECTION('',(1.,0.,0.));
#968=DIRECTION('',(0.,0.707106781186548,0.707106781186547));
#969=DIRECTION('',(0.,0.,1.));
#970=DIRECTION('',(1.,0.,0.));
#971=CARTESIAN_POINT('',(0.,0.,0.));
#972=CARTESIAN_POINT('',(0.03,0.0502,0.025));
#973=CARTESIAN_POINT('',(0.03,0.0502,0.0031));
#974=CARTESIAN_POINT('',(0.033015,0.0502,0.0031));
#975=CARTESIAN_POINT('',(0.03,0.0502,0.));
#976=CARTESIAN_POINT('',(0.033015,0.0502,0.));
#977=CARTESIAN_POINT('',(0.015,0.0777,0.));
#978=CARTESIAN_POINT('',(0.03,0.041,0.025));
#979=CARTESIAN_POINT('',(0.03,0.041,0.0031));
#980=CARTESIAN_POINT('',(0.033015,0.041,0.0031));
#981=CARTESIAN_POINT('',(0.03,0.041,0.));
#982=CARTESIAN_POINT('',(0.033015,0.041,0.));
#983=CARTESIAN_POINT('',(0.015,0.0685,0.));
#984=CARTESIAN_POINT('',(0.03,0.0318,0.025));
#985=CARTESIAN_POINT('',(0.03,0.0318,0.0031));
#986=CARTESIAN_POINT('',(0.033015,0.0318,0.0031));
#987=CARTESIAN_POINT('',(0.03,0.0318,0.));
#988=CARTESIAN_POINT('',(0.033015,0.0318,0.));
#989=CARTESIAN_POINT('',(0.015,0.0593,0.));
#990=CARTESIAN_POINT('',(0.03,0.0226,0.025));
#991=CARTESIAN_POINT('',(0.03,0.0226,0.0031));
#992=CARTESIAN_POINT('',(0.033015,0.0226,0.0031));
#993=CARTESIAN_POINT('',(0.03,0.0226,0.));
#994=CARTESIAN_POINT('',(0.033015,0.0226,0.));
#995=CARTESIAN_POINT('',(0.015,0.0501,0.));
#996=CARTESIAN_POINT('',(0.03,0.0134,0.025));
#997=CARTESIAN_POINT('',(0.03,0.0134,0.0031));
#998=CARTESIAN_POINT('',(0.033015,0.0134,0.0031));
#999=CARTESIAN_POINT('',(0.03,0.0134,0.));
#1000=CARTESIAN_POINT('',(0.033015,0.0134,0.));
#1001=CARTESIAN_POINT('',(0.015,0.0409,0.));
#1002=CARTESIAN_POINT('',(0.03,0.0042,0.025));
#1003=CARTESIAN_POINT('',(0.03,0.0042,0.0031));
#1004=CARTESIAN_POINT('',(0.033015,0.0042,0.0031));
#1005=CARTESIAN_POINT('',(0.03,0.0042,0.));
#1006=CARTESIAN_POINT('',(0.033015,0.0042,0.));
#1007=CARTESIAN_POINT('',(0.015,0.0317,0.));
#1008=CARTESIAN_POINT('',(0.,0.045,0.025));
#1009=CARTESIAN_POINT('',(0.,0.045,0.0031));
#1010=CARTESIAN_POINT('',(0.003015,0.045,0.0031));
#1011=CARTESIAN_POINT('',(0.,0.045,0.));
#1012=CARTESIAN_POINT('',(0.003015,0.045,0.));
#1013=CARTESIAN_POINT('',(0.015,0.0675,0.));
#1014=CARTESIAN_POINT('',(0.,0.03,0.025));
#1015=CARTESIAN_POINT('',(0.,0.03,0.0031));
#1016=CARTESIAN_POINT('',(0.003015,0.03,0.0031));
#1017=CARTESIAN_POINT('',(0.,0.03,0.));
#1018=CARTESIAN_POINT('',(0.003015,0.03,0.));
#1019=CARTESIAN_POINT('',(0.015,0.0525,0.));
#1020=CARTESIAN_POINT('',(0.,0.015,0.025));
#1021=CARTESIAN_POINT('',(0.,0.015,0.0031));
#1022=CARTESIAN_POINT('',(0.003015,0.015,0.0031));
#1023=CARTESIAN_POINT('',(0.,0.015,0.));
#1024=CARTESIAN_POINT('',(0.003015,0.015,0.));
#1025=CARTESIAN_POINT('',(0.015,0.0375,0.));
#1026=CARTESIAN_POINT('',(-0.015,0.023,-0.002));
#1027=CARTESIAN_POINT('',(-0.015,0.055,-0.002));
#1028=CARTESIAN_POINT('',(-0.015,0.055,-0.001));
#1029=CARTESIAN_POINT('',(-0.015,0.055,0.0026));
#1030=CARTESIAN_POINT('',(-0.015,0.023,-0.001));
#1031=CARTESIAN_POINT('',(-0.015,-0.009,-0.001));
#1032=CARTESIAN_POINT('',(-0.015,-0.009,-0.002));
#1033=CARTESIAN_POINT('',(-0.015,-0.009,0.0026));
#1034=CARTESIAN_POINT('',(-0.015,0.055,0.0026));
#1035=CARTESIAN_POINT('',(-0.009,-0.009,-0.002));
#1036=CARTESIAN_POINT('',(-0.009,-0.009,-0.001));
#1037=CARTESIAN_POINT('',(-0.009,-0.015,-0.001));
#1038=CARTESIAN_POINT('',(-0.009,-0.015,-0.002));
#1039=CARTESIAN_POINT('',(-0.009,-0.015,0.0026));
#1040=CARTESIAN_POINT('',(-0.009,-0.009,0.0026));
#1041=CARTESIAN_POINT('',(0.015,-0.015,-0.002));
#1042=CARTESIAN_POINT('',(0.039,-0.015,-0.001));
#1043=CARTESIAN_POINT('',(0.039,-0.015,-0.001));
#1044=CARTESIAN_POINT('',(0.039,-0.015,-0.002));
#1045=CARTESIAN_POINT('',(0.039,-0.015,0.0026));
#1046=CARTESIAN_POINT('',(0.015,-0.015,0.0026));
#1047=CARTESIAN_POINT('',(0.039,-0.009,-0.002));
#1048=CARTESIAN_POINT('',(0.039,-0.009,-0.001));
#1049=CARTESIAN_POINT('',(0.045,-0.009,-0.001));
#1050=CARTESIAN_POINT('',(0.045,-0.009,-0.002));
#1051=CARTESIAN_POINT('',(0.045,-0.009,0.0026));
#1052=CARTESIAN_POINT('',(0.039,-0.009,0.0026));
#1053=CARTESIAN_POINT('',(0.045,0.0225,-0.002));
#1054=CARTESIAN_POINT('',(0.045,0.054,-0.001));
#1055=CARTESIAN_POINT('',(0.045,0.054,-0.001));
#1056=CARTESIAN_POINT('',(0.045,0.054,-0.002));
#1057=CARTESIAN_POINT('',(0.045,0.054,0.0026));
#1058=CARTESIAN_POINT('',(0.045,0.0225,0.0026));
#1059=CARTESIAN_POINT('',(0.039,0.054,-0.002));
#1060=CARTESIAN_POINT('',(0.039,0.054,-0.001));
#1061=CARTESIAN_POINT('',(0.039,0.06,-0.001));
#1062=CARTESIAN_POINT('',(0.039,0.06,-0.002));
#1063=CARTESIAN_POINT('',(0.039,0.06,0.0026));
#1064=CARTESIAN_POINT('',(0.039,0.054,0.0026));
#1065=CARTESIAN_POINT('',(0.0145,0.06,-0.002));
#1066=CARTESIAN_POINT('',(0.0145,0.06,-0.001));
#1067=CARTESIAN_POINT('',(-0.01,0.06,-0.001));
#1068=CARTESIAN_POINT('',(-0.01,0.06,-0.002));
#1069=CARTESIAN_POINT('',(-0.01,0.06,0.0026));
#1070=CARTESIAN_POINT('',(0.039,0.06,0.0026));
#1071=CARTESIAN_POINT('',(-0.0125,0.0575,-0.002));
#1072=CARTESIAN_POINT('',(-0.0125,0.0575,-0.001));
#1073=CARTESIAN_POINT('',(-0.01,0.06,0.0026));
#1074=CARTESIAN_POINT('',(0.015,0.0225,-0.002));
#1075=CARTESIAN_POINT('',(0.015,0.059,-0.002));
#1076=CARTESIAN_POINT('',(-0.00958578643762691,0.059,-0.002));
#1077=CARTESIAN_POINT('',(0.039,0.059,-0.002));
#1078=CARTESIAN_POINT('',(0.039,0.054,-0.002));
#1079=CARTESIAN_POINT('',(0.044,0.054,-0.002));
#1080=CARTESIAN_POINT('',(0.044,-0.009,-0.002));
#1081=CARTESIAN_POINT('',(0.044,-0.009,-0.002));
#1082=CARTESIAN_POINT('',(0.039,-0.009,-0.002));
#1083=CARTESIAN_POINT('',(0.039,-0.014,-0.002));
#1084=CARTESIAN_POINT('',(-0.009,-0.014,-0.002));
#1085=CARTESIAN_POINT('',(-0.009,-0.014,-0.002));
#1086=CARTESIAN_POINT('',(-0.009,-0.009,-0.002));
#1087=CARTESIAN_POINT('',(-0.014,-0.009,-0.002));
#1088=CARTESIAN_POINT('',(-0.014,0.0225,-0.002));
#1089=CARTESIAN_POINT('',(-0.014,0.0545857864376269,-0.002));
#1090=CARTESIAN_POINT('',(-0.0155428932188135,0.0530428932188135,-0.002));
#1091=CARTESIAN_POINT('',(0.015,0.0225,0.0031));
#1092=CARTESIAN_POINT('',(-0.01,0.0595,0.0031));
#1093=CARTESIAN_POINT('',(0.039,0.0595,0.0031));
#1094=CARTESIAN_POINT('',(-0.00979289321881346,0.0595,0.0031));
#1095=CARTESIAN_POINT('',(-0.0146464466094067,0.0546464466094067,0.0031));
#1096=CARTESIAN_POINT('',(-0.0145,0.0547928932188135,0.0031));
#1097=CARTESIAN_POINT('',(-0.0145,-0.009,0.0031));
#1098=CARTESIAN_POINT('',(-0.0145,-0.009,0.0031));
#1099=CARTESIAN_POINT('',(-0.009,-0.009,0.0031));
#1100=CARTESIAN_POINT('',(-0.009,-0.0145,0.0031));
#1101=CARTESIAN_POINT('',(0.015,-0.0145,0.0031));
#1102=CARTESIAN_POINT('',(0.039,-0.0145,0.0031));
#1103=CARTESIAN_POINT('',(0.039,-0.009,0.0031));
#1104=CARTESIAN_POINT('',(0.0445,-0.009,0.0031));
#1105=CARTESIAN_POINT('',(0.0445,0.0225,0.0031));
#1106=CARTESIAN_POINT('',(0.0445,0.054,0.0031));
#1107=CARTESIAN_POINT('',(0.039,0.054,0.0031));
#1108=CARTESIAN_POINT('',(0.03,-0.005,0.0031));
#1109=CARTESIAN_POINT('',(0.033015,-0.005,0.0031));
#1110=CARTESIAN_POINT('',(0.,1.84615504971464E-19,0.0031));
#1111=CARTESIAN_POINT('',(0.003015,1.84615504971464E-19,0.0031));
#1112=CARTESIAN_POINT('',(0.,1.84615504971464E-19,0.025));
#1113=CARTESIAN_POINT('',(0.,1.84615504971464E-19,0.));
#1114=CARTESIAN_POINT('',(0.003015,1.84615504971464E-19,0.));
#1115=CARTESIAN_POINT('',(0.015,0.0225,0.));
#1116=CARTESIAN_POINT('',(0.03,-0.005,0.025));
#1117=CARTESIAN_POINT('',(0.03,-0.005,0.));
#1118=CARTESIAN_POINT('',(0.033015,-0.005,0.));
#1119=CARTESIAN_POINT('',(0.015,0.0225,0.));
#1120=CARTESIAN_POINT('',(0.039,-0.009,0.0026));
#1121=CARTESIAN_POINT('',(0.0445,-0.009,0.0026));
#1122=CARTESIAN_POINT('',(0.039,-0.0145,0.0026));
#1123=CARTESIAN_POINT('',(0.015,-0.0145,0.0026));
#1124=CARTESIAN_POINT('',(-0.009,-0.0145,0.0026));
#1125=CARTESIAN_POINT('',(0.0445,0.0225,0.0026));
#1126=CARTESIAN_POINT('',(0.0445,0.054,0.0026));
#1127=CARTESIAN_POINT('',(-0.009,-0.009,0.0026));
#1128=CARTESIAN_POINT('',(-0.0145,-0.009,0.0026));
#1129=CARTESIAN_POINT('',(0.039,0.054,0.0026));
#1130=CARTESIAN_POINT('',(0.039,0.0595,0.0026));
#1131=CARTESIAN_POINT('',(-0.0145,0.023,0.0026));
#1132=CARTESIAN_POINT('',(-0.0145,0.0547928932188135,0.0026));
#1133=CARTESIAN_POINT('',(0.0145,0.0595,0.0026));
#1134=CARTESIAN_POINT('',(-0.00979289321881344,0.0595,0.0026));
#1135=CARTESIAN_POINT('',(-0.0121464466094067,0.0571464466094067,0.0026));
#1136=CARTESIAN_POINT('',(-0.009,-0.009,-0.001));
#1137=CARTESIAN_POINT('',(-0.014,-0.009,-0.002));
#1138=CARTESIAN_POINT('',(-0.009,-0.015,-0.001));
#1139=CARTESIAN_POINT('',(0.015,-0.015,-0.001));
#1140=CARTESIAN_POINT('',(0.039,-0.015,-0.001));
#1141=CARTESIAN_POINT('',(-0.014,0.0225,-0.002));
#1142=CARTESIAN_POINT('',(-0.0144161987527965,0.054758181605678,-0.00158380124720346));
#1143=CARTESIAN_POINT('',(0.039,-0.009,-0.001));
#1144=CARTESIAN_POINT('',(0.045,-0.009,-0.001));
#1145=CARTESIAN_POINT('',(-0.0155428932188135,0.0530428932188135,-0.002));
#1146=CARTESIAN_POINT('',(-0.00764329852135719,0.0543104193277957,-0.0066895806722043));
#1147=CARTESIAN_POINT('',(0.045,0.0225,-0.001));
#1148=CARTESIAN_POINT('',(0.045,0.054,-0.001));
#1149=CARTESIAN_POINT('',(0.015,0.059,-0.002));
#1150=CARTESIAN_POINT('',(0.039,0.059,-0.002));
#1151=CARTESIAN_POINT('',(0.039,0.054,-0.001));
#1152=MECHANICAL_DESIGN_GEOMETRIC_PRESENTATION_REPRESENTATION('',(#651),
#1153);
#1153=(
GEOMETRIC_REPRESENTATION_CONTEXT(3)
GLOBAL_UNCERTAINTY_ASSIGNED_CONTEXT((#1154))
GLOBAL_UNIT_ASSIGNED_CONTEXT((#1157,#1156,#1155))
REPRESENTATION_CONTEXT('Part 1','TOP_LEVEL_ASSEMBLY_PART')
);
#1154=UNCERTAINTY_MEASURE_WITH_UNIT(LENGTH_MEASURE(1.E-8),#1157,
'DISTANCE_ACCURACY_VALUE','Maximum Tolerance applied to model');
#1155=(
NAMED_UNIT(*)
SI_UNIT($,.STERADIAN.)
SOLID_ANGLE_UNIT()
);
#1156=(
NAMED_UNIT(*)
PLANE_ANGLE_UNIT()
SI_UNIT($,.RADIAN.)
);
#1157=(
LENGTH_UNIT()
NAMED_UNIT(*)
SI_UNIT($,.METRE.)
);
#1158=PRODUCT_DEFINITION_SHAPE('','',#1159);
#1159=PRODUCT_DEFINITION('','',#1161,#1160);
#1160=PRODUCT_DEFINITION_CONTEXT('',#1167,'design');
#1161=PRODUCT_DEFINITION_FORMATION_WITH_SPECIFIED_SOURCE('','',#1163,
 .NOT_KNOWN.);
#1162=PRODUCT_RELATED_PRODUCT_CATEGORY('','',(#1163));
#1163=PRODUCT('Part 1','Part 1','Part 1',(#1165));
#1164=PRODUCT_CATEGORY('','');
#1165=PRODUCT_CONTEXT('',#1167,'mechanical');
#1166=APPLICATION_PROTOCOL_DEFINITION('international standard',
'ap242_managed_model_based_3d_engineering',2020,#1167);
#1167=APPLICATION_CONTEXT('managed model based 3d engineering');
ENDSEC;
END-ISO-10303-21;
