ISO-10303-21;
HEADER;
/* Generated by software containing ST-Developer
 * from STEP Tools, Inc. (www.steptools.com) 
 */
/* OPTION: using custom renumber hook */

FILE_DESCRIPTION(
/* description */ ('STEP AP242 Edition 2',
'CAx-IF Rec.Pracs.---Representation and Presentation of Product Manufa
cturing Information (PMI)---4.0---2014-10-13',
'CAx-IF Rec.Pracs.---3D Tessellated Geometry---0.4---2014-09-14','2;1',
'CAx-IF Rec.Pracs.---User Defined Attributes---1.5---2016-08-15'),
/* implementation_level */ '2;1');

FILE_NAME(
/* name */ 'Bottom - Part 1',
/* time_stamp */ '2026-10-04T08:41:26Z',
/* author */ (''),
/* organization */ (''),
/* preprocessor_version */ 'ST-DEVELOPER v20',
/* originating_system */ 'ONSHAPE BY PTC INC, 1.221',
/* authorisation */ '  ');

FILE_SCHEMA (('AP242_MANAGED_MODEL_BASED_3D_ENGINEERING_MIM_LF { 1 0 10303 442 3 1 4 }'));
ENDSEC;

DATA;
#10=SHAPE_REPRESENTATION_RELATIONSHIP('','',#503,#11);
#11=ADVANCED_BREP_SHAPE_REPRESENTATION('',(#501),#877);
#12=CONICAL_SURFACE('',#563,0.006,0.785398163397449);
#13=CONICAL_SURFACE('',#566,0.006,0.785398163397449);
#14=CONICAL_SURFACE('',#567,0.006,0.785398163397449);
#15=CONICAL_SURFACE('',#570,0.006,0.785398163397449);
#16=TOROIDAL_SURFACE('',#547,0.0055,0.0005);
#17=TOROIDAL_SURFACE('',#554,0.0055,0.0005);
#18=TOROIDAL_SURFACE('',#556,0.0055,0.0005);
#19=TOROIDAL_SURFACE('',#562,0.0055,0.0005);
#20=PLANE('',#508);
#21=PLANE('',#512);
#22=PLANE('',#516);
#23=PLANE('',#520);
#24=PLANE('',#521);
#25=PLANE('',#526);
#26=PLANE('',#537);
#27=PLANE('',#540);
#28=PLANE('',#543);
#29=PLANE('',#546);
#30=PLANE('',#564);
#31=PLANE('',#565);
#32=PLANE('',#568);
#33=PLANE('',#569);
#34=CIRCLE('',#506,0.006);
#35=CIRCLE('',#507,0.006);
#36=CIRCLE('',#510,0.006);
#37=CIRCLE('',#511,0.006);
#38=CIRCLE('',#514,0.006);
#39=CIRCLE('',#515,0.006);
#40=CIRCLE('',#518,0.006);
#41=CIRCLE('',#519,0.006);
#42=CIRCLE('',#522,0.005);
#43=CIRCLE('',#523,0.005);
#44=CIRCLE('',#524,0.005);
#45=CIRCLE('',#525,0.005);
#46=CIRCLE('',#527,0.0055);
#47=CIRCLE('',#528,0.0055);
#48=CIRCLE('',#529,0.0055);
#49=CIRCLE('',#530,0.0055);
#50=CIRCLE('',#531,0.003015);
#51=CIRCLE('',#532,0.003015);
#52=CIRCLE('',#533,0.003015);
#53=CIRCLE('',#534,0.003015);
#54=CIRCLE('',#536,0.003015);
#55=CIRCLE('',#539,0.003015);
#56=CIRCLE('',#542,0.003015);
#57=CIRCLE('',#545,0.003015);
#58=CIRCLE('',#548,0.0005);
#59=CIRCLE('',#549,0.0005);
#60=CIRCLE('',#551,0.0005);
#61=CIRCLE('',#553,0.0005);
#62=CIRCLE('',#555,0.0005);
#63=CIRCLE('',#557,0.0005);
#64=CIRCLE('',#559,0.0005);
#65=CIRCLE('',#561,0.0005);
#66=ORIENTED_EDGE('',*,*,#194,.F.);
#67=ORIENTED_EDGE('',*,*,#195,.T.);
#68=ORIENTED_EDGE('',*,*,#196,.T.);
#69=ORIENTED_EDGE('',*,*,#197,.T.);
#70=ORIENTED_EDGE('',*,*,#196,.F.);
#71=ORIENTED_EDGE('',*,*,#198,.T.);
#72=ORIENTED_EDGE('',*,*,#199,.T.);
#73=ORIENTED_EDGE('',*,*,#200,.T.);
#74=ORIENTED_EDGE('',*,*,#199,.F.);
#75=ORIENTED_EDGE('',*,*,#201,.T.);
#76=ORIENTED_EDGE('',*,*,#202,.T.);
#77=ORIENTED_EDGE('',*,*,#203,.T.);
#78=ORIENTED_EDGE('',*,*,#202,.F.);
#79=ORIENTED_EDGE('',*,*,#204,.T.);
#80=ORIENTED_EDGE('',*,*,#205,.T.);
#81=ORIENTED_EDGE('',*,*,#206,.T.);
#82=ORIENTED_EDGE('',*,*,#205,.F.);
#83=ORIENTED_EDGE('',*,*,#207,.T.);
#84=ORIENTED_EDGE('',*,*,#208,.T.);
#85=ORIENTED_EDGE('',*,*,#209,.T.);
#86=ORIENTED_EDGE('',*,*,#208,.F.);
#87=ORIENTED_EDGE('',*,*,#210,.T.);
#88=ORIENTED_EDGE('',*,*,#211,.T.);
#89=ORIENTED_EDGE('',*,*,#212,.T.);
#90=ORIENTED_EDGE('',*,*,#211,.F.);
#91=ORIENTED_EDGE('',*,*,#213,.T.);
#92=ORIENTED_EDGE('',*,*,#214,.T.);
#93=ORIENTED_EDGE('',*,*,#215,.T.);
#94=ORIENTED_EDGE('',*,*,#214,.F.);
#95=ORIENTED_EDGE('',*,*,#216,.T.);
#96=ORIENTED_EDGE('',*,*,#194,.T.);
#97=ORIENTED_EDGE('',*,*,#217,.T.);
#98=ORIENTED_EDGE('',*,*,#218,.T.);
#99=ORIENTED_EDGE('',*,*,#219,.T.);
#100=ORIENTED_EDGE('',*,*,#220,.T.);
#101=ORIENTED_EDGE('',*,*,#221,.T.);
#102=ORIENTED_EDGE('',*,*,#222,.T.);
#103=ORIENTED_EDGE('',*,*,#223,.T.);
#104=ORIENTED_EDGE('',*,*,#224,.T.);
#105=ORIENTED_EDGE('',*,*,#225,.T.);
#106=ORIENTED_EDGE('',*,*,#226,.T.);
#107=ORIENTED_EDGE('',*,*,#227,.T.);
#108=ORIENTED_EDGE('',*,*,#228,.T.);
#109=ORIENTED_EDGE('',*,*,#229,.T.);
#110=ORIENTED_EDGE('',*,*,#230,.T.);
#111=ORIENTED_EDGE('',*,*,#231,.T.);
#112=ORIENTED_EDGE('',*,*,#232,.T.);
#113=ORIENTED_EDGE('',*,*,#233,.T.);
#114=ORIENTED_EDGE('',*,*,#234,.T.);
#115=ORIENTED_EDGE('',*,*,#235,.T.);
#116=ORIENTED_EDGE('',*,*,#236,.T.);
#117=ORIENTED_EDGE('',*,*,#237,.T.);
#118=ORIENTED_EDGE('',*,*,#237,.F.);
#119=ORIENTED_EDGE('',*,*,#238,.F.);
#120=ORIENTED_EDGE('',*,*,#238,.T.);
#121=ORIENTED_EDGE('',*,*,#236,.F.);
#122=ORIENTED_EDGE('',*,*,#239,.F.);
#123=ORIENTED_EDGE('',*,*,#239,.T.);
#124=ORIENTED_EDGE('',*,*,#235,.F.);
#125=ORIENTED_EDGE('',*,*,#240,.F.);
#126=ORIENTED_EDGE('',*,*,#240,.T.);
#127=ORIENTED_EDGE('',*,*,#234,.F.);
#128=ORIENTED_EDGE('',*,*,#241,.F.);
#129=ORIENTED_EDGE('',*,*,#241,.T.);
#130=ORIENTED_EDGE('',*,*,#242,.F.);
#131=ORIENTED_EDGE('',*,*,#209,.F.);
#132=ORIENTED_EDGE('',*,*,#243,.F.);
#133=ORIENTED_EDGE('',*,*,#231,.F.);
#134=ORIENTED_EDGE('',*,*,#243,.T.);
#135=ORIENTED_EDGE('',*,*,#212,.F.);
#136=ORIENTED_EDGE('',*,*,#244,.F.);
#137=ORIENTED_EDGE('',*,*,#232,.F.);
#138=ORIENTED_EDGE('',*,*,#242,.T.);
#139=ORIENTED_EDGE('',*,*,#230,.F.);
#140=ORIENTED_EDGE('',*,*,#245,.F.);
#141=ORIENTED_EDGE('',*,*,#206,.F.);
#142=ORIENTED_EDGE('',*,*,#244,.T.);
#143=ORIENTED_EDGE('',*,*,#215,.F.);
#144=ORIENTED_EDGE('',*,*,#246,.F.);
#145=ORIENTED_EDGE('',*,*,#233,.F.);
#146=ORIENTED_EDGE('',*,*,#245,.T.);
#147=ORIENTED_EDGE('',*,*,#229,.F.);
#148=ORIENTED_EDGE('',*,*,#247,.F.);
#149=ORIENTED_EDGE('',*,*,#203,.F.);
#150=ORIENTED_EDGE('',*,*,#246,.T.);
#151=ORIENTED_EDGE('',*,*,#217,.F.);
#152=ORIENTED_EDGE('',*,*,#248,.F.);
#153=ORIENTED_EDGE('',*,*,#226,.F.);
#154=ORIENTED_EDGE('',*,*,#247,.T.);
#155=ORIENTED_EDGE('',*,*,#228,.F.);
#156=ORIENTED_EDGE('',*,*,#249,.F.);
#157=ORIENTED_EDGE('',*,*,#200,.F.);
#158=ORIENTED_EDGE('',*,*,#248,.T.);
#159=ORIENTED_EDGE('',*,*,#197,.F.);
#160=ORIENTED_EDGE('',*,*,#249,.T.);
#161=ORIENTED_EDGE('',*,*,#227,.F.);
#162=ORIENTED_EDGE('',*,*,#250,.F.);
#163=ORIENTED_EDGE('',*,*,#223,.F.);
#164=ORIENTED_EDGE('',*,*,#251,.F.);
#165=ORIENTED_EDGE('',*,*,#201,.F.);
#166=ORIENTED_EDGE('',*,*,#251,.T.);
#167=ORIENTED_EDGE('',*,*,#222,.F.);
#168=ORIENTED_EDGE('',*,*,#252,.F.);
#169=ORIENTED_EDGE('',*,*,#204,.F.);
#170=ORIENTED_EDGE('',*,*,#250,.T.);
#171=ORIENTED_EDGE('',*,*,#198,.F.);
#172=ORIENTED_EDGE('',*,*,#253,.F.);
#173=ORIENTED_EDGE('',*,*,#224,.F.);
#174=ORIENTED_EDGE('',*,*,#252,.T.);
#175=ORIENTED_EDGE('',*,*,#221,.F.);
#176=ORIENTED_EDGE('',*,*,#254,.F.);
#177=ORIENTED_EDGE('',*,*,#207,.F.);
#178=ORIENTED_EDGE('',*,*,#253,.T.);
#179=ORIENTED_EDGE('',*,*,#195,.F.);
#180=ORIENTED_EDGE('',*,*,#255,.F.);
#181=ORIENTED_EDGE('',*,*,#225,.F.);
#182=ORIENTED_EDGE('',*,*,#254,.T.);
#183=ORIENTED_EDGE('',*,*,#220,.F.);
#184=ORIENTED_EDGE('',*,*,#256,.F.);
#185=ORIENTED_EDGE('',*,*,#210,.F.);
#186=ORIENTED_EDGE('',*,*,#255,.T.);
#187=ORIENTED_EDGE('',*,*,#216,.F.);
#188=ORIENTED_EDGE('',*,*,#257,.F.);
#189=ORIENTED_EDGE('',*,*,#218,.F.);
#190=ORIENTED_EDGE('',*,*,#256,.T.);
#191=ORIENTED_EDGE('',*,*,#219,.F.);
#192=ORIENTED_EDGE('',*,*,#257,.T.);
#193=ORIENTED_EDGE('',*,*,#213,.F.);
#194=EDGE_CURVE('',#258,#259,#298,.T.);
#195=EDGE_CURVE('',#258,#260,#34,.T.);
#196=EDGE_CURVE('',#260,#261,#299,.T.);
#197=EDGE_CURVE('',#261,#259,#35,.F.);
#198=EDGE_CURVE('',#260,#262,#300,.T.);
#199=EDGE_CURVE('',#262,#263,#301,.T.);
#200=EDGE_CURVE('',#263,#261,#302,.F.);
#201=EDGE_CURVE('',#262,#264,#36,.T.);
#202=EDGE_CURVE('',#264,#265,#303,.T.);
#203=EDGE_CURVE('',#265,#263,#37,.F.);
#204=EDGE_CURVE('',#264,#266,#304,.T.);
#205=EDGE_CURVE('',#266,#267,#305,.T.);
#206=EDGE_CURVE('',#267,#265,#306,.F.);
#207=EDGE_CURVE('',#266,#268,#38,.T.);
#208=EDGE_CURVE('',#268,#269,#307,.T.);
#209=EDGE_CURVE('',#269,#267,#39,.F.);
#210=EDGE_CURVE('',#268,#270,#308,.T.);
#211=EDGE_CURVE('',#270,#271,#309,.T.);
#212=EDGE_CURVE('',#271,#269,#310,.T.);
#213=EDGE_CURVE('',#270,#272,#40,.T.);
#214=EDGE_CURVE('',#272,#273,#311,.T.);
#215=EDGE_CURVE('',#273,#271,#41,.F.);
#216=EDGE_CURVE('',#272,#258,#312,.T.);
#217=EDGE_CURVE('',#259,#273,#313,.T.);
#218=EDGE_CURVE('',#274,#275,#314,.T.);
#219=EDGE_CURVE('',#275,#276,#42,.F.);
#220=EDGE_CURVE('',#276,#277,#315,.T.);
#221=EDGE_CURVE('',#277,#278,#43,.F.);
#222=EDGE_CURVE('',#278,#279,#316,.T.);
#223=EDGE_CURVE('',#279,#280,#44,.F.);
#224=EDGE_CURVE('',#280,#281,#317,.T.);
#225=EDGE_CURVE('',#281,#274,#45,.F.);
#226=EDGE_CURVE('',#282,#283,#318,.F.);
#227=EDGE_CURVE('',#283,#284,#46,.T.);
#228=EDGE_CURVE('',#284,#285,#319,.T.);
#229=EDGE_CURVE('',#285,#286,#47,.T.);
#230=EDGE_CURVE('',#286,#287,#320,.T.);
#231=EDGE_CURVE('',#287,#288,#48,.T.);
#232=EDGE_CURVE('',#288,#289,#321,.F.);
#233=EDGE_CURVE('',#289,#282,#49,.T.);
#234=EDGE_CURVE('',#290,#290,#50,.F.);
#235=EDGE_CURVE('',#291,#291,#51,.F.);
#236=EDGE_CURVE('',#292,#292,#52,.F.);
#237=EDGE_CURVE('',#293,#293,#53,.F.);
#238=EDGE_CURVE('',#294,#294,#54,.T.);
#239=EDGE_CURVE('',#295,#295,#55,.T.);
#240=EDGE_CURVE('',#296,#296,#56,.T.);
#241=EDGE_CURVE('',#297,#297,#57,.T.);
#242=EDGE_CURVE('',#267,#287,#58,.T.);
#243=EDGE_CURVE('',#288,#269,#59,.T.);
#244=EDGE_CURVE('',#289,#271,#60,.T.);
#245=EDGE_CURVE('',#265,#286,#61,.T.);
#246=EDGE_CURVE('',#282,#273,#62,.T.);
#247=EDGE_CURVE('',#263,#285,#63,.T.);
#248=EDGE_CURVE('',#283,#259,#64,.T.);
#249=EDGE_CURVE('',#261,#284,#65,.T.);
#250=EDGE_CURVE('',#280,#262,#322,.T.);
#251=EDGE_CURVE('',#264,#279,#323,.T.);
#252=EDGE_CURVE('',#266,#278,#324,.T.);
#253=EDGE_CURVE('',#281,#260,#325,.T.);
#254=EDGE_CURVE('',#268,#277,#326,.T.);
#255=EDGE_CURVE('',#274,#258,#327,.T.);
#256=EDGE_CURVE('',#270,#276,#328,.T.);
#257=EDGE_CURVE('',#275,#272,#329,.T.);
#258=VERTEX_POINT('',#740);
#259=VERTEX_POINT('',#741);
#260=VERTEX_POINT('',#743);
#261=VERTEX_POINT('',#745);
#262=VERTEX_POINT('',#749);
#263=VERTEX_POINT('',#751);
#264=VERTEX_POINT('',#755);
#265=VERTEX_POINT('',#757);
#266=VERTEX_POINT('',#761);
#267=VERTEX_POINT('',#763);
#268=VERTEX_POINT('',#767);
#269=VERTEX_POINT('',#769);
#270=VERTEX_POINT('',#773);
#271=VERTEX_POINT('',#775);
#272=VERTEX_POINT('',#779);
#273=VERTEX_POINT('',#781);
#274=VERTEX_POINT('',#788);
#275=VERTEX_POINT('',#789);
#276=VERTEX_POINT('',#791);
#277=VERTEX_POINT('',#793);
#278=VERTEX_POINT('',#795);
#279=VERTEX_POINT('',#797);
#280=VERTEX_POINT('',#799);
#281=VERTEX_POINT('',#801);
#282=VERTEX_POINT('',#805);
#283=VERTEX_POINT('',#806);
#284=VERTEX_POINT('',#808);
#285=VERTEX_POINT('',#810);
#286=VERTEX_POINT('',#812);
#287=VERTEX_POINT('',#814);
#288=VERTEX_POINT('',#816);
#289=VERTEX_POINT('',#818);
#290=VERTEX_POINT('',#821);
#291=VERTEX_POINT('',#823);
#292=VERTEX_POINT('',#825);
#293=VERTEX_POINT('',#827);
#294=VERTEX_POINT('',#830);
#295=VERTEX_POINT('',#834);
#296=VERTEX_POINT('',#838);
#297=VERTEX_POINT('',#842);
#298=LINE('',#739,#330);
#299=LINE('',#744,#331);
#300=LINE('',#748,#332);
#301=LINE('',#750,#333);
#302=LINE('',#752,#334);
#303=LINE('',#756,#335);
#304=LINE('',#760,#336);
#305=LINE('',#762,#337);
#306=LINE('',#764,#338);
#307=LINE('',#768,#339);
#308=LINE('',#772,#340);
#309=LINE('',#774,#341);
#310=LINE('',#776,#342);
#311=LINE('',#780,#343);
#312=LINE('',#784,#344);
#313=LINE('',#785,#345);
#314=LINE('',#787,#346);
#315=LINE('',#792,#347);
#316=LINE('',#796,#348);
#317=LINE('',#800,#349);
#318=LINE('',#804,#350);
#319=LINE('',#809,#351);
#320=LINE('',#813,#352);
#321=LINE('',#817,#353);
#322=LINE('',#861,#354);
#323=LINE('',#862,#355);
#324=LINE('',#864,#356);
#325=LINE('',#866,#357);
#326=LINE('',#868,#358);
#327=LINE('',#870,#359);
#328=LINE('',#872,#360);
#329=LINE('',#874,#361);
#330=VECTOR('',#575,1.);
#331=VECTOR('',#578,1.);
#332=VECTOR('',#583,1.);
#333=VECTOR('',#584,1.);
#334=VECTOR('',#585,1.);
#335=VECTOR('',#590,1.);
#336=VECTOR('',#595,1.);
#337=VECTOR('',#596,1.);
#338=VECTOR('',#597,1.);
#339=VECTOR('',#602,1.);
#340=VECTOR('',#607,1.);
#341=VECTOR('',#608,1.);
#342=VECTOR('',#609,1.);
#343=VECTOR('',#614,1.);
#344=VECTOR('',#619,1.);
#345=VECTOR('',#620,1.);
#346=VECTOR('',#623,1.);
#347=VECTOR('',#626,1.);
#348=VECTOR('',#629,1.);
#349=VECTOR('',#632,1.);
#350=VECTOR('',#637,1.);
#351=VECTOR('',#640,1.);
#352=VECTOR('',#643,1.);
#353=VECTOR('',#646,1.);
#354=VECTOR('',#715,1.);
#355=VECTOR('',#716,1.);
#356=VECTOR('',#719,1.);
#357=VECTOR('',#722,1.);
#358=VECTOR('',#725,1.);
#359=VECTOR('',#728,1.);
#360=VECTOR('',#731,1.);
#361=VECTOR('',#734,1.);
#362=EDGE_LOOP('',(#66,#67,#68,#69));
#363=EDGE_LOOP('',(#70,#71,#72,#73));
#364=EDGE_LOOP('',(#74,#75,#76,#77));
#365=EDGE_LOOP('',(#78,#79,#80,#81));
#366=EDGE_LOOP('',(#82,#83,#84,#85));
#367=EDGE_LOOP('',(#86,#87,#88,#89));
#368=EDGE_LOOP('',(#90,#91,#92,#93));
#369=EDGE_LOOP('',(#94,#95,#96,#97));
#370=EDGE_LOOP('',(#98,#99,#100,#101,#102,#103,#104,#105));
#371=EDGE_LOOP('',(#106,#107,#108,#109,#110,#111,#112,#113));
#372=EDGE_LOOP('',(#114));
#373=EDGE_LOOP('',(#115));
#374=EDGE_LOOP('',(#116));
#375=EDGE_LOOP('',(#117));
#376=EDGE_LOOP('',(#118));
#377=EDGE_LOOP('',(#119));
#378=EDGE_LOOP('',(#120));
#379=EDGE_LOOP('',(#121));
#380=EDGE_LOOP('',(#122));
#381=EDGE_LOOP('',(#123));
#382=EDGE_LOOP('',(#124));
#383=EDGE_LOOP('',(#125));
#384=EDGE_LOOP('',(#126));
#385=EDGE_LOOP('',(#127));
#386=EDGE_LOOP('',(#128));
#387=EDGE_LOOP('',(#129));
#388=EDGE_LOOP('',(#130,#131,#132,#133));
#389=EDGE_LOOP('',(#134,#135,#136,#137));
#390=EDGE_LOOP('',(#138,#139,#140,#141));
#391=EDGE_LOOP('',(#142,#143,#144,#145));
#392=EDGE_LOOP('',(#146,#147,#148,#149));
#393=EDGE_LOOP('',(#150,#151,#152,#153));
#394=EDGE_LOOP('',(#154,#155,#156,#157));
#395=EDGE_LOOP('',(#158,#159,#160,#161));
#396=EDGE_LOOP('',(#162,#163,#164,#165));
#397=EDGE_LOOP('',(#166,#167,#168,#169));
#398=EDGE_LOOP('',(#170,#171,#172,#173));
#399=EDGE_LOOP('',(#174,#175,#176,#177));
#400=EDGE_LOOP('',(#178,#179,#180,#181));
#401=EDGE_LOOP('',(#182,#183,#184,#185));
#402=EDGE_LOOP('',(#186,#187,#188,#189));
#403=EDGE_LOOP('',(#190,#191,#192,#193));
#404=FACE_BOUND('',#362,.T.);
#405=FACE_BOUND('',#363,.T.);
#406=FACE_BOUND('',#364,.T.);
#407=FACE_BOUND('',#365,.T.);
#408=FACE_BOUND('',#366,.T.);
#409=FACE_BOUND('',#367,.T.);
#410=FACE_BOUND('',#368,.T.);
#411=FACE_BOUND('',#369,.T.);
#412=FACE_BOUND('',#370,.T.);
#413=FACE_BOUND('',#371,.T.);
#414=FACE_BOUND('',#372,.T.);
#415=FACE_BOUND('',#373,.T.);
#416=FACE_BOUND('',#374,.T.);
#417=FACE_BOUND('',#375,.T.);
#418=FACE_BOUND('',#376,.T.);
#419=FACE_BOUND('',#377,.T.);
#420=FACE_BOUND('',#378,.T.);
#421=FACE_BOUND('',#379,.T.);
#422=FACE_BOUND('',#380,.T.);
#423=FACE_BOUND('',#381,.T.);
#424=FACE_BOUND('',#382,.T.);
#425=FACE_BOUND('',#383,.T.);
#426=FACE_BOUND('',#384,.T.);
#427=FACE_BOUND('',#385,.T.);
#428=FACE_BOUND('',#386,.T.);
#429=FACE_BOUND('',#387,.T.);
#430=FACE_BOUND('',#388,.T.);
#431=FACE_BOUND('',#389,.T.);
#432=FACE_BOUND('',#390,.T.);
#433=FACE_BOUND('',#391,.T.);
#434=FACE_BOUND('',#392,.T.);
#435=FACE_BOUND('',#393,.T.);
#436=FACE_BOUND('',#394,.T.);
#437=FACE_BOUND('',#395,.T.);
#438=FACE_BOUND('',#396,.T.);
#439=FACE_BOUND('',#397,.T.);
#440=FACE_BOUND('',#398,.T.);
#441=FACE_BOUND('',#399,.T.);
#442=FACE_BOUND('',#400,.T.);
#443=FACE_BOUND('',#401,.T.);
#444=FACE_BOUND('',#402,.T.);
#445=FACE_BOUND('',#403,.T.);
#446=CYLINDRICAL_SURFACE('',#505,0.006);
#447=CYLINDRICAL_SURFACE('',#509,0.006);
#448=CYLINDRICAL_SURFACE('',#513,0.006);
#449=CYLINDRICAL_SURFACE('',#517,0.006);
#450=CYLINDRICAL_SURFACE('',#535,0.003015);
#451=CYLINDRICAL_SURFACE('',#538,0.003015);
#452=CYLINDRICAL_SURFACE('',#541,0.003015);
#453=CYLINDRICAL_SURFACE('',#544,0.003015);
#454=CYLINDRICAL_SURFACE('',#550,0.0005);
#455=CYLINDRICAL_SURFACE('',#552,0.0005);
#456=CYLINDRICAL_SURFACE('',#558,0.0005);
#457=CYLINDRICAL_SURFACE('',#560,0.0005);
#458=ADVANCED_FACE('',(#404),#446,.T.);
#459=ADVANCED_FACE('',(#405),#20,.T.);
#460=ADVANCED_FACE('',(#406),#447,.T.);
#461=ADVANCED_FACE('',(#407),#21,.T.);
#462=ADVANCED_FACE('',(#408),#448,.T.);
#463=ADVANCED_FACE('',(#409),#22,.F.);
#464=ADVANCED_FACE('',(#410),#449,.T.);
#465=ADVANCED_FACE('',(#411),#23,.F.);
#466=ADVANCED_FACE('',(#412),#24,.F.);
#467=ADVANCED_FACE('',(#413,#414,#415,#416,#417),#25,.T.);
#468=ADVANCED_FACE('',(#418,#419),#450,.F.);
#469=ADVANCED_FACE('',(#420),#26,.T.);
#470=ADVANCED_FACE('',(#421,#422),#451,.F.);
#471=ADVANCED_FACE('',(#423),#27,.T.);
#472=ADVANCED_FACE('',(#424,#425),#452,.F.);
#473=ADVANCED_FACE('',(#426),#28,.T.);
#474=ADVANCED_FACE('',(#427,#428),#453,.F.);
#475=ADVANCED_FACE('',(#429),#29,.T.);
#476=ADVANCED_FACE('',(#430),#16,.T.);
#477=ADVANCED_FACE('',(#431),#454,.T.);
#478=ADVANCED_FACE('',(#432),#455,.T.);
#479=ADVANCED_FACE('',(#433),#17,.T.);
#480=ADVANCED_FACE('',(#434),#18,.T.);
#481=ADVANCED_FACE('',(#435),#456,.T.);
#482=ADVANCED_FACE('',(#436),#457,.T.);
#483=ADVANCED_FACE('',(#437),#19,.T.);
#484=ADVANCED_FACE('',(#438),#12,.T.);
#485=ADVANCED_FACE('',(#439),#30,.T.);
#486=ADVANCED_FACE('',(#440),#31,.T.);
#487=ADVANCED_FACE('',(#441),#13,.T.);
#488=ADVANCED_FACE('',(#442),#14,.T.);
#489=ADVANCED_FACE('',(#443),#32,.F.);
#490=ADVANCED_FACE('',(#444),#33,.F.);
#491=ADVANCED_FACE('',(#445),#15,.T.);
#492=CLOSED_SHELL('',(#458,#459,#460,#461,#462,#463,#464,#465,#466,#467,
#468,#469,#470,#471,#472,#473,#474,#475,#476,#477,#478,#479,#480,#481,#482,
#483,#484,#485,#486,#487,#488,#489,#490,#491));
#493=STYLED_ITEM('',(#494),#501);
#494=PRESENTATION_STYLE_ASSIGNMENT((#495));
#495=SURFACE_STYLE_USAGE(.BOTH.,#496);
#496=SURFACE_SIDE_STYLE('',(#497));
#497=SURFACE_STYLE_FILL_AREA(#498);
#498=FILL_AREA_STYLE('',(#499));
#499=FILL_AREA_STYLE_COLOUR('',#500);
#500=COLOUR_RGB('',0.615686274509804,0.811764705882353,0.929411764705882);
#501=MANIFOLD_SOLID_BREP('Part 1',#492);
#502=SHAPE_DEFINITION_REPRESENTATION(#882,#503);
#503=SHAPE_REPRESENTATION('Part 1',(#504),#877);
#504=AXIS2_PLACEMENT_3D('',#737,#571,#572);
#505=AXIS2_PLACEMENT_3D('',#738,#573,#574);
#506=AXIS2_PLACEMENT_3D('',#742,#576,#577);
#507=AXIS2_PLACEMENT_3D('',#746,#579,#580);
#508=AXIS2_PLACEMENT_3D('',#747,#581,#582);
#509=AXIS2_PLACEMENT_3D('',#753,#586,#587);
#510=AXIS2_PLACEMENT_3D('',#754,#588,#589);
#511=AXIS2_PLACEMENT_3D('',#758,#591,#592);
#512=AXIS2_PLACEMENT_3D('',#759,#593,#594);
#513=AXIS2_PLACEMENT_3D('',#765,#598,#599);
#514=AXIS2_PLACEMENT_3D('',#766,#600,#601);
#515=AXIS2_PLACEMENT_3D('',#770,#603,#604);
#516=AXIS2_PLACEMENT_3D('',#771,#605,#606);
#517=AXIS2_PLACEMENT_3D('',#777,#610,#611);
#518=AXIS2_PLACEMENT_3D('',#778,#612,#613);
#519=AXIS2_PLACEMENT_3D('',#782,#615,#616);
#520=AXIS2_PLACEMENT_3D('',#783,#617,#618);
#521=AXIS2_PLACEMENT_3D('',#786,#621,#622);
#522=AXIS2_PLACEMENT_3D('',#790,#624,#625);
#523=AXIS2_PLACEMENT_3D('',#794,#627,#628);
#524=AXIS2_PLACEMENT_3D('',#798,#630,#631);
#525=AXIS2_PLACEMENT_3D('',#802,#633,#634);
#526=AXIS2_PLACEMENT_3D('',#803,#635,#636);
#527=AXIS2_PLACEMENT_3D('',#807,#638,#639);
#528=AXIS2_PLACEMENT_3D('',#811,#641,#642);
#529=AXIS2_PLACEMENT_3D('',#815,#644,#645);
#530=AXIS2_PLACEMENT_3D('',#819,#647,#648);
#531=AXIS2_PLACEMENT_3D('',#820,#649,#650);
#532=AXIS2_PLACEMENT_3D('',#822,#651,#652);
#533=AXIS2_PLACEMENT_3D('',#824,#653,#654);
#534=AXIS2_PLACEMENT_3D('',#826,#655,#656);
#535=AXIS2_PLACEMENT_3D('',#828,#657,#658);
#536=AXIS2_PLACEMENT_3D('',#829,#659,#660);
#537=AXIS2_PLACEMENT_3D('',#831,#661,#662);
#538=AXIS2_PLACEMENT_3D('',#832,#663,#664);
#539=AXIS2_PLACEMENT_3D('',#833,#665,#666);
#540=AXIS2_PLACEMENT_3D('',#835,#667,#668);
#541=AXIS2_PLACEMENT_3D('',#836,#669,#670);
#542=AXIS2_PLACEMENT_3D('',#837,#671,#672);
#543=AXIS2_PLACEMENT_3D('',#839,#673,#674);
#544=AXIS2_PLACEMENT_3D('',#840,#675,#676);
#545=AXIS2_PLACEMENT_3D('',#841,#677,#678);
#546=AXIS2_PLACEMENT_3D('',#843,#679,#680);
#547=AXIS2_PLACEMENT_3D('',#844,#681,#682);
#548=AXIS2_PLACEMENT_3D('',#845,#683,#684);
#549=AXIS2_PLACEMENT_3D('',#846,#685,#686);
#550=AXIS2_PLACEMENT_3D('',#847,#687,#688);
#551=AXIS2_PLACEMENT_3D('',#848,#689,#690);
#552=AXIS2_PLACEMENT_3D('',#849,#691,#692);
#553=AXIS2_PLACEMENT_3D('',#850,#693,#694);
#554=AXIS2_PLACEMENT_3D('',#851,#695,#696);
#555=AXIS2_PLACEMENT_3D('',#852,#697,#698);
#556=AXIS2_PLACEMENT_3D('',#853,#699,#700);
#557=AXIS2_PLACEMENT_3D('',#854,#701,#702);
#558=AXIS2_PLACEMENT_3D('',#855,#703,#704);
#559=AXIS2_PLACEMENT_3D('',#856,#705,#706);
#560=AXIS2_PLACEMENT_3D('',#857,#707,#708);
#561=AXIS2_PLACEMENT_3D('',#858,#709,#710);
#562=AXIS2_PLACEMENT_3D('',#859,#711,#712);
#563=AXIS2_PLACEMENT_3D('',#860,#713,#714);
#564=AXIS2_PLACEMENT_3D('',#863,#717,#718);
#565=AXIS2_PLACEMENT_3D('',#865,#720,#721);
#566=AXIS2_PLACEMENT_3D('',#867,#723,#724);
#567=AXIS2_PLACEMENT_3D('',#869,#726,#727);
#568=AXIS2_PLACEMENT_3D('',#871,#729,#730);
#569=AXIS2_PLACEMENT_3D('',#873,#732,#733);
#570=AXIS2_PLACEMENT_3D('',#875,#735,#736);
#571=DIRECTION('',(0.,0.,1.));
#572=DIRECTION('',(1.,0.,0.));
#573=DIRECTION('',(0.,0.,1.));
#574=DIRECTION('',(1.,0.,0.));
#575=DIRECTION('',(0.,0.,1.));
#576=DIRECTION('',(0.,0.,1.));
#577=DIRECTION('',(1.,0.,0.));
#578=DIRECTION('',(0.,0.,1.));
#579=DIRECTION('',(0.,0.,1.));
#580=DIRECTION('',(1.,0.,0.));
#581=DIRECTION('',(0.,-1.,0.));
#582=DIRECTION('',(0.,0.,-1.));
#583=DIRECTION('',(1.,0.,0.));
#584=DIRECTION('',(0.,0.,1.));
#585=DIRECTION('',(1.,0.,0.));
#586=DIRECTION('',(0.,0.,1.));
#587=DIRECTION('',(1.,0.,0.));
#588=DIRECTION('',(0.,0.,1.));
#589=DIRECTION('',(1.,0.,0.));
#590=DIRECTION('',(0.,0.,1.));
#591=DIRECTION('',(0.,0.,1.));
#592=DIRECTION('',(1.,0.,0.));
#593=DIRECTION('',(1.,0.,0.));
#594=DIRECTION('',(0.,0.,-1.));
#595=DIRECTION('',(0.,1.,0.));
#596=DIRECTION('',(0.,0.,1.));
#597=DIRECTION('',(0.,1.,0.));
#598=DIRECTION('',(0.,0.,1.));
#599=DIRECTION('',(1.,0.,0.));
#600=DIRECTION('',(0.,0.,1.));
#601=DIRECTION('',(1.,0.,0.));
#602=DIRECTION('',(0.,0.,1.));
#603=DIRECTION('',(0.,0.,1.));
#604=DIRECTION('',(1.,0.,0.));
#605=DIRECTION('',(0.,-1.,0.));
#606=DIRECTION('',(0.,0.,-1.));
#607=DIRECTION('',(-1.,0.,0.));
#608=DIRECTION('',(0.,0.,1.));
#609=DIRECTION('',(1.,0.,0.));
#610=DIRECTION('',(0.,0.,1.));
#611=DIRECTION('',(1.,0.,0.));
#612=DIRECTION('',(0.,0.,1.));
#613=DIRECTION('',(1.,0.,0.));
#614=DIRECTION('',(0.,0.,1.));
#615=DIRECTION('',(0.,0.,1.));
#616=DIRECTION('',(1.,0.,0.));
#617=DIRECTION('',(1.,0.,0.));
#618=DIRECTION('',(0.,0.,-1.));
#619=DIRECTION('',(0.,-1.,0.));
#620=DIRECTION('',(0.,1.,0.));
#621=DIRECTION('',(0.,0.,1.));
#622=DIRECTION('',(1.,0.,0.));
#623=DIRECTION('',(0.,1.,0.));
#624=DIRECTION('',(0.,0.,1.));
#625=DIRECTION('',(1.,0.,0.));
#626=DIRECTION('',(1.,0.,0.));
#627=DIRECTION('',(0.,0.,1.));
#628=DIRECTION('',(1.,0.,0.));
#629=DIRECTION('',(0.,-1.,0.));
#630=DIRECTION('',(0.,0.,1.));
#631=DIRECTION('',(1.,0.,0.));
#632=DIRECTION('',(-1.,0.,0.));
#633=DIRECTION('',(0.,0.,1.));
#634=DIRECTION('',(1.,0.,0.));
#635=DIRECTION('',(0.,0.,1.));
#636=DIRECTION('',(1.,0.,0.));
#637=DIRECTION('',(0.,1.,0.));
#638=DIRECTION('',(0.,0.,1.));
#639=DIRECTION('',(1.,0.,0.));
#640=DIRECTION('',(1.,0.,0.));
#641=DIRECTION('',(0.,0.,1.));
#642=DIRECTION('',(1.,0.,0.));
#643=DIRECTION('',(0.,1.,0.));
#644=DIRECTION('',(0.,0.,1.));
#645=DIRECTION('',(1.,0.,0.));
#646=DIRECTION('',(1.,0.,0.));
#647=DIRECTION('',(0.,0.,1.));
#648=DIRECTION('',(1.,0.,0.));
#649=DIRECTION('',(0.,0.,1.));
#650=DIRECTION('',(1.,0.,0.));
#651=DIRECTION('',(0.,0.,1.));
#652=DIRECTION('',(1.,0.,0.));
#653=DIRECTION('',(0.,0.,1.));
#654=DIRECTION('',(1.,0.,0.));
#655=DIRECTION('',(0.,0.,1.));
#656=DIRECTION('',(1.,0.,0.));
#657=DIRECTION('',(0.,0.,-1.));
#658=DIRECTION('',(-1.,0.,0.));
#659=DIRECTION('',(0.,0.,1.));
#660=DIRECTION('',(1.,0.,0.));
#661=DIRECTION('',(0.,0.,1.));
#662=DIRECTION('',(1.,0.,0.));
#663=DIRECTION('',(0.,0.,-1.));
#664=DIRECTION('',(-1.,0.,0.));
#665=DIRECTION('',(0.,0.,1.));
#666=DIRECTION('',(1.,0.,0.));
#667=DIRECTION('',(0.,0.,1.));
#668=DIRECTION('',(1.,0.,0.));
#669=DIRECTION('',(0.,0.,-1.));
#670=DIRECTION('',(-1.,0.,0.));
#671=DIRECTION('',(0.,0.,1.));
#672=DIRECTION('',(1.,0.,0.));
#673=DIRECTION('',(0.,0.,1.));
#674=DIRECTION('',(1.,0.,0.));
#675=DIRECTION('',(0.,0.,-1.));
#676=DIRECTION('',(-1.,0.,0.));
#677=DIRECTION('',(0.,0.,1.));
#678=DIRECTION('',(1.,0.,0.));
#679=DIRECTION('',(0.,0.,1.));
#680=DIRECTION('',(1.,0.,0.));
#681=DIRECTION('',(0.,0.,1.));
#682=DIRECTION('',(1.,0.,0.));
#683=DIRECTION('',(0.,-1.,0.));
#684=DIRECTION('',(0.,0.,-1.));
#685=DIRECTION('',(-1.,0.,0.));
#686=DIRECTION('',(0.,0.,1.));
#687=DIRECTION('',(-1.,0.,0.));
#688=DIRECTION('',(0.,0.,1.));
#689=DIRECTION('',(-1.,0.,0.));
#690=DIRECTION('',(0.,0.,1.));
#691=DIRECTION('',(0.,1.,0.));
#692=DIRECTION('',(0.,0.,1.));
#693=DIRECTION('',(0.,-1.,0.));
#694=DIRECTION('',(0.,0.,-1.));
#695=DIRECTION('',(0.,0.,1.));
#696=DIRECTION('',(1.,0.,0.));
#697=DIRECTION('',(0.,-1.,0.));
#698=DIRECTION('',(0.,0.,-1.));
#699=DIRECTION('',(0.,0.,1.));
#700=DIRECTION('',(1.,0.,0.));
#701=DIRECTION('',(-1.,0.,0.));
#702=DIRECTION('',(0.,0.,1.));
#703=DIRECTION('',(0.,-1.,0.));
#704=DIRECTION('',(0.,0.,-1.));
#705=DIRECTION('',(0.,-1.,0.));
#706=DIRECTION('',(0.,0.,-1.));
#707=DIRECTION('',(1.,0.,0.));
#708=DIRECTION('',(0.,0.,-1.));
#709=DIRECTION('',(-1.,0.,0.));
#710=DIRECTION('',(0.,0.,1.));
#711=DIRECTION('',(0.,0.,1.));
#712=DIRECTION('',(1.,0.,0.));
#713=DIRECTION('',(0.,0.,1.));
#714=DIRECTION('',(1.,0.,0.));
#715=DIRECTION('',(0.,-0.707106781186548,0.707106781186547));
#716=DIRECTION('',(-0.707106781186548,0.,-0.707106781186547));
#717=DIRECTION('',(0.707106781186547,0.,-0.707106781186548));
#718=DIRECTION('',(0.,-1.,0.));
#719=DIRECTION('',(-0.707106781186548,0.,-0.707106781186547));
#720=DIRECTION('',(0.,-0.707106781186547,-0.707106781186548));
#721=DIRECTION('',(-1.,0.,0.));
#722=DIRECTION('',(0.,-0.707106781186548,0.707106781186547));
#723=DIRECTION('',(0.,0.,1.));
#724=DIRECTION('',(1.,0.,0.));
#725=DIRECTION('',(0.,-0.707106781186548,-0.707106781186547));
#726=DIRECTION('',(0.,0.,1.));
#727=DIRECTION('',(1.,0.,0.));
#728=DIRECTION('',(-0.707106781186548,3.06658683336675E-16,0.707106781186548));
#729=DIRECTION('',(0.,-0.707106781186547,0.707106781186548));
#730=DIRECTION('',(1.,0.,0.));
#731=DIRECTION('',(0.,-0.707106781186548,-0.707106781186547));
#732=DIRECTION('',(0.707106781186547,0.,0.707106781186548));
#733=DIRECTION('',(0.,1.,0.));
#734=DIRECTION('',(-0.707106781186548,0.,0.707106781186547));
#735=DIRECTION('',(0.,0.,1.));
#736=DIRECTION('',(1.,0.,0.));
#737=CARTESIAN_POINT('',(0.,0.,0.));
#738=CARTESIAN_POINT('',(-0.002,-0.002,-0.002));
#739=CARTESIAN_POINT('',(-0.008,-0.002,-0.002));
#740=CARTESIAN_POINT('',(-0.008,-0.002,-0.001));
#741=CARTESIAN_POINT('',(-0.008,-0.002,0.0026));
#742=CARTESIAN_POINT('',(-0.002,-0.002,-0.001));
#743=CARTESIAN_POINT('',(-0.002,-0.008,-0.001));
#744=CARTESIAN_POINT('',(-0.002,-0.008,-0.002));
#745=CARTESIAN_POINT('',(-0.002,-0.008,0.0026));
#746=CARTESIAN_POINT('',(-0.002,-0.002,0.0026));
#747=CARTESIAN_POINT('',(0.007,-0.008,-0.002));
#748=CARTESIAN_POINT('',(0.016,-0.008,-0.001));
#749=CARTESIAN_POINT('',(0.016,-0.008,-0.001));
#750=CARTESIAN_POINT('',(0.016,-0.008,-0.002));
#751=CARTESIAN_POINT('',(0.016,-0.008,0.0026));
#752=CARTESIAN_POINT('',(0.007,-0.008,0.0026));
#753=CARTESIAN_POINT('',(0.016,-0.002,-0.002));
#754=CARTESIAN_POINT('',(0.016,-0.002,-0.001));
#755=CARTESIAN_POINT('',(0.022,-0.002,-0.001));
#756=CARTESIAN_POINT('',(0.022,-0.002,-0.002));
#757=CARTESIAN_POINT('',(0.022,-0.002,0.0026));
#758=CARTESIAN_POINT('',(0.016,-0.002,0.0026));
#759=CARTESIAN_POINT('',(0.022,0.007,-0.002));
#760=CARTESIAN_POINT('',(0.022,0.016,-0.001));
#761=CARTESIAN_POINT('',(0.022,0.016,-0.001));
#762=CARTESIAN_POINT('',(0.022,0.016,-0.002));
#763=CARTESIAN_POINT('',(0.022,0.016,0.0026));
#764=CARTESIAN_POINT('',(0.022,0.007,0.0026));
#765=CARTESIAN_POINT('',(0.016,0.016,-0.002));
#766=CARTESIAN_POINT('',(0.016,0.016,-0.001));
#767=CARTESIAN_POINT('',(0.016,0.022,-0.001));
#768=CARTESIAN_POINT('',(0.016,0.022,-0.002));
#769=CARTESIAN_POINT('',(0.016,0.022,0.0026));
#770=CARTESIAN_POINT('',(0.016,0.016,0.0026));
#771=CARTESIAN_POINT('',(0.007,0.022,-0.002));
#772=CARTESIAN_POINT('',(0.007,0.022,-0.001));
#773=CARTESIAN_POINT('',(-0.002,0.022,-0.001));
#774=CARTESIAN_POINT('',(-0.002,0.022,-0.002));
#775=CARTESIAN_POINT('',(-0.002,0.022,0.0026));
#776=CARTESIAN_POINT('',(0.016,0.022,0.0026));
#777=CARTESIAN_POINT('',(-0.002,0.016,-0.002));
#778=CARTESIAN_POINT('',(-0.002,0.016,-0.001));
#779=CARTESIAN_POINT('',(-0.008,0.016,-0.001));
#780=CARTESIAN_POINT('',(-0.008,0.016,-0.002));
#781=CARTESIAN_POINT('',(-0.008,0.016,0.0026));
#782=CARTESIAN_POINT('',(-0.002,0.016,0.0026));
#783=CARTESIAN_POINT('',(-0.008,0.007,-0.002));
#784=CARTESIAN_POINT('',(-0.008,0.007,-0.001));
#785=CARTESIAN_POINT('',(-0.008,0.016,0.0026));
#786=CARTESIAN_POINT('',(0.007,0.007,-0.002));
#787=CARTESIAN_POINT('',(-0.007,0.007,-0.002));
#788=CARTESIAN_POINT('',(-0.007,-0.002,-0.002));
#789=CARTESIAN_POINT('',(-0.007,0.016,-0.002));
#790=CARTESIAN_POINT('',(-0.002,0.016,-0.002));
#791=CARTESIAN_POINT('',(-0.002,0.021,-0.002));
#792=CARTESIAN_POINT('',(0.007,0.021,-0.002));
#793=CARTESIAN_POINT('',(0.016,0.021,-0.002));
#794=CARTESIAN_POINT('',(0.016,0.016,-0.002));
#795=CARTESIAN_POINT('',(0.021,0.016,-0.002));
#796=CARTESIAN_POINT('',(0.021,-0.002,-0.002));
#797=CARTESIAN_POINT('',(0.021,-0.002,-0.002));
#798=CARTESIAN_POINT('',(0.016,-0.002,-0.002));
#799=CARTESIAN_POINT('',(0.016,-0.007,-0.002));
#800=CARTESIAN_POINT('',(-0.002,-0.007,-0.002));
#801=CARTESIAN_POINT('',(-0.002,-0.007,-0.002));
#802=CARTESIAN_POINT('',(-0.002,-0.002,-0.002));
#803=CARTESIAN_POINT('',(0.007,0.007,0.0031));
#804=CARTESIAN_POINT('',(-0.0075,-0.002,0.0031));
#805=CARTESIAN_POINT('',(-0.0075,0.016,0.0031));
#806=CARTESIAN_POINT('',(-0.0075,-0.002,0.0031));
#807=CARTESIAN_POINT('',(-0.002,-0.002,0.0031));
#808=CARTESIAN_POINT('',(-0.002,-0.0075,0.0031));
#809=CARTESIAN_POINT('',(0.007,-0.0075,0.0031));
#810=CARTESIAN_POINT('',(0.016,-0.0075,0.0031));
#811=CARTESIAN_POINT('',(0.016,-0.002,0.0031));
#812=CARTESIAN_POINT('',(0.0215,-0.002,0.0031));
#813=CARTESIAN_POINT('',(0.0215,0.007,0.0031));
#814=CARTESIAN_POINT('',(0.0215,0.016,0.0031));
#815=CARTESIAN_POINT('',(0.016,0.016,0.0031));
#816=CARTESIAN_POINT('',(0.016,0.0215,0.0031));
#817=CARTESIAN_POINT('',(-0.002,0.0215,0.0031));
#818=CARTESIAN_POINT('',(-0.002,0.0215,0.0031));
#819=CARTESIAN_POINT('',(-0.002,0.016,0.0031));
#820=CARTESIAN_POINT('',(0.014,7.41045307513758E-19,0.0031));
#821=CARTESIAN_POINT('',(0.017015,7.41045307513758E-19,0.0031));
#822=CARTESIAN_POINT('',(1.7347234759768E-18,0.014,0.0031));
#823=CARTESIAN_POINT('',(0.003015,0.014,0.0031));
#824=CARTESIAN_POINT('',(0.014,0.014,0.0031));
#825=CARTESIAN_POINT('',(0.017015,0.014,0.0031));
#826=CARTESIAN_POINT('',(0.,1.84615504971464E-19,0.0031));
#827=CARTESIAN_POINT('',(0.003015,1.84615504971464E-19,0.0031));
#828=CARTESIAN_POINT('',(0.,1.84615504971464E-19,0.025));
#829=CARTESIAN_POINT('',(0.,1.84615504971464E-19,0.));
#830=CARTESIAN_POINT('',(0.003015,1.84615504971464E-19,0.));
#831=CARTESIAN_POINT('',(0.007,0.007,0.));
#832=CARTESIAN_POINT('',(0.014,0.014,0.025));
#833=CARTESIAN_POINT('',(0.014,0.014,0.));
#834=CARTESIAN_POINT('',(0.017015,0.014,0.));
#835=CARTESIAN_POINT('',(0.007,0.007,0.));
#836=CARTESIAN_POINT('',(1.7347234759768E-18,0.014,0.025));
#837=CARTESIAN_POINT('',(1.7347234759768E-18,0.014,0.));
#838=CARTESIAN_POINT('',(0.003015,0.014,0.));
#839=CARTESIAN_POINT('',(0.007,0.007,0.));
#840=CARTESIAN_POINT('',(0.014,7.41045307513758E-19,0.025));
#841=CARTESIAN_POINT('',(0.014,7.41045307513758E-19,0.));
#842=CARTESIAN_POINT('',(0.017015,7.41045307513758E-19,0.));
#843=CARTESIAN_POINT('',(0.007,0.007,0.));
#844=CARTESIAN_POINT('',(0.016,0.016,0.0026));
#845=CARTESIAN_POINT('',(0.0215,0.016,0.0026));
#846=CARTESIAN_POINT('',(0.016,0.0215,0.0026));
#847=CARTESIAN_POINT('',(0.007,0.0215,0.0026));
#848=CARTESIAN_POINT('',(-0.002,0.0215,0.0026));
#849=CARTESIAN_POINT('',(0.0215,0.007,0.0026));
#850=CARTESIAN_POINT('',(0.0215,-0.002,0.0026));
#851=CARTESIAN_POINT('',(-0.002,0.016,0.0026));
#852=CARTESIAN_POINT('',(-0.0075,0.016,0.0026));
#853=CARTESIAN_POINT('',(0.016,-0.002,0.0026));
#854=CARTESIAN_POINT('',(0.016,-0.0075,0.0026));
#855=CARTESIAN_POINT('',(-0.0075,0.007,0.0026));
#856=CARTESIAN_POINT('',(-0.0075,-0.002,0.0026));
#857=CARTESIAN_POINT('',(0.007,-0.0075,0.0026));
#858=CARTESIAN_POINT('',(-0.002,-0.0075,0.0026));
#859=CARTESIAN_POINT('',(-0.002,-0.002,0.0026));
#860=CARTESIAN_POINT('',(0.016,-0.002,-0.001));
#861=CARTESIAN_POINT('',(0.016,-0.007,-0.002));
#862=CARTESIAN_POINT('',(0.022,-0.002,-0.001));
#863=CARTESIAN_POINT('',(0.022,0.007,-0.001));
#864=CARTESIAN_POINT('',(0.022,0.016,-0.001));
#865=CARTESIAN_POINT('',(0.007,-0.008,-0.001));
#866=CARTESIAN_POINT('',(-0.002,-0.007,-0.002));
#867=CARTESIAN_POINT('',(0.016,0.016,-0.001));
#868=CARTESIAN_POINT('',(0.016,0.022,-0.001));
#869=CARTESIAN_POINT('',(-0.002,-0.002,-0.001));
#870=CARTESIAN_POINT('',(-0.007,-0.002,-0.002));
#871=CARTESIAN_POINT('',(0.007,0.021,-0.002));
#872=CARTESIAN_POINT('',(-0.002,0.022,-0.001));
#873=CARTESIAN_POINT('',(-0.007,0.007,-0.002));
#874=CARTESIAN_POINT('',(-0.007,0.016,-0.002));
#875=CARTESIAN_POINT('',(-0.002,0.016,-0.001));
#876=MECHANICAL_DESIGN_GEOMETRIC_PRESENTATION_REPRESENTATION('',(#493),
#877);
#877=(
GEOMETRIC_REPRESENTATION_CONTEXT(3)
GLOBAL_UNCERTAINTY_ASSIGNED_CONTEXT((#878))
GLOBAL_UNIT_ASSIGNED_CONTEXT((#881,#880,#879))
REPRESENTATION_CONTEXT('Part 1','TOP_LEVEL_ASSEMBLY_PART')
);
#878=UNCERTAINTY_MEASURE_WITH_UNIT(LENGTH_MEASURE(1.E-8),#881,
'DISTANCE_ACCURACY_VALUE','Maximum Tolerance applied to model');
#879=(
NAMED_UNIT(*)
SI_UNIT($,.STERADIAN.)
SOLID_ANGLE_UNIT()
);
#880=(
NAMED_UNIT(*)
PLANE_ANGLE_UNIT()
SI_UNIT($,.RADIAN.)
);
#881=(
LENGTH_UNIT()
NAMED_UNIT(*)
SI_UNIT($,.METRE.)
);
#882=PRODUCT_DEFINITION_SHAPE('','',#883);
#883=PRODUCT_DEFINITION('','',#885,#884);
#884=PRODUCT_DEFINITION_CONTEXT('',#891,'design');
#885=PRODUCT_DEFINITION_FORMATION_WITH_SPECIFIED_SOURCE('','',#887,
 .NOT_KNOWN.);
#886=PRODUCT_RELATED_PRODUCT_CATEGORY('','',(#887));
#887=PRODUCT('Part 1','Part 1','Part 1',(#889));
#888=PRODUCT_CATEGORY('','');
#889=PRODUCT_CONTEXT('',#891,'mechanical');
#890=APPLICATION_PROTOCOL_DEFINITION('international standard',
'ap242_managed_model_based_3d_engineering',2020,#891);
#891=APPLICATION_CONTEXT('managed model based 3d engineering');
ENDSEC;
END-ISO-10303-21;
