ISO-10303-21;
HEADER;
/* Generated by software containing ST-Developer
 * from STEP Tools, Inc. (www.steptools.com) 
 */
/* OPTION: using custom renumber hook */

FILE_DESCRIPTION(
/* description */ ('STEP AP242 Edition 2',
'CAx-IF Rec.Pracs.---Representation and Presentation of Product Manufa
cturing Information (PMI)---4.0---2014-10-13',
'CAx-IF Rec.Pracs.---3D Tessellated Geometry---0.4---2014-09-14','2;1',
'CAx-IF Rec.Pracs.---User Defined Attributes---1.5---2016-08-15'),
/* implementation_level */ '2;1');

FILE_NAME(
/* name */ 'top-elastic-strap - Part 1',
/* time_stamp */ '2026-10-04T08:41:53Z',
/* author */ (''),
/* organization */ (''),
/* preprocessor_version */ 'ST-DEVELOPER v20',
/* originating_system */ 'ONSHAPE BY PTC INC, 1.221',
/* authorisation */ '  ');

FILE_SCHEMA (('AP242_MANAGED_MODEL_BASED_3D_ENGINEERING_MIM_LF { 1 0 10303 442 3 1 4 }'));
ENDSEC;

DATA;
#10=SHAPE_REPRESENTATION_RELATIONSHIP('','',#1397,#11);
#11=ADVANCED_BREP_SHAPE_REPRESENTATION('',(#1395),#2315);
#12=TOROIDAL_SURFACE('',#1473,0.00631725894550831,0.0005);
#13=TOROIDAL_SURFACE('',#1480,0.00631725894550831,0.0005);
#14=TOROIDAL_SURFACE('',#1482,0.00631725894550832,0.0005);
#15=TOROIDAL_SURFACE('',#1488,0.00631725894550832,0.0005);
#16=CONICAL_SURFACE('',#1457,0.006,0.0523598775598298);
#17=CONICAL_SURFACE('',#1460,0.006,0.0523598775598298);
#18=CONICAL_SURFACE('',#1463,0.006,0.0523598775598298);
#19=CONICAL_SURFACE('',#1466,0.006,0.0523598775598298);
#20=CONICAL_SURFACE('',#1490,0.0042,0.785398163397449);
#21=CONICAL_SURFACE('',#1491,0.0042,0.785398163397448);
#22=CONICAL_SURFACE('',#1494,0.0042,0.785398163397448);
#23=CONICAL_SURFACE('',#1495,0.0042,0.785398163397448);
#24=CYLINDRICAL_SURFACE('',#1422,0.0042);
#25=CYLINDRICAL_SURFACE('',#1426,0.0042);
#26=CYLINDRICAL_SURFACE('',#1430,0.0042);
#27=CYLINDRICAL_SURFACE('',#1434,0.0042);
#28=CYLINDRICAL_SURFACE('',#1448,0.0065);
#29=CYLINDRICAL_SURFACE('',#1450,0.0065);
#30=CYLINDRICAL_SURFACE('',#1452,0.0065);
#31=CYLINDRICAL_SURFACE('',#1454,0.0065);
#32=CYLINDRICAL_SURFACE('',#1476,0.0005);
#33=CYLINDRICAL_SURFACE('',#1478,0.0005);
#34=CYLINDRICAL_SURFACE('',#1484,0.0005);
#35=CYLINDRICAL_SURFACE('',#1486,0.0005);
#36=CYLINDRICAL_SURFACE('',#1497,0.003);
#37=CYLINDRICAL_SURFACE('',#1498,0.003);
#38=CIRCLE('',#1400,0.003);
#39=CIRCLE('',#1402,0.003);
#40=CIRCLE('',#1404,0.003);
#41=CIRCLE('',#1406,0.006);
#42=CIRCLE('',#1407,0.006);
#43=CIRCLE('',#1408,0.006);
#44=CIRCLE('',#1409,0.006);
#45=CIRCLE('',#1410,0.0065);
#46=CIRCLE('',#1411,0.0065);
#47=CIRCLE('',#1412,0.0065);
#48=CIRCLE('',#1413,0.0065);
#49=CIRCLE('',#1417,0.003);
#50=CIRCLE('',#1423,0.0042);
#51=CIRCLE('',#1424,0.0042);
#52=CIRCLE('',#1427,0.0042);
#53=CIRCLE('',#1428,0.0042);
#54=CIRCLE('',#1431,0.0042);
#55=CIRCLE('',#1432,0.0042);
#56=CIRCLE('',#1435,0.0042);
#57=CIRCLE('',#1436,0.0042);
#58=CIRCLE('',#1439,0.0052);
#59=CIRCLE('',#1440,0.0052);
#60=CIRCLE('',#1441,0.0052);
#61=CIRCLE('',#1442,0.0052);
#62=CIRCLE('',#1444,0.0065);
#63=CIRCLE('',#1445,0.0065);
#64=CIRCLE('',#1446,0.0065);
#65=CIRCLE('',#1447,0.0065);
#66=CIRCLE('',#1458,0.00581794417813103);
#67=CIRCLE('',#1461,0.00581794417813103);
#68=CIRCLE('',#1464,0.00581794417813103);
#69=CIRCLE('',#1467,0.00581794417813103);
#70=CIRCLE('',#1469,0.00631725894550832);
#71=CIRCLE('',#1470,0.00631725894550832);
#72=CIRCLE('',#1471,0.00631725894550831);
#73=CIRCLE('',#1472,0.00631725894550831);
#74=CIRCLE('',#1474,0.0005);
#75=CIRCLE('',#1475,0.0005);
#76=CIRCLE('',#1477,0.0005);
#77=CIRCLE('',#1479,0.0005);
#78=CIRCLE('',#1481,0.0005);
#79=CIRCLE('',#1483,0.0005);
#80=CIRCLE('',#1485,0.0005);
#81=CIRCLE('',#1487,0.0005);
#82=ORIENTED_EDGE('',*,*,#470,.F.);
#83=ORIENTED_EDGE('',*,*,#471,.T.);
#84=ORIENTED_EDGE('',*,*,#472,.T.);
#85=ORIENTED_EDGE('',*,*,#473,.T.);
#86=ORIENTED_EDGE('',*,*,#474,.F.);
#87=ORIENTED_EDGE('',*,*,#475,.T.);
#88=ORIENTED_EDGE('',*,*,#476,.T.);
#89=ORIENTED_EDGE('',*,*,#477,.F.);
#90=ORIENTED_EDGE('',*,*,#478,.T.);
#91=ORIENTED_EDGE('',*,*,#479,.T.);
#92=ORIENTED_EDGE('',*,*,#480,.T.);
#93=ORIENTED_EDGE('',*,*,#481,.T.);
#94=ORIENTED_EDGE('',*,*,#482,.T.);
#95=ORIENTED_EDGE('',*,*,#483,.F.);
#96=ORIENTED_EDGE('',*,*,#484,.F.);
#97=ORIENTED_EDGE('',*,*,#485,.T.);
#98=ORIENTED_EDGE('',*,*,#486,.T.);
#99=ORIENTED_EDGE('',*,*,#487,.T.);
#100=ORIENTED_EDGE('',*,*,#488,.F.);
#101=ORIENTED_EDGE('',*,*,#489,.F.);
#102=ORIENTED_EDGE('',*,*,#490,.T.);
#103=ORIENTED_EDGE('',*,*,#491,.F.);
#104=ORIENTED_EDGE('',*,*,#492,.T.);
#105=ORIENTED_EDGE('',*,*,#493,.F.);
#106=ORIENTED_EDGE('',*,*,#494,.T.);
#107=ORIENTED_EDGE('',*,*,#495,.F.);
#108=ORIENTED_EDGE('',*,*,#496,.F.);
#109=ORIENTED_EDGE('',*,*,#497,.F.);
#110=ORIENTED_EDGE('',*,*,#498,.F.);
#111=ORIENTED_EDGE('',*,*,#499,.T.);
#112=ORIENTED_EDGE('',*,*,#500,.T.);
#113=ORIENTED_EDGE('',*,*,#501,.T.);
#114=ORIENTED_EDGE('',*,*,#502,.T.);
#115=ORIENTED_EDGE('',*,*,#503,.T.);
#116=ORIENTED_EDGE('',*,*,#504,.T.);
#117=ORIENTED_EDGE('',*,*,#505,.T.);
#118=ORIENTED_EDGE('',*,*,#506,.T.);
#119=ORIENTED_EDGE('',*,*,#507,.T.);
#120=ORIENTED_EDGE('',*,*,#508,.T.);
#121=ORIENTED_EDGE('',*,*,#509,.T.);
#122=ORIENTED_EDGE('',*,*,#510,.T.);
#123=ORIENTED_EDGE('',*,*,#511,.T.);
#124=ORIENTED_EDGE('',*,*,#512,.F.);
#125=ORIENTED_EDGE('',*,*,#513,.T.);
#126=ORIENTED_EDGE('',*,*,#514,.T.);
#127=ORIENTED_EDGE('',*,*,#515,.T.);
#128=ORIENTED_EDGE('',*,*,#516,.T.);
#129=ORIENTED_EDGE('',*,*,#517,.T.);
#130=ORIENTED_EDGE('',*,*,#470,.T.);
#131=ORIENTED_EDGE('',*,*,#518,.F.);
#132=ORIENTED_EDGE('',*,*,#519,.T.);
#133=ORIENTED_EDGE('',*,*,#512,.T.);
#134=ORIENTED_EDGE('',*,*,#520,.T.);
#135=ORIENTED_EDGE('',*,*,#521,.T.);
#136=ORIENTED_EDGE('',*,*,#522,.T.);
#137=ORIENTED_EDGE('',*,*,#523,.F.);
#138=ORIENTED_EDGE('',*,*,#523,.T.);
#139=ORIENTED_EDGE('',*,*,#524,.F.);
#140=ORIENTED_EDGE('',*,*,#473,.F.);
#141=ORIENTED_EDGE('',*,*,#525,.T.);
#142=ORIENTED_EDGE('',*,*,#526,.T.);
#143=ORIENTED_EDGE('',*,*,#527,.T.);
#144=ORIENTED_EDGE('',*,*,#528,.T.);
#145=ORIENTED_EDGE('',*,*,#529,.T.);
#146=ORIENTED_EDGE('',*,*,#483,.T.);
#147=ORIENTED_EDGE('',*,*,#530,.T.);
#148=ORIENTED_EDGE('',*,*,#487,.F.);
#149=ORIENTED_EDGE('',*,*,#531,.F.);
#150=ORIENTED_EDGE('',*,*,#532,.F.);
#151=ORIENTED_EDGE('',*,*,#533,.T.);
#152=ORIENTED_EDGE('',*,*,#534,.T.);
#153=ORIENTED_EDGE('',*,*,#535,.T.);
#154=ORIENTED_EDGE('',*,*,#536,.F.);
#155=ORIENTED_EDGE('',*,*,#537,.T.);
#156=ORIENTED_EDGE('',*,*,#532,.T.);
#157=ORIENTED_EDGE('',*,*,#538,.F.);
#158=ORIENTED_EDGE('',*,*,#539,.F.);
#159=ORIENTED_EDGE('',*,*,#540,.T.);
#160=ORIENTED_EDGE('',*,*,#536,.T.);
#161=ORIENTED_EDGE('',*,*,#541,.T.);
#162=ORIENTED_EDGE('',*,*,#542,.F.);
#163=ORIENTED_EDGE('',*,*,#543,.T.);
#164=ORIENTED_EDGE('',*,*,#539,.T.);
#165=ORIENTED_EDGE('',*,*,#544,.F.);
#166=ORIENTED_EDGE('',*,*,#545,.F.);
#167=ORIENTED_EDGE('',*,*,#546,.T.);
#168=ORIENTED_EDGE('',*,*,#542,.T.);
#169=ORIENTED_EDGE('',*,*,#547,.T.);
#170=ORIENTED_EDGE('',*,*,#548,.F.);
#171=ORIENTED_EDGE('',*,*,#549,.T.);
#172=ORIENTED_EDGE('',*,*,#545,.T.);
#173=ORIENTED_EDGE('',*,*,#550,.F.);
#174=ORIENTED_EDGE('',*,*,#551,.F.);
#175=ORIENTED_EDGE('',*,*,#552,.T.);
#176=ORIENTED_EDGE('',*,*,#548,.T.);
#177=ORIENTED_EDGE('',*,*,#553,.T.);
#178=ORIENTED_EDGE('',*,*,#534,.F.);
#179=ORIENTED_EDGE('',*,*,#554,.T.);
#180=ORIENTED_EDGE('',*,*,#551,.T.);
#181=ORIENTED_EDGE('',*,*,#555,.F.);
#182=ORIENTED_EDGE('',*,*,#484,.T.);
#183=ORIENTED_EDGE('',*,*,#556,.T.);
#184=ORIENTED_EDGE('',*,*,#479,.F.);
#185=ORIENTED_EDGE('',*,*,#557,.T.);
#186=ORIENTED_EDGE('',*,*,#558,.T.);
#187=ORIENTED_EDGE('',*,*,#559,.T.);
#188=ORIENTED_EDGE('',*,*,#560,.T.);
#189=ORIENTED_EDGE('',*,*,#561,.T.);
#190=ORIENTED_EDGE('',*,*,#486,.F.);
#191=ORIENTED_EDGE('',*,*,#562,.T.);
#192=ORIENTED_EDGE('',*,*,#563,.T.);
#193=ORIENTED_EDGE('',*,*,#564,.T.);
#194=ORIENTED_EDGE('',*,*,#518,.T.);
#195=ORIENTED_EDGE('',*,*,#525,.F.);
#196=ORIENTED_EDGE('',*,*,#472,.F.);
#197=ORIENTED_EDGE('',*,*,#565,.T.);
#198=ORIENTED_EDGE('',*,*,#566,.T.);
#199=ORIENTED_EDGE('',*,*,#567,.T.);
#200=ORIENTED_EDGE('',*,*,#477,.T.);
#201=ORIENTED_EDGE('',*,*,#531,.T.);
#202=ORIENTED_EDGE('',*,*,#568,.T.);
#203=ORIENTED_EDGE('',*,*,#569,.T.);
#204=ORIENTED_EDGE('',*,*,#570,.T.);
#205=ORIENTED_EDGE('',*,*,#571,.T.);
#206=ORIENTED_EDGE('',*,*,#572,.T.);
#207=ORIENTED_EDGE('',*,*,#573,.T.);
#208=ORIENTED_EDGE('',*,*,#574,.T.);
#209=ORIENTED_EDGE('',*,*,#575,.T.);
#210=ORIENTED_EDGE('',*,*,#576,.F.);
#211=ORIENTED_EDGE('',*,*,#577,.F.);
#212=ORIENTED_EDGE('',*,*,#578,.F.);
#213=ORIENTED_EDGE('',*,*,#579,.F.);
#214=ORIENTED_EDGE('',*,*,#580,.F.);
#215=ORIENTED_EDGE('',*,*,#581,.F.);
#216=ORIENTED_EDGE('',*,*,#582,.F.);
#217=ORIENTED_EDGE('',*,*,#583,.F.);
#218=ORIENTED_EDGE('',*,*,#538,.T.);
#219=ORIENTED_EDGE('',*,*,#535,.F.);
#220=ORIENTED_EDGE('',*,*,#555,.T.);
#221=ORIENTED_EDGE('',*,*,#553,.F.);
#222=ORIENTED_EDGE('',*,*,#550,.T.);
#223=ORIENTED_EDGE('',*,*,#547,.F.);
#224=ORIENTED_EDGE('',*,*,#544,.T.);
#225=ORIENTED_EDGE('',*,*,#541,.F.);
#226=ORIENTED_EDGE('',*,*,#499,.F.);
#227=ORIENTED_EDGE('',*,*,#584,.F.);
#228=ORIENTED_EDGE('',*,*,#576,.T.);
#229=ORIENTED_EDGE('',*,*,#585,.T.);
#230=ORIENTED_EDGE('',*,*,#500,.F.);
#231=ORIENTED_EDGE('',*,*,#585,.F.);
#232=ORIENTED_EDGE('',*,*,#583,.T.);
#233=ORIENTED_EDGE('',*,*,#586,.T.);
#234=ORIENTED_EDGE('',*,*,#501,.F.);
#235=ORIENTED_EDGE('',*,*,#586,.F.);
#236=ORIENTED_EDGE('',*,*,#582,.T.);
#237=ORIENTED_EDGE('',*,*,#587,.T.);
#238=ORIENTED_EDGE('',*,*,#502,.F.);
#239=ORIENTED_EDGE('',*,*,#587,.F.);
#240=ORIENTED_EDGE('',*,*,#581,.T.);
#241=ORIENTED_EDGE('',*,*,#588,.T.);
#242=ORIENTED_EDGE('',*,*,#503,.F.);
#243=ORIENTED_EDGE('',*,*,#588,.F.);
#244=ORIENTED_EDGE('',*,*,#580,.T.);
#245=ORIENTED_EDGE('',*,*,#589,.T.);
#246=ORIENTED_EDGE('',*,*,#504,.F.);
#247=ORIENTED_EDGE('',*,*,#589,.F.);
#248=ORIENTED_EDGE('',*,*,#579,.T.);
#249=ORIENTED_EDGE('',*,*,#590,.T.);
#250=ORIENTED_EDGE('',*,*,#505,.F.);
#251=ORIENTED_EDGE('',*,*,#590,.F.);
#252=ORIENTED_EDGE('',*,*,#578,.T.);
#253=ORIENTED_EDGE('',*,*,#591,.T.);
#254=ORIENTED_EDGE('',*,*,#506,.F.);
#255=ORIENTED_EDGE('',*,*,#591,.F.);
#256=ORIENTED_EDGE('',*,*,#577,.T.);
#257=ORIENTED_EDGE('',*,*,#584,.T.);
#258=ORIENTED_EDGE('',*,*,#592,.F.);
#259=ORIENTED_EDGE('',*,*,#593,.T.);
#260=ORIENTED_EDGE('',*,*,#594,.T.);
#261=ORIENTED_EDGE('',*,*,#492,.F.);
#262=ORIENTED_EDGE('',*,*,#594,.F.);
#263=ORIENTED_EDGE('',*,*,#595,.T.);
#264=ORIENTED_EDGE('',*,*,#596,.T.);
#265=ORIENTED_EDGE('',*,*,#493,.T.);
#266=ORIENTED_EDGE('',*,*,#596,.F.);
#267=ORIENTED_EDGE('',*,*,#597,.T.);
#268=ORIENTED_EDGE('',*,*,#598,.T.);
#269=ORIENTED_EDGE('',*,*,#494,.F.);
#270=ORIENTED_EDGE('',*,*,#598,.F.);
#271=ORIENTED_EDGE('',*,*,#599,.T.);
#272=ORIENTED_EDGE('',*,*,#600,.T.);
#273=ORIENTED_EDGE('',*,*,#495,.T.);
#274=ORIENTED_EDGE('',*,*,#600,.F.);
#275=ORIENTED_EDGE('',*,*,#601,.T.);
#276=ORIENTED_EDGE('',*,*,#602,.T.);
#277=ORIENTED_EDGE('',*,*,#496,.T.);
#278=ORIENTED_EDGE('',*,*,#602,.F.);
#279=ORIENTED_EDGE('',*,*,#603,.T.);
#280=ORIENTED_EDGE('',*,*,#604,.T.);
#281=ORIENTED_EDGE('',*,*,#497,.T.);
#282=ORIENTED_EDGE('',*,*,#604,.F.);
#283=ORIENTED_EDGE('',*,*,#605,.T.);
#284=ORIENTED_EDGE('',*,*,#606,.T.);
#285=ORIENTED_EDGE('',*,*,#498,.T.);
#286=ORIENTED_EDGE('',*,*,#606,.F.);
#287=ORIENTED_EDGE('',*,*,#607,.T.);
#288=ORIENTED_EDGE('',*,*,#592,.T.);
#289=ORIENTED_EDGE('',*,*,#491,.T.);
#290=ORIENTED_EDGE('',*,*,#608,.T.);
#291=ORIENTED_EDGE('',*,*,#609,.T.);
#292=ORIENTED_EDGE('',*,*,#610,.T.);
#293=ORIENTED_EDGE('',*,*,#611,.T.);
#294=ORIENTED_EDGE('',*,*,#522,.F.);
#295=ORIENTED_EDGE('',*,*,#612,.F.);
#296=ORIENTED_EDGE('',*,*,#474,.T.);
#297=ORIENTED_EDGE('',*,*,#524,.T.);
#298=ORIENTED_EDGE('',*,*,#482,.F.);
#299=ORIENTED_EDGE('',*,*,#613,.T.);
#300=ORIENTED_EDGE('',*,*,#488,.T.);
#301=ORIENTED_EDGE('',*,*,#530,.F.);
#302=ORIENTED_EDGE('',*,*,#614,.T.);
#303=ORIENTED_EDGE('',*,*,#615,.T.);
#304=ORIENTED_EDGE('',*,*,#616,.T.);
#305=ORIENTED_EDGE('',*,*,#617,.T.);
#306=ORIENTED_EDGE('',*,*,#618,.T.);
#307=ORIENTED_EDGE('',*,*,#619,.T.);
#308=ORIENTED_EDGE('',*,*,#620,.T.);
#309=ORIENTED_EDGE('',*,*,#621,.T.);
#310=ORIENTED_EDGE('',*,*,#622,.F.);
#311=ORIENTED_EDGE('',*,*,#599,.F.);
#312=ORIENTED_EDGE('',*,*,#623,.F.);
#313=ORIENTED_EDGE('',*,*,#619,.F.);
#314=ORIENTED_EDGE('',*,*,#623,.T.);
#315=ORIENTED_EDGE('',*,*,#597,.F.);
#316=ORIENTED_EDGE('',*,*,#624,.F.);
#317=ORIENTED_EDGE('',*,*,#620,.F.);
#318=ORIENTED_EDGE('',*,*,#622,.T.);
#319=ORIENTED_EDGE('',*,*,#618,.F.);
#320=ORIENTED_EDGE('',*,*,#625,.F.);
#321=ORIENTED_EDGE('',*,*,#601,.F.);
#322=ORIENTED_EDGE('',*,*,#624,.T.);
#323=ORIENTED_EDGE('',*,*,#595,.F.);
#324=ORIENTED_EDGE('',*,*,#626,.F.);
#325=ORIENTED_EDGE('',*,*,#621,.F.);
#326=ORIENTED_EDGE('',*,*,#625,.T.);
#327=ORIENTED_EDGE('',*,*,#617,.F.);
#328=ORIENTED_EDGE('',*,*,#627,.F.);
#329=ORIENTED_EDGE('',*,*,#603,.F.);
#330=ORIENTED_EDGE('',*,*,#626,.T.);
#331=ORIENTED_EDGE('',*,*,#593,.F.);
#332=ORIENTED_EDGE('',*,*,#628,.F.);
#333=ORIENTED_EDGE('',*,*,#614,.F.);
#334=ORIENTED_EDGE('',*,*,#627,.T.);
#335=ORIENTED_EDGE('',*,*,#616,.F.);
#336=ORIENTED_EDGE('',*,*,#629,.F.);
#337=ORIENTED_EDGE('',*,*,#605,.F.);
#338=ORIENTED_EDGE('',*,*,#628,.T.);
#339=ORIENTED_EDGE('',*,*,#607,.F.);
#340=ORIENTED_EDGE('',*,*,#629,.T.);
#341=ORIENTED_EDGE('',*,*,#615,.F.);
#342=ORIENTED_EDGE('',*,*,#630,.F.);
#343=ORIENTED_EDGE('',*,*,#540,.F.);
#344=ORIENTED_EDGE('',*,*,#631,.F.);
#345=ORIENTED_EDGE('',*,*,#573,.F.);
#346=ORIENTED_EDGE('',*,*,#631,.T.);
#347=ORIENTED_EDGE('',*,*,#543,.F.);
#348=ORIENTED_EDGE('',*,*,#632,.F.);
#349=ORIENTED_EDGE('',*,*,#574,.F.);
#350=ORIENTED_EDGE('',*,*,#630,.T.);
#351=ORIENTED_EDGE('',*,*,#572,.F.);
#352=ORIENTED_EDGE('',*,*,#633,.F.);
#353=ORIENTED_EDGE('',*,*,#537,.F.);
#354=ORIENTED_EDGE('',*,*,#632,.T.);
#355=ORIENTED_EDGE('',*,*,#546,.F.);
#356=ORIENTED_EDGE('',*,*,#634,.F.);
#357=ORIENTED_EDGE('',*,*,#575,.F.);
#358=ORIENTED_EDGE('',*,*,#633,.T.);
#359=ORIENTED_EDGE('',*,*,#571,.F.);
#360=ORIENTED_EDGE('',*,*,#635,.F.);
#361=ORIENTED_EDGE('',*,*,#533,.F.);
#362=ORIENTED_EDGE('',*,*,#634,.T.);
#363=ORIENTED_EDGE('',*,*,#549,.F.);
#364=ORIENTED_EDGE('',*,*,#636,.F.);
#365=ORIENTED_EDGE('',*,*,#568,.F.);
#366=ORIENTED_EDGE('',*,*,#635,.T.);
#367=ORIENTED_EDGE('',*,*,#570,.F.);
#368=ORIENTED_EDGE('',*,*,#637,.F.);
#369=ORIENTED_EDGE('',*,*,#554,.F.);
#370=ORIENTED_EDGE('',*,*,#636,.T.);
#371=ORIENTED_EDGE('',*,*,#552,.F.);
#372=ORIENTED_EDGE('',*,*,#637,.T.);
#373=ORIENTED_EDGE('',*,*,#569,.F.);
#374=ORIENTED_EDGE('',*,*,#481,.F.);
#375=ORIENTED_EDGE('',*,*,#638,.T.);
#376=ORIENTED_EDGE('',*,*,#489,.T.);
#377=ORIENTED_EDGE('',*,*,#613,.F.);
#378=ORIENTED_EDGE('',*,*,#521,.F.);
#379=ORIENTED_EDGE('',*,*,#639,.T.);
#380=ORIENTED_EDGE('',*,*,#475,.F.);
#381=ORIENTED_EDGE('',*,*,#612,.T.);
#382=ORIENTED_EDGE('',*,*,#471,.F.);
#383=ORIENTED_EDGE('',*,*,#517,.F.);
#384=ORIENTED_EDGE('',*,*,#640,.F.);
#385=ORIENTED_EDGE('',*,*,#565,.F.);
#386=ORIENTED_EDGE('',*,*,#519,.F.);
#387=ORIENTED_EDGE('',*,*,#564,.F.);
#388=ORIENTED_EDGE('',*,*,#641,.F.);
#389=ORIENTED_EDGE('',*,*,#513,.F.);
#390=ORIENTED_EDGE('',*,*,#642,.F.);
#391=ORIENTED_EDGE('',*,*,#640,.T.);
#392=ORIENTED_EDGE('',*,*,#643,.F.);
#393=ORIENTED_EDGE('',*,*,#644,.F.);
#394=ORIENTED_EDGE('',*,*,#641,.T.);
#395=ORIENTED_EDGE('',*,*,#645,.F.);
#396=ORIENTED_EDGE('',*,*,#643,.T.);
#397=ORIENTED_EDGE('',*,*,#516,.F.);
#398=ORIENTED_EDGE('',*,*,#646,.F.);
#399=ORIENTED_EDGE('',*,*,#526,.F.);
#400=ORIENTED_EDGE('',*,*,#642,.T.);
#401=ORIENTED_EDGE('',*,*,#529,.F.);
#402=ORIENTED_EDGE('',*,*,#647,.F.);
#403=ORIENTED_EDGE('',*,*,#566,.F.);
#404=ORIENTED_EDGE('',*,*,#478,.F.);
#405=ORIENTED_EDGE('',*,*,#567,.F.);
#406=ORIENTED_EDGE('',*,*,#648,.F.);
#407=ORIENTED_EDGE('',*,*,#557,.F.);
#408=ORIENTED_EDGE('',*,*,#485,.F.);
#409=ORIENTED_EDGE('',*,*,#561,.F.);
#410=ORIENTED_EDGE('',*,*,#649,.F.);
#411=ORIENTED_EDGE('',*,*,#562,.F.);
#412=ORIENTED_EDGE('',*,*,#645,.T.);
#413=ORIENTED_EDGE('',*,*,#563,.F.);
#414=ORIENTED_EDGE('',*,*,#650,.F.);
#415=ORIENTED_EDGE('',*,*,#510,.F.);
#416=ORIENTED_EDGE('',*,*,#644,.T.);
#417=ORIENTED_EDGE('',*,*,#509,.F.);
#418=ORIENTED_EDGE('',*,*,#651,.F.);
#419=ORIENTED_EDGE('',*,*,#514,.F.);
#420=ORIENTED_EDGE('',*,*,#652,.F.);
#421=ORIENTED_EDGE('',*,*,#515,.F.);
#422=ORIENTED_EDGE('',*,*,#653,.F.);
#423=ORIENTED_EDGE('',*,*,#608,.F.);
#424=ORIENTED_EDGE('',*,*,#646,.T.);
#425=ORIENTED_EDGE('',*,*,#652,.T.);
#426=ORIENTED_EDGE('',*,*,#654,.F.);
#427=ORIENTED_EDGE('',*,*,#648,.T.);
#428=ORIENTED_EDGE('',*,*,#647,.T.);
#429=ORIENTED_EDGE('',*,*,#655,.F.);
#430=ORIENTED_EDGE('',*,*,#650,.T.);
#431=ORIENTED_EDGE('',*,*,#649,.T.);
#432=ORIENTED_EDGE('',*,*,#656,.F.);
#433=ORIENTED_EDGE('',*,*,#653,.T.);
#434=ORIENTED_EDGE('',*,*,#651,.T.);
#435=ORIENTED_EDGE('',*,*,#657,.F.);
#436=ORIENTED_EDGE('',*,*,#654,.T.);
#437=ORIENTED_EDGE('',*,*,#611,.F.);
#438=ORIENTED_EDGE('',*,*,#658,.F.);
#439=ORIENTED_EDGE('',*,*,#527,.F.);
#440=ORIENTED_EDGE('',*,*,#655,.T.);
#441=ORIENTED_EDGE('',*,*,#528,.F.);
#442=ORIENTED_EDGE('',*,*,#659,.F.);
#443=ORIENTED_EDGE('',*,*,#558,.F.);
#444=ORIENTED_EDGE('',*,*,#656,.T.);
#445=ORIENTED_EDGE('',*,*,#560,.F.);
#446=ORIENTED_EDGE('',*,*,#660,.F.);
#447=ORIENTED_EDGE('',*,*,#507,.F.);
#448=ORIENTED_EDGE('',*,*,#657,.T.);
#449=ORIENTED_EDGE('',*,*,#508,.F.);
#450=ORIENTED_EDGE('',*,*,#661,.F.);
#451=ORIENTED_EDGE('',*,*,#609,.F.);
#452=ORIENTED_EDGE('',*,*,#659,.T.);
#453=ORIENTED_EDGE('',*,*,#658,.T.);
#454=ORIENTED_EDGE('',*,*,#662,.F.);
#455=ORIENTED_EDGE('',*,*,#661,.T.);
#456=ORIENTED_EDGE('',*,*,#660,.T.);
#457=ORIENTED_EDGE('',*,*,#663,.F.);
#458=ORIENTED_EDGE('',*,*,#662,.T.);
#459=ORIENTED_EDGE('',*,*,#610,.F.);
#460=ORIENTED_EDGE('',*,*,#663,.T.);
#461=ORIENTED_EDGE('',*,*,#559,.F.);
#462=ORIENTED_EDGE('',*,*,#476,.F.);
#463=ORIENTED_EDGE('',*,*,#639,.F.);
#464=ORIENTED_EDGE('',*,*,#520,.F.);
#465=ORIENTED_EDGE('',*,*,#511,.F.);
#466=ORIENTED_EDGE('',*,*,#480,.F.);
#467=ORIENTED_EDGE('',*,*,#556,.F.);
#468=ORIENTED_EDGE('',*,*,#490,.F.);
#469=ORIENTED_EDGE('',*,*,#638,.F.);
#470=EDGE_CURVE('',#664,#665,#780,.T.);
#471=EDGE_CURVE('',#664,#666,#781,.T.);
#472=EDGE_CURVE('',#666,#667,#782,.T.);
#473=EDGE_CURVE('',#667,#668,#783,.T.);
#474=EDGE_CURVE('',#669,#668,#784,.T.);
#475=EDGE_CURVE('',#669,#670,#38,.F.);
#476=EDGE_CURVE('',#670,#665,#785,.F.);
#477=EDGE_CURVE('',#671,#672,#786,.T.);
#478=EDGE_CURVE('',#671,#673,#787,.F.);
#479=EDGE_CURVE('',#673,#674,#788,.T.);
#480=EDGE_CURVE('',#674,#675,#789,.F.);
#481=EDGE_CURVE('',#675,#676,#39,.T.);
#482=EDGE_CURVE('',#676,#677,#790,.T.);
#483=EDGE_CURVE('',#672,#677,#791,.T.);
#484=EDGE_CURVE('',#678,#679,#792,.T.);
#485=EDGE_CURVE('',#678,#680,#793,.F.);
#486=EDGE_CURVE('',#680,#681,#794,.T.);
#487=EDGE_CURVE('',#681,#682,#795,.T.);
#488=EDGE_CURVE('',#683,#682,#796,.T.);
#489=EDGE_CURVE('',#684,#683,#40,.T.);
#490=EDGE_CURVE('',#684,#679,#797,.F.);
#491=EDGE_CURVE('',#685,#686,#41,.T.);
#492=EDGE_CURVE('',#685,#687,#798,.T.);
#493=EDGE_CURVE('',#688,#687,#42,.T.);
#494=EDGE_CURVE('',#688,#689,#799,.T.);
#495=EDGE_CURVE('',#690,#689,#43,.T.);
#496=EDGE_CURVE('',#691,#690,#800,.F.);
#497=EDGE_CURVE('',#692,#691,#44,.T.);
#498=EDGE_CURVE('',#686,#692,#801,.F.);
#499=EDGE_CURVE('',#693,#694,#45,.T.);
#500=EDGE_CURVE('',#694,#695,#802,.T.);
#501=EDGE_CURVE('',#695,#696,#46,.T.);
#502=EDGE_CURVE('',#696,#697,#803,.T.);
#503=EDGE_CURVE('',#697,#698,#47,.T.);
#504=EDGE_CURVE('',#698,#699,#804,.T.);
#505=EDGE_CURVE('',#699,#700,#48,.T.);
#506=EDGE_CURVE('',#700,#693,#805,.T.);
#507=EDGE_CURVE('',#701,#702,#806,.T.);
#508=EDGE_CURVE('',#702,#703,#807,.T.);
#509=EDGE_CURVE('',#703,#704,#808,.T.);
#510=EDGE_CURVE('',#704,#701,#809,.T.);
#511=EDGE_CURVE('',#665,#705,#810,.T.);
#512=EDGE_CURVE('',#706,#705,#811,.T.);
#513=EDGE_CURVE('',#706,#707,#812,.T.);
#514=EDGE_CURVE('',#707,#708,#813,.T.);
#515=EDGE_CURVE('',#708,#709,#814,.T.);
#516=EDGE_CURVE('',#709,#710,#815,.T.);
#517=EDGE_CURVE('',#710,#664,#816,.T.);
#518=EDGE_CURVE('',#711,#712,#817,.T.);
#519=EDGE_CURVE('',#711,#706,#818,.T.);
#520=EDGE_CURVE('',#705,#713,#819,.F.);
#521=EDGE_CURVE('',#713,#714,#49,.T.);
#522=EDGE_CURVE('',#714,#715,#820,.T.);
#523=EDGE_CURVE('',#712,#715,#821,.T.);
#524=EDGE_CURVE('',#668,#715,#822,.T.);
#525=EDGE_CURVE('',#667,#712,#823,.T.);
#526=EDGE_CURVE('',#716,#717,#824,.T.);
#527=EDGE_CURVE('',#717,#718,#825,.T.);
#528=EDGE_CURVE('',#718,#719,#826,.T.);
#529=EDGE_CURVE('',#719,#716,#827,.T.);
#530=EDGE_CURVE('',#677,#682,#828,.T.);
#531=EDGE_CURVE('',#672,#681,#829,.T.);
#532=EDGE_CURVE('',#720,#721,#830,.T.);
#533=EDGE_CURVE('',#720,#722,#831,.T.);
#534=EDGE_CURVE('',#722,#723,#832,.T.);
#535=EDGE_CURVE('',#723,#721,#833,.T.);
#536=EDGE_CURVE('',#724,#725,#834,.T.);
#537=EDGE_CURVE('',#724,#720,#50,.T.);
#538=EDGE_CURVE('',#725,#721,#51,.T.);
#539=EDGE_CURVE('',#726,#727,#835,.T.);
#540=EDGE_CURVE('',#726,#724,#836,.T.);
#541=EDGE_CURVE('',#725,#727,#837,.T.);
#542=EDGE_CURVE('',#728,#729,#838,.T.);
#543=EDGE_CURVE('',#728,#726,#52,.T.);
#544=EDGE_CURVE('',#729,#727,#53,.T.);
#545=EDGE_CURVE('',#730,#731,#839,.T.);
#546=EDGE_CURVE('',#730,#728,#840,.T.);
#547=EDGE_CURVE('',#729,#731,#841,.T.);
#548=EDGE_CURVE('',#732,#733,#842,.T.);
#549=EDGE_CURVE('',#732,#730,#54,.T.);
#550=EDGE_CURVE('',#733,#731,#55,.T.);
#551=EDGE_CURVE('',#734,#735,#843,.T.);
#552=EDGE_CURVE('',#734,#732,#844,.T.);
#553=EDGE_CURVE('',#733,#735,#845,.T.);
#554=EDGE_CURVE('',#722,#734,#56,.T.);
#555=EDGE_CURVE('',#723,#735,#57,.T.);
#556=EDGE_CURVE('',#679,#674,#846,.T.);
#557=EDGE_CURVE('',#673,#736,#847,.T.);
#558=EDGE_CURVE('',#736,#737,#848,.T.);
#559=EDGE_CURVE('',#737,#738,#849,.T.);
#560=EDGE_CURVE('',#738,#739,#850,.T.);
#561=EDGE_CURVE('',#739,#678,#851,.T.);
#562=EDGE_CURVE('',#680,#740,#852,.T.);
#563=EDGE_CURVE('',#740,#741,#853,.T.);
#564=EDGE_CURVE('',#741,#711,#854,.T.);
#565=EDGE_CURVE('',#666,#742,#855,.T.);
#566=EDGE_CURVE('',#742,#743,#856,.T.);
#567=EDGE_CURVE('',#743,#671,#857,.T.);
#568=EDGE_CURVE('',#744,#745,#58,.F.);
#569=EDGE_CURVE('',#745,#746,#858,.T.);
#570=EDGE_CURVE('',#746,#747,#59,.F.);
#571=EDGE_CURVE('',#747,#748,#859,.T.);
#572=EDGE_CURVE('',#748,#749,#60,.F.);
#573=EDGE_CURVE('',#749,#750,#860,.T.);
#574=EDGE_CURVE('',#750,#751,#61,.F.);
#575=EDGE_CURVE('',#751,#744,#861,.T.);
#576=EDGE_CURVE('',#752,#753,#62,.T.);
#577=EDGE_CURVE('',#754,#752,#862,.T.);
#578=EDGE_CURVE('',#755,#754,#63,.T.);
#579=EDGE_CURVE('',#756,#755,#863,.T.);
#580=EDGE_CURVE('',#757,#756,#64,.T.);
#581=EDGE_CURVE('',#758,#757,#864,.T.);
#582=EDGE_CURVE('',#759,#758,#65,.T.);
#583=EDGE_CURVE('',#753,#759,#865,.T.);
#584=EDGE_CURVE('',#752,#693,#866,.T.);
#585=EDGE_CURVE('',#753,#694,#867,.T.);
#586=EDGE_CURVE('',#759,#695,#868,.T.);
#587=EDGE_CURVE('',#758,#696,#869,.T.);
#588=EDGE_CURVE('',#757,#697,#870,.T.);
#589=EDGE_CURVE('',#756,#698,#871,.T.);
#590=EDGE_CURVE('',#755,#699,#872,.T.);
#591=EDGE_CURVE('',#754,#700,#873,.T.);
#592=EDGE_CURVE('',#760,#685,#874,.F.);
#593=EDGE_CURVE('',#760,#761,#875,.T.);
#594=EDGE_CURVE('',#761,#687,#876,.F.);
#595=EDGE_CURVE('',#761,#762,#66,.T.);
#596=EDGE_CURVE('',#762,#688,#877,.F.);
#597=EDGE_CURVE('',#762,#763,#878,.T.);
#598=EDGE_CURVE('',#763,#689,#879,.F.);
#599=EDGE_CURVE('',#763,#764,#67,.T.);
#600=EDGE_CURVE('',#764,#690,#880,.F.);
#601=EDGE_CURVE('',#764,#765,#881,.F.);
#602=EDGE_CURVE('',#765,#691,#882,.F.);
#603=EDGE_CURVE('',#765,#766,#68,.T.);
#604=EDGE_CURVE('',#766,#692,#883,.F.);
#605=EDGE_CURVE('',#766,#767,#884,.F.);
#606=EDGE_CURVE('',#767,#686,#885,.F.);
#607=EDGE_CURVE('',#767,#760,#69,.T.);
#608=EDGE_CURVE('',#768,#769,#886,.T.);
#609=EDGE_CURVE('',#769,#770,#887,.T.);
#610=EDGE_CURVE('',#770,#771,#888,.T.);
#611=EDGE_CURVE('',#771,#768,#889,.T.);
#612=EDGE_CURVE('',#669,#714,#890,.T.);
#613=EDGE_CURVE('',#676,#683,#891,.T.);
#614=EDGE_CURVE('',#772,#773,#892,.F.);
#615=EDGE_CURVE('',#773,#774,#70,.T.);
#616=EDGE_CURVE('',#774,#775,#893,.F.);
#617=EDGE_CURVE('',#775,#776,#71,.T.);
#618=EDGE_CURVE('',#776,#777,#894,.F.);
#619=EDGE_CURVE('',#777,#778,#72,.T.);
#620=EDGE_CURVE('',#778,#779,#895,.F.);
#621=EDGE_CURVE('',#779,#772,#73,.T.);
#622=EDGE_CURVE('',#764,#777,#74,.T.);
#623=EDGE_CURVE('',#778,#763,#75,.T.);
#624=EDGE_CURVE('',#779,#762,#76,.T.);
#625=EDGE_CURVE('',#765,#776,#77,.T.);
#626=EDGE_CURVE('',#772,#761,#78,.T.);
#627=EDGE_CURVE('',#766,#775,#79,.T.);
#628=EDGE_CURVE('',#773,#760,#80,.T.);
#629=EDGE_CURVE('',#767,#774,#81,.T.);
#630=EDGE_CURVE('',#724,#749,#896,.T.);
#631=EDGE_CURVE('',#750,#726,#897,.T.);
#632=EDGE_CURVE('',#751,#728,#898,.T.);
#633=EDGE_CURVE('',#720,#748,#899,.T.);
#634=EDGE_CURVE('',#744,#730,#900,.T.);
#635=EDGE_CURVE('',#722,#747,#901,.T.);
#636=EDGE_CURVE('',#745,#732,#902,.T.);
#637=EDGE_CURVE('',#734,#746,#903,.T.);
#638=EDGE_CURVE('',#675,#684,#904,.T.);
#639=EDGE_CURVE('',#713,#670,#905,.F.);
#640=EDGE_CURVE('',#742,#710,#906,.T.);
#641=EDGE_CURVE('',#707,#741,#907,.T.);
#642=EDGE_CURVE('',#742,#716,#908,.T.);
#643=EDGE_CURVE('',#716,#710,#909,.F.);
#644=EDGE_CURVE('',#707,#704,#910,.F.);
#645=EDGE_CURVE('',#704,#741,#911,.T.);
#646=EDGE_CURVE('',#717,#709,#912,.T.);
#647=EDGE_CURVE('',#743,#719,#913,.F.);
#648=EDGE_CURVE('',#736,#743,#914,.F.);
#649=EDGE_CURVE('',#740,#739,#915,.F.);
#650=EDGE_CURVE('',#701,#740,#916,.F.);
#651=EDGE_CURVE('',#708,#703,#917,.T.);
#652=EDGE_CURVE('',#709,#768,#918,.F.);
#653=EDGE_CURVE('',#769,#708,#919,.F.);
#654=EDGE_CURVE('',#717,#768,#920,.F.);
#655=EDGE_CURVE('',#736,#719,#921,.T.);
#656=EDGE_CURVE('',#701,#739,#922,.T.);
#657=EDGE_CURVE('',#769,#703,#923,.F.);
#658=EDGE_CURVE('',#718,#771,#924,.T.);
#659=EDGE_CURVE('',#737,#718,#925,.F.);
#660=EDGE_CURVE('',#702,#738,#926,.F.);
#661=EDGE_CURVE('',#770,#702,#927,.T.);
#662=EDGE_CURVE('',#737,#771,#928,.F.);
#663=EDGE_CURVE('',#770,#738,#929,.F.);
#664=VERTEX_POINT('',#1926);
#665=VERTEX_POINT('',#1927);
#666=VERTEX_POINT('',#1929);
#667=VERTEX_POINT('',#1931);
#668=VERTEX_POINT('',#1933);
#669=VERTEX_POINT('',#1935);
#670=VERTEX_POINT('',#1937);
#671=VERTEX_POINT('',#1941);
#672=VERTEX_POINT('',#1942);
#673=VERTEX_POINT('',#1944);
#674=VERTEX_POINT('',#1946);
#675=VERTEX_POINT('',#1948);
#676=VERTEX_POINT('',#1950);
#677=VERTEX_POINT('',#1952);
#678=VERTEX_POINT('',#1956);
#679=VERTEX_POINT('',#1957);
#680=VERTEX_POINT('',#1959);
#681=VERTEX_POINT('',#1961);
#682=VERTEX_POINT('',#1963);
#683=VERTEX_POINT('',#1965);
#684=VERTEX_POINT('',#1967);
#685=VERTEX_POINT('',#1971);
#686=VERTEX_POINT('',#1972);
#687=VERTEX_POINT('',#1974);
#688=VERTEX_POINT('',#1976);
#689=VERTEX_POINT('',#1978);
#690=VERTEX_POINT('',#1980);
#691=VERTEX_POINT('',#1982);
#692=VERTEX_POINT('',#1984);
#693=VERTEX_POINT('',#1987);
#694=VERTEX_POINT('',#1988);
#695=VERTEX_POINT('',#1990);
#696=VERTEX_POINT('',#1992);
#697=VERTEX_POINT('',#1994);
#698=VERTEX_POINT('',#1996);
#699=VERTEX_POINT('',#1998);
#700=VERTEX_POINT('',#2000);
#701=VERTEX_POINT('',#2004);
#702=VERTEX_POINT('',#2005);
#703=VERTEX_POINT('',#2007);
#704=VERTEX_POINT('',#2009);
#705=VERTEX_POINT('',#2013);
#706=VERTEX_POINT('',#2015);
#707=VERTEX_POINT('',#2017);
#708=VERTEX_POINT('',#2019);
#709=VERTEX_POINT('',#2021);
#710=VERTEX_POINT('',#2023);
#711=VERTEX_POINT('',#2027);
#712=VERTEX_POINT('',#2028);
#713=VERTEX_POINT('',#2031);
#714=VERTEX_POINT('',#2033);
#715=VERTEX_POINT('',#2035);
#716=VERTEX_POINT('',#2042);
#717=VERTEX_POINT('',#2043);
#718=VERTEX_POINT('',#2045);
#719=VERTEX_POINT('',#2047);
#720=VERTEX_POINT('',#2054);
#721=VERTEX_POINT('',#2055);
#722=VERTEX_POINT('',#2057);
#723=VERTEX_POINT('',#2059);
#724=VERTEX_POINT('',#2063);
#725=VERTEX_POINT('',#2064);
#726=VERTEX_POINT('',#2069);
#727=VERTEX_POINT('',#2070);
#728=VERTEX_POINT('',#2075);
#729=VERTEX_POINT('',#2076);
#730=VERTEX_POINT('',#2081);
#731=VERTEX_POINT('',#2082);
#732=VERTEX_POINT('',#2087);
#733=VERTEX_POINT('',#2088);
#734=VERTEX_POINT('',#2093);
#735=VERTEX_POINT('',#2094);
#736=VERTEX_POINT('',#2103);
#737=VERTEX_POINT('',#2105);
#738=VERTEX_POINT('',#2107);
#739=VERTEX_POINT('',#2109);
#740=VERTEX_POINT('',#2113);
#741=VERTEX_POINT('',#2115);
#742=VERTEX_POINT('',#2118);
#743=VERTEX_POINT('',#2120);
#744=VERTEX_POINT('',#2123);
#745=VERTEX_POINT('',#2124);
#746=VERTEX_POINT('',#2126);
#747=VERTEX_POINT('',#2128);
#748=VERTEX_POINT('',#2130);
#749=VERTEX_POINT('',#2132);
#750=VERTEX_POINT('',#2134);
#751=VERTEX_POINT('',#2136);
#752=VERTEX_POINT('',#2140);
#753=VERTEX_POINT('',#2141);
#754=VERTEX_POINT('',#2143);
#755=VERTEX_POINT('',#2145);
#756=VERTEX_POINT('',#2147);
#757=VERTEX_POINT('',#2149);
#758=VERTEX_POINT('',#2151);
#759=VERTEX_POINT('',#2153);
#760=VERTEX_POINT('',#2173);
#761=VERTEX_POINT('',#2175);
#762=VERTEX_POINT('',#2179);
#763=VERTEX_POINT('',#2183);
#764=VERTEX_POINT('',#2187);
#765=VERTEX_POINT('',#2191);
#766=VERTEX_POINT('',#2195);
#767=VERTEX_POINT('',#2199);
#768=VERTEX_POINT('',#2205);
#769=VERTEX_POINT('',#2206);
#770=VERTEX_POINT('',#2208);
#771=VERTEX_POINT('',#2210);
#772=VERTEX_POINT('',#2215);
#773=VERTEX_POINT('',#2216);
#774=VERTEX_POINT('',#2218);
#775=VERTEX_POINT('',#2220);
#776=VERTEX_POINT('',#2222);
#777=VERTEX_POINT('',#2224);
#778=VERTEX_POINT('',#2226);
#779=VERTEX_POINT('',#2228);
#780=LINE('',#1925,#930);
#781=LINE('',#1928,#931);
#782=LINE('',#1930,#932);
#783=LINE('',#1932,#933);
#784=LINE('',#1934,#934);
#785=LINE('',#1938,#935);
#786=LINE('',#1940,#936);
#787=LINE('',#1943,#937);
#788=LINE('',#1945,#938);
#789=LINE('',#1947,#939);
#790=LINE('',#1951,#940);
#791=LINE('',#1953,#941);
#792=LINE('',#1955,#942);
#793=LINE('',#1958,#943);
#794=LINE('',#1960,#944);
#795=LINE('',#1962,#945);
#796=LINE('',#1964,#946);
#797=LINE('',#1968,#947);
#798=LINE('',#1973,#948);
#799=LINE('',#1977,#949);
#800=LINE('',#1981,#950);
#801=LINE('',#1985,#951);
#802=LINE('',#1989,#952);
#803=LINE('',#1993,#953);
#804=LINE('',#1997,#954);
#805=LINE('',#2001,#955);
#806=LINE('',#2003,#956);
#807=LINE('',#2006,#957);
#808=LINE('',#2008,#958);
#809=LINE('',#2010,#959);
#810=LINE('',#2012,#960);
#811=LINE('',#2014,#961);
#812=LINE('',#2016,#962);
#813=LINE('',#2018,#963);
#814=LINE('',#2020,#964);
#815=LINE('',#2022,#965);
#816=LINE('',#2024,#966);
#817=LINE('',#2026,#967);
#818=LINE('',#2029,#968);
#819=LINE('',#2030,#969);
#820=LINE('',#2034,#970);
#821=LINE('',#2036,#971);
#822=LINE('',#2038,#972);
#823=LINE('',#2039,#973);
#824=LINE('',#2041,#974);
#825=LINE('',#2044,#975);
#826=LINE('',#2046,#976);
#827=LINE('',#2048,#977);
#828=LINE('',#2050,#978);
#829=LINE('',#2051,#979);
#830=LINE('',#2053,#980);
#831=LINE('',#2056,#981);
#832=LINE('',#2058,#982);
#833=LINE('',#2060,#983);
#834=LINE('',#2062,#984);
#835=LINE('',#2068,#985);
#836=LINE('',#2071,#986);
#837=LINE('',#2072,#987);
#838=LINE('',#2074,#988);
#839=LINE('',#2080,#989);
#840=LINE('',#2083,#990);
#841=LINE('',#2084,#991);
#842=LINE('',#2086,#992);
#843=LINE('',#2092,#993);
#844=LINE('',#2095,#994);
#845=LINE('',#2096,#995);
#846=LINE('',#2101,#996);
#847=LINE('',#2102,#997);
#848=LINE('',#2104,#998);
#849=LINE('',#2106,#999);
#850=LINE('',#2108,#1000);
#851=LINE('',#2110,#1001);
#852=LINE('',#2112,#1002);
#853=LINE('',#2114,#1003);
#854=LINE('',#2116,#1004);
#855=LINE('',#2117,#1005);
#856=LINE('',#2119,#1006);
#857=LINE('',#2121,#1007);
#858=LINE('',#2125,#1008);
#859=LINE('',#2129,#1009);
#860=LINE('',#2133,#1010);
#861=LINE('',#2137,#1011);
#862=LINE('',#2142,#1012);
#863=LINE('',#2146,#1013);
#864=LINE('',#2150,#1014);
#865=LINE('',#2154,#1015);
#866=LINE('',#2156,#1016);
#867=LINE('',#2157,#1017);
#868=LINE('',#2159,#1018);
#869=LINE('',#2161,#1019);
#870=LINE('',#2163,#1020);
#871=LINE('',#2165,#1021);
#872=LINE('',#2167,#1022);
#873=LINE('',#2169,#1023);
#874=LINE('',#2172,#1024);
#875=LINE('',#2174,#1025);
#876=LINE('',#2176,#1026);
#877=LINE('',#2180,#1027);
#878=LINE('',#2182,#1028);
#879=LINE('',#2184,#1029);
#880=LINE('',#2188,#1030);
#881=LINE('',#2190,#1031);
#882=LINE('',#2192,#1032);
#883=LINE('',#2196,#1033);
#884=LINE('',#2198,#1034);
#885=LINE('',#2200,#1035);
#886=LINE('',#2204,#1036);
#887=LINE('',#2207,#1037);
#888=LINE('',#2209,#1038);
#889=LINE('',#2211,#1039);
#890=LINE('',#2212,#1040);
#891=LINE('',#2213,#1041);
#892=LINE('',#2214,#1042);
#893=LINE('',#2219,#1043);
#894=LINE('',#2223,#1044);
#895=LINE('',#2227,#1045);
#896=LINE('',#2247,#1046);
#897=LINE('',#2248,#1047);
#898=LINE('',#2250,#1048);
#899=LINE('',#2252,#1049);
#900=LINE('',#2254,#1050);
#901=LINE('',#2256,#1051);
#902=LINE('',#2258,#1052);
#903=LINE('',#2260,#1053);
#904=LINE('',#2263,#1054);
#905=LINE('',#2265,#1055);
#906=LINE('',#2267,#1056);
#907=LINE('',#2269,#1057);
#908=LINE('',#2271,#1058);
#909=LINE('',#2272,#1059);
#910=LINE('',#2274,#1060);
#911=LINE('',#2275,#1061);
#912=LINE('',#2277,#1062);
#913=LINE('',#2279,#1063);
#914=LINE('',#2281,#1064);
#915=LINE('',#2283,#1065);
#916=LINE('',#2285,#1066);
#917=LINE('',#2287,#1067);
#918=LINE('',#2289,#1068);
#919=LINE('',#2290,#1069);
#920=LINE('',#2292,#1070);
#921=LINE('',#2294,#1071);
#922=LINE('',#2296,#1072);
#923=LINE('',#2298,#1073);
#924=LINE('',#2300,#1074);
#925=LINE('',#2302,#1075);
#926=LINE('',#2304,#1076);
#927=LINE('',#2306,#1077);
#928=LINE('',#2308,#1078);
#929=LINE('',#2310,#1079);
#930=VECTOR('',#1527,1.);
#931=VECTOR('',#1528,1.);
#932=VECTOR('',#1529,1.);
#933=VECTOR('',#1530,1.);
#934=VECTOR('',#1531,1.);
#935=VECTOR('',#1534,1.);
#936=VECTOR('',#1537,1.);
#937=VECTOR('',#1538,1.);
#938=VECTOR('',#1539,1.);
#939=VECTOR('',#1540,1.);
#940=VECTOR('',#1543,1.);
#941=VECTOR('',#1544,1.);
#942=VECTOR('',#1547,1.);
#943=VECTOR('',#1548,1.);
#944=VECTOR('',#1549,1.);
#945=VECTOR('',#1550,1.);
#946=VECTOR('',#1551,1.);
#947=VECTOR('',#1554,1.);
#948=VECTOR('',#1559,1.);
#949=VECTOR('',#1562,1.);
#950=VECTOR('',#1565,1.);
#951=VECTOR('',#1568,1.);
#952=VECTOR('',#1571,1.);
#953=VECTOR('',#1574,1.);
#954=VECTOR('',#1577,1.);
#955=VECTOR('',#1580,1.);
#956=VECTOR('',#1583,1.);
#957=VECTOR('',#1584,1.);
#958=VECTOR('',#1585,1.);
#959=VECTOR('',#1586,1.);
#960=VECTOR('',#1589,1.);
#961=VECTOR('',#1590,1.);
#962=VECTOR('',#1591,1.);
#963=VECTOR('',#1592,1.);
#964=VECTOR('',#1593,1.);
#965=VECTOR('',#1594,1.);
#966=VECTOR('',#1595,1.);
#967=VECTOR('',#1598,1.);
#968=VECTOR('',#1599,1.);
#969=VECTOR('',#1600,1.);
#970=VECTOR('',#1603,1.);
#971=VECTOR('',#1604,1.);
#972=VECTOR('',#1607,1.);
#973=VECTOR('',#1608,1.);
#974=VECTOR('',#1611,1.);
#975=VECTOR('',#1612,1.);
#976=VECTOR('',#1613,1.);
#977=VECTOR('',#1614,1.);
#978=VECTOR('',#1617,1.);
#979=VECTOR('',#1618,1.);
#980=VECTOR('',#1621,1.);
#981=VECTOR('',#1622,1.);
#982=VECTOR('',#1623,1.);
#983=VECTOR('',#1624,1.);
#984=VECTOR('',#1627,1.);
#985=VECTOR('',#1634,1.);
#986=VECTOR('',#1635,1.);
#987=VECTOR('',#1636,1.);
#988=VECTOR('',#1639,1.);
#989=VECTOR('',#1646,1.);
#990=VECTOR('',#1647,1.);
#991=VECTOR('',#1648,1.);
#992=VECTOR('',#1651,1.);
#993=VECTOR('',#1658,1.);
#994=VECTOR('',#1659,1.);
#995=VECTOR('',#1660,1.);
#996=VECTOR('',#1669,1.);
#997=VECTOR('',#1670,1.);
#998=VECTOR('',#1671,1.);
#999=VECTOR('',#1672,1.);
#1000=VECTOR('',#1673,1.);
#1001=VECTOR('',#1674,1.);
#1002=VECTOR('',#1677,1.);
#1003=VECTOR('',#1678,1.);
#1004=VECTOR('',#1679,1.);
#1005=VECTOR('',#1680,1.);
#1006=VECTOR('',#1681,1.);
#1007=VECTOR('',#1682,1.);
#1008=VECTOR('',#1685,1.);
#1009=VECTOR('',#1688,1.);
#1010=VECTOR('',#1691,1.);
#1011=VECTOR('',#1694,1.);
#1012=VECTOR('',#1699,1.);
#1013=VECTOR('',#1702,1.);
#1014=VECTOR('',#1705,1.);
#1015=VECTOR('',#1708,1.);
#1016=VECTOR('',#1711,1.);
#1017=VECTOR('',#1712,1.);
#1018=VECTOR('',#1715,1.);
#1019=VECTOR('',#1718,1.);
#1020=VECTOR('',#1721,1.);
#1021=VECTOR('',#1724,1.);
#1022=VECTOR('',#1727,1.);
#1023=VECTOR('',#1730,1.);
#1024=VECTOR('',#1735,1.);
#1025=VECTOR('',#1736,1.);
#1026=VECTOR('',#1737,1.);
#1027=VECTOR('',#1742,1.);
#1028=VECTOR('',#1745,1.);
#1029=VECTOR('',#1746,1.);
#1030=VECTOR('',#1751,1.);
#1031=VECTOR('',#1754,1.);
#1032=VECTOR('',#1755,1.);
#1033=VECTOR('',#1760,1.);
#1034=VECTOR('',#1763,1.);
#1035=VECTOR('',#1764,1.);
#1036=VECTOR('',#1771,1.);
#1037=VECTOR('',#1772,1.);
#1038=VECTOR('',#1773,1.);
#1039=VECTOR('',#1774,1.);
#1040=VECTOR('',#1775,1.);
#1041=VECTOR('',#1776,1.);
#1042=VECTOR('',#1777,1.);
#1043=VECTOR('',#1780,1.);
#1044=VECTOR('',#1783,1.);
#1045=VECTOR('',#1786,1.);
#1046=VECTOR('',#1823,1.);
#1047=VECTOR('',#1824,1.);
#1048=VECTOR('',#1827,1.);
#1049=VECTOR('',#1830,1.);
#1050=VECTOR('',#1833,1.);
#1051=VECTOR('',#1836,1.);
#1052=VECTOR('',#1839,1.);
#1053=VECTOR('',#1842,1.);
#1054=VECTOR('',#1847,1.);
#1055=VECTOR('',#1850,1.);
#1056=VECTOR('',#1853,1.);
#1057=VECTOR('',#1856,1.);
#1058=VECTOR('',#1859,1.);
#1059=VECTOR('',#1860,1.);
#1060=VECTOR('',#1863,1.);
#1061=VECTOR('',#1864,1.);
#1062=VECTOR('',#1867,1.);
#1063=VECTOR('',#1870,1.);
#1064=VECTOR('',#1873,1.);
#1065=VECTOR('',#1876,1.);
#1066=VECTOR('',#1879,1.);
#1067=VECTOR('',#1882,1.);
#1068=VECTOR('',#1885,1.);
#1069=VECTOR('',#1886,1.);
#1070=VECTOR('',#1889,1.);
#1071=VECTOR('',#1892,1.);
#1072=VECTOR('',#1895,1.);
#1073=VECTOR('',#1898,1.);
#1074=VECTOR('',#1901,1.);
#1075=VECTOR('',#1904,1.);
#1076=VECTOR('',#1907,1.);
#1077=VECTOR('',#1910,1.);
#1078=VECTOR('',#1913,1.);
#1079=VECTOR('',#1916,1.);
#1080=EDGE_LOOP('',(#82,#83,#84,#85,#86,#87,#88));
#1081=EDGE_LOOP('',(#89,#90,#91,#92,#93,#94,#95));
#1082=EDGE_LOOP('',(#96,#97,#98,#99,#100,#101,#102));
#1083=EDGE_LOOP('',(#103,#104,#105,#106,#107,#108,#109,#110));
#1084=EDGE_LOOP('',(#111,#112,#113,#114,#115,#116,#117,#118));
#1085=EDGE_LOOP('',(#119,#120,#121,#122));
#1086=EDGE_LOOP('',(#123,#124,#125,#126,#127,#128,#129,#130));
#1087=EDGE_LOOP('',(#131,#132,#133,#134,#135,#136,#137));
#1088=EDGE_LOOP('',(#138,#139,#140,#141));
#1089=EDGE_LOOP('',(#142,#143,#144,#145));
#1090=EDGE_LOOP('',(#146,#147,#148,#149));
#1091=EDGE_LOOP('',(#150,#151,#152,#153));
#1092=EDGE_LOOP('',(#154,#155,#156,#157));
#1093=EDGE_LOOP('',(#158,#159,#160,#161));
#1094=EDGE_LOOP('',(#162,#163,#164,#165));
#1095=EDGE_LOOP('',(#166,#167,#168,#169));
#1096=EDGE_LOOP('',(#170,#171,#172,#173));
#1097=EDGE_LOOP('',(#174,#175,#176,#177));
#1098=EDGE_LOOP('',(#178,#179,#180,#181));
#1099=EDGE_LOOP('',(#182,#183,#184,#185,#186,#187,#188,#189));
#1100=EDGE_LOOP('',(#190,#191,#192,#193,#194,#195,#196,#197,#198,#199,#200,
#201));
#1101=EDGE_LOOP('',(#202,#203,#204,#205,#206,#207,#208,#209));
#1102=EDGE_LOOP('',(#210,#211,#212,#213,#214,#215,#216,#217));
#1103=EDGE_LOOP('',(#218,#219,#220,#221,#222,#223,#224,#225));
#1104=EDGE_LOOP('',(#226,#227,#228,#229));
#1105=EDGE_LOOP('',(#230,#231,#232,#233));
#1106=EDGE_LOOP('',(#234,#235,#236,#237));
#1107=EDGE_LOOP('',(#238,#239,#240,#241));
#1108=EDGE_LOOP('',(#242,#243,#244,#245));
#1109=EDGE_LOOP('',(#246,#247,#248,#249));
#1110=EDGE_LOOP('',(#250,#251,#252,#253));
#1111=EDGE_LOOP('',(#254,#255,#256,#257));
#1112=EDGE_LOOP('',(#258,#259,#260,#261));
#1113=EDGE_LOOP('',(#262,#263,#264,#265));
#1114=EDGE_LOOP('',(#266,#267,#268,#269));
#1115=EDGE_LOOP('',(#270,#271,#272,#273));
#1116=EDGE_LOOP('',(#274,#275,#276,#277));
#1117=EDGE_LOOP('',(#278,#279,#280,#281));
#1118=EDGE_LOOP('',(#282,#283,#284,#285));
#1119=EDGE_LOOP('',(#286,#287,#288,#289));
#1120=EDGE_LOOP('',(#290,#291,#292,#293));
#1121=EDGE_LOOP('',(#294,#295,#296,#297));
#1122=EDGE_LOOP('',(#298,#299,#300,#301));
#1123=EDGE_LOOP('',(#302,#303,#304,#305,#306,#307,#308,#309));
#1124=EDGE_LOOP('',(#310,#311,#312,#313));
#1125=EDGE_LOOP('',(#314,#315,#316,#317));
#1126=EDGE_LOOP('',(#318,#319,#320,#321));
#1127=EDGE_LOOP('',(#322,#323,#324,#325));
#1128=EDGE_LOOP('',(#326,#327,#328,#329));
#1129=EDGE_LOOP('',(#330,#331,#332,#333));
#1130=EDGE_LOOP('',(#334,#335,#336,#337));
#1131=EDGE_LOOP('',(#338,#339,#340,#341));
#1132=EDGE_LOOP('',(#342,#343,#344,#345));
#1133=EDGE_LOOP('',(#346,#347,#348,#349));
#1134=EDGE_LOOP('',(#350,#351,#352,#353));
#1135=EDGE_LOOP('',(#354,#355,#356,#357));
#1136=EDGE_LOOP('',(#358,#359,#360,#361));
#1137=EDGE_LOOP('',(#362,#363,#364,#365));
#1138=EDGE_LOOP('',(#366,#367,#368,#369));
#1139=EDGE_LOOP('',(#370,#371,#372,#373));
#1140=EDGE_LOOP('',(#374,#375,#376,#377));
#1141=EDGE_LOOP('',(#378,#379,#380,#381));
#1142=EDGE_LOOP('',(#382,#383,#384,#385));
#1143=EDGE_LOOP('',(#386,#387,#388,#389));
#1144=EDGE_LOOP('',(#390,#391,#392));
#1145=EDGE_LOOP('',(#393,#394,#395));
#1146=EDGE_LOOP('',(#396,#397,#398,#399));
#1147=EDGE_LOOP('',(#400,#401,#402,#403));
#1148=EDGE_LOOP('',(#404,#405,#406,#407));
#1149=EDGE_LOOP('',(#408,#409,#410,#411));
#1150=EDGE_LOOP('',(#412,#413,#414,#415));
#1151=EDGE_LOOP('',(#416,#417,#418,#419));
#1152=EDGE_LOOP('',(#420,#421,#422,#423));
#1153=EDGE_LOOP('',(#424,#425,#426));
#1154=EDGE_LOOP('',(#427,#428,#429));
#1155=EDGE_LOOP('',(#430,#431,#432));
#1156=EDGE_LOOP('',(#433,#434,#435));
#1157=EDGE_LOOP('',(#436,#437,#438,#439));
#1158=EDGE_LOOP('',(#440,#441,#442,#443));
#1159=EDGE_LOOP('',(#444,#445,#446,#447));
#1160=EDGE_LOOP('',(#448,#449,#450,#451));
#1161=EDGE_LOOP('',(#452,#453,#454));
#1162=EDGE_LOOP('',(#455,#456,#457));
#1163=EDGE_LOOP('',(#458,#459,#460,#461));
#1164=EDGE_LOOP('',(#462,#463,#464,#465));
#1165=EDGE_LOOP('',(#466,#467,#468,#469));
#1166=FACE_BOUND('',#1080,.T.);
#1167=FACE_BOUND('',#1081,.T.);
#1168=FACE_BOUND('',#1082,.T.);
#1169=FACE_BOUND('',#1083,.T.);
#1170=FACE_BOUND('',#1084,.T.);
#1171=FACE_BOUND('',#1085,.T.);
#1172=FACE_BOUND('',#1086,.T.);
#1173=FACE_BOUND('',#1087,.T.);
#1174=FACE_BOUND('',#1088,.T.);
#1175=FACE_BOUND('',#1089,.T.);
#1176=FACE_BOUND('',#1090,.T.);
#1177=FACE_BOUND('',#1091,.T.);
#1178=FACE_BOUND('',#1092,.T.);
#1179=FACE_BOUND('',#1093,.T.);
#1180=FACE_BOUND('',#1094,.T.);
#1181=FACE_BOUND('',#1095,.T.);
#1182=FACE_BOUND('',#1096,.T.);
#1183=FACE_BOUND('',#1097,.T.);
#1184=FACE_BOUND('',#1098,.T.);
#1185=FACE_BOUND('',#1099,.T.);
#1186=FACE_BOUND('',#1100,.T.);
#1187=FACE_BOUND('',#1101,.T.);
#1188=FACE_BOUND('',#1102,.T.);
#1189=FACE_BOUND('',#1103,.T.);
#1190=FACE_BOUND('',#1104,.T.);
#1191=FACE_BOUND('',#1105,.T.);
#1192=FACE_BOUND('',#1106,.T.);
#1193=FACE_BOUND('',#1107,.T.);
#1194=FACE_BOUND('',#1108,.T.);
#1195=FACE_BOUND('',#1109,.T.);
#1196=FACE_BOUND('',#1110,.T.);
#1197=FACE_BOUND('',#1111,.T.);
#1198=FACE_BOUND('',#1112,.T.);
#1199=FACE_BOUND('',#1113,.T.);
#1200=FACE_BOUND('',#1114,.T.);
#1201=FACE_BOUND('',#1115,.T.);
#1202=FACE_BOUND('',#1116,.T.);
#1203=FACE_BOUND('',#1117,.T.);
#1204=FACE_BOUND('',#1118,.T.);
#1205=FACE_BOUND('',#1119,.T.);
#1206=FACE_BOUND('',#1120,.T.);
#1207=FACE_BOUND('',#1121,.T.);
#1208=FACE_BOUND('',#1122,.T.);
#1209=FACE_BOUND('',#1123,.T.);
#1210=FACE_BOUND('',#1124,.T.);
#1211=FACE_BOUND('',#1125,.T.);
#1212=FACE_BOUND('',#1126,.T.);
#1213=FACE_BOUND('',#1127,.T.);
#1214=FACE_BOUND('',#1128,.T.);
#1215=FACE_BOUND('',#1129,.T.);
#1216=FACE_BOUND('',#1130,.T.);
#1217=FACE_BOUND('',#1131,.T.);
#1218=FACE_BOUND('',#1132,.T.);
#1219=FACE_BOUND('',#1133,.T.);
#1220=FACE_BOUND('',#1134,.T.);
#1221=FACE_BOUND('',#1135,.T.);
#1222=FACE_BOUND('',#1136,.T.);
#1223=FACE_BOUND('',#1137,.T.);
#1224=FACE_BOUND('',#1138,.T.);
#1225=FACE_BOUND('',#1139,.T.);
#1226=FACE_BOUND('',#1140,.T.);
#1227=FACE_BOUND('',#1141,.T.);
#1228=FACE_BOUND('',#1142,.T.);
#1229=FACE_BOUND('',#1143,.T.);
#1230=FACE_BOUND('',#1144,.T.);
#1231=FACE_BOUND('',#1145,.T.);
#1232=FACE_BOUND('',#1146,.T.);
#1233=FACE_BOUND('',#1147,.T.);
#1234=FACE_BOUND('',#1148,.T.);
#1235=FACE_BOUND('',#1149,.T.);
#1236=FACE_BOUND('',#1150,.T.);
#1237=FACE_BOUND('',#1151,.T.);
#1238=FACE_BOUND('',#1152,.T.);
#1239=FACE_BOUND('',#1153,.T.);
#1240=FACE_BOUND('',#1154,.T.);
#1241=FACE_BOUND('',#1155,.T.);
#1242=FACE_BOUND('',#1156,.T.);
#1243=FACE_BOUND('',#1157,.T.);
#1244=FACE_BOUND('',#1158,.T.);
#1245=FACE_BOUND('',#1159,.T.);
#1246=FACE_BOUND('',#1160,.T.);
#1247=FACE_BOUND('',#1161,.T.);
#1248=FACE_BOUND('',#1162,.T.);
#1249=FACE_BOUND('',#1163,.T.);
#1250=FACE_BOUND('',#1164,.T.);
#1251=FACE_BOUND('',#1165,.T.);
#1252=PLANE('',#1399);
#1253=PLANE('',#1401);
#1254=PLANE('',#1403);
#1255=PLANE('',#1405);
#1256=PLANE('',#1414);
#1257=PLANE('',#1415);
#1258=PLANE('',#1416);
#1259=PLANE('',#1418);
#1260=PLANE('',#1419);
#1261=PLANE('',#1420);
#1262=PLANE('',#1421);
#1263=PLANE('',#1425);
#1264=PLANE('',#1429);
#1265=PLANE('',#1433);
#1266=PLANE('',#1437);
#1267=PLANE('',#1438);
#1268=PLANE('',#1443);
#1269=PLANE('',#1449);
#1270=PLANE('',#1451);
#1271=PLANE('',#1453);
#1272=PLANE('',#1455);
#1273=PLANE('',#1456);
#1274=PLANE('',#1459);
#1275=PLANE('',#1462);
#1276=PLANE('',#1465);
#1277=PLANE('',#1468);
#1278=PLANE('',#1489);
#1279=PLANE('',#1492);
#1280=PLANE('',#1493);
#1281=PLANE('',#1496);
#1282=PLANE('',#1499);
#1283=PLANE('',#1500);
#1284=PLANE('',#1501);
#1285=PLANE('',#1502);
#1286=PLANE('',#1503);
#1287=PLANE('',#1504);
#1288=PLANE('',#1505);
#1289=PLANE('',#1506);
#1290=PLANE('',#1507);
#1291=PLANE('',#1508);
#1292=PLANE('',#1509);
#1293=PLANE('',#1510);
#1294=PLANE('',#1511);
#1295=PLANE('',#1512);
#1296=PLANE('',#1513);
#1297=PLANE('',#1514);
#1298=PLANE('',#1515);
#1299=PLANE('',#1516);
#1300=PLANE('',#1517);
#1301=PLANE('',#1518);
#1302=PLANE('',#1519);
#1303=PLANE('',#1520);
#1304=PLANE('',#1521);
#1305=PLANE('',#1522);
#1306=ADVANCED_FACE('',(#1166),#1252,.T.);
#1307=ADVANCED_FACE('',(#1167),#1253,.F.);
#1308=ADVANCED_FACE('',(#1168),#1254,.T.);
#1309=ADVANCED_FACE('',(#1169,#1170),#1255,.F.);
#1310=ADVANCED_FACE('',(#1171),#1256,.T.);
#1311=ADVANCED_FACE('',(#1172),#1257,.F.);
#1312=ADVANCED_FACE('',(#1173),#1258,.F.);
#1313=ADVANCED_FACE('',(#1174),#1259,.T.);
#1314=ADVANCED_FACE('',(#1175),#1260,.T.);
#1315=ADVANCED_FACE('',(#1176),#1261,.F.);
#1316=ADVANCED_FACE('',(#1177),#1262,.F.);
#1317=ADVANCED_FACE('',(#1178),#24,.F.);
#1318=ADVANCED_FACE('',(#1179),#1263,.F.);
#1319=ADVANCED_FACE('',(#1180),#25,.F.);
#1320=ADVANCED_FACE('',(#1181),#1264,.F.);
#1321=ADVANCED_FACE('',(#1182),#26,.F.);
#1322=ADVANCED_FACE('',(#1183),#1265,.F.);
#1323=ADVANCED_FACE('',(#1184),#27,.F.);
#1324=ADVANCED_FACE('',(#1185),#1266,.T.);
#1325=ADVANCED_FACE('',(#1186,#1187),#1267,.T.);
#1326=ADVANCED_FACE('',(#1188,#1189),#1268,.F.);
#1327=ADVANCED_FACE('',(#1190),#28,.F.);
#1328=ADVANCED_FACE('',(#1191),#1269,.T.);
#1329=ADVANCED_FACE('',(#1192),#29,.F.);
#1330=ADVANCED_FACE('',(#1193),#1270,.T.);
#1331=ADVANCED_FACE('',(#1194),#30,.F.);
#1332=ADVANCED_FACE('',(#1195),#1271,.T.);
#1333=ADVANCED_FACE('',(#1196),#31,.F.);
#1334=ADVANCED_FACE('',(#1197),#1272,.T.);
#1335=ADVANCED_FACE('',(#1198),#1273,.T.);
#1336=ADVANCED_FACE('',(#1199),#16,.F.);
#1337=ADVANCED_FACE('',(#1200),#1274,.T.);
#1338=ADVANCED_FACE('',(#1201),#17,.F.);
#1339=ADVANCED_FACE('',(#1202),#1275,.T.);
#1340=ADVANCED_FACE('',(#1203),#18,.F.);
#1341=ADVANCED_FACE('',(#1204),#1276,.T.);
#1342=ADVANCED_FACE('',(#1205),#19,.F.);
#1343=ADVANCED_FACE('',(#1206,#1207,#1208,#1209),#1277,.F.);
#1344=ADVANCED_FACE('',(#1210),#12,.T.);
#1345=ADVANCED_FACE('',(#1211),#32,.T.);
#1346=ADVANCED_FACE('',(#1212),#33,.T.);
#1347=ADVANCED_FACE('',(#1213),#13,.T.);
#1348=ADVANCED_FACE('',(#1214),#14,.T.);
#1349=ADVANCED_FACE('',(#1215),#34,.T.);
#1350=ADVANCED_FACE('',(#1216),#35,.T.);
#1351=ADVANCED_FACE('',(#1217),#15,.T.);
#1352=ADVANCED_FACE('',(#1218),#1278,.T.);
#1353=ADVANCED_FACE('',(#1219),#20,.F.);
#1354=ADVANCED_FACE('',(#1220),#21,.F.);
#1355=ADVANCED_FACE('',(#1221),#1279,.T.);
#1356=ADVANCED_FACE('',(#1222),#1280,.T.);
#1357=ADVANCED_FACE('',(#1223),#22,.F.);
#1358=ADVANCED_FACE('',(#1224),#23,.F.);
#1359=ADVANCED_FACE('',(#1225),#1281,.T.);
#1360=ADVANCED_FACE('',(#1226),#36,.T.);
#1361=ADVANCED_FACE('',(#1227),#37,.T.);
#1362=ADVANCED_FACE('',(#1228),#1282,.T.);
#1363=ADVANCED_FACE('',(#1229),#1283,.T.);
#1364=ADVANCED_FACE('',(#1230),#1284,.T.);
#1365=ADVANCED_FACE('',(#1231),#1285,.T.);
#1366=ADVANCED_FACE('',(#1232),#1286,.T.);
#1367=ADVANCED_FACE('',(#1233),#1287,.F.);
#1368=ADVANCED_FACE('',(#1234),#1288,.F.);
#1369=ADVANCED_FACE('',(#1235),#1289,.F.);
#1370=ADVANCED_FACE('',(#1236),#1290,.F.);
#1371=ADVANCED_FACE('',(#1237),#1291,.T.);
#1372=ADVANCED_FACE('',(#1238),#1292,.F.);
#1373=ADVANCED_FACE('',(#1239),#1293,.T.);
#1374=ADVANCED_FACE('',(#1240),#1294,.T.);
#1375=ADVANCED_FACE('',(#1241),#1295,.T.);
#1376=ADVANCED_FACE('',(#1242),#1296,.T.);
#1377=ADVANCED_FACE('',(#1243),#1297,.T.);
#1378=ADVANCED_FACE('',(#1244),#1298,.F.);
#1379=ADVANCED_FACE('',(#1245),#1299,.F.);
#1380=ADVANCED_FACE('',(#1246),#1300,.T.);
#1381=ADVANCED_FACE('',(#1247),#1301,.T.);
#1382=ADVANCED_FACE('',(#1248),#1302,.T.);
#1383=ADVANCED_FACE('',(#1249),#1303,.T.);
#1384=ADVANCED_FACE('',(#1250),#1304,.F.);
#1385=ADVANCED_FACE('',(#1251),#1305,.F.);
#1386=CLOSED_SHELL('',(#1306,#1307,#1308,#1309,#1310,#1311,#1312,#1313,
#1314,#1315,#1316,#1317,#1318,#1319,#1320,#1321,#1322,#1323,#1324,#1325,
#1326,#1327,#1328,#1329,#1330,#1331,#1332,#1333,#1334,#1335,#1336,#1337,
#1338,#1339,#1340,#1341,#1342,#1343,#1344,#1345,#1346,#1347,#1348,#1349,
#1350,#1351,#1352,#1353,#1354,#1355,#1356,#1357,#1358,#1359,#1360,#1361,
#1362,#1363,#1364,#1365,#1366,#1367,#1368,#1369,#1370,#1371,#1372,#1373,
#1374,#1375,#1376,#1377,#1378,#1379,#1380,#1381,#1382,#1383,#1384,#1385));
#1387=STYLED_ITEM('',(#1388),#1395);
#1388=PRESENTATION_STYLE_ASSIGNMENT((#1389));
#1389=SURFACE_STYLE_USAGE(.BOTH.,#1390);
#1390=SURFACE_SIDE_STYLE('',(#1391));
#1391=SURFACE_STYLE_FILL_AREA(#1392);
#1392=FILL_AREA_STYLE('',(#1393));
#1393=FILL_AREA_STYLE_COLOUR('',#1394);
#1394=COLOUR_RGB('',0.647058823529412,0.647058823529412,0.647058823529412);
#1395=MANIFOLD_SOLID_BREP('Part 1',#1386);
#1396=SHAPE_DEFINITION_REPRESENTATION(#2320,#1397);
#1397=SHAPE_REPRESENTATION('Part 1',(#1398),#2315);
#1398=AXIS2_PLACEMENT_3D('',#1923,#1523,#1524);
#1399=AXIS2_PLACEMENT_3D('',#1924,#1525,#1526);
#1400=AXIS2_PLACEMENT_3D('',#1936,#1532,#1533);
#1401=AXIS2_PLACEMENT_3D('',#1939,#1535,#1536);
#1402=AXIS2_PLACEMENT_3D('',#1949,#1541,#1542);
#1403=AXIS2_PLACEMENT_3D('',#1954,#1545,#1546);
#1404=AXIS2_PLACEMENT_3D('',#1966,#1552,#1553);
#1405=AXIS2_PLACEMENT_3D('',#1969,#1555,#1556);
#1406=AXIS2_PLACEMENT_3D('',#1970,#1557,#1558);
#1407=AXIS2_PLACEMENT_3D('',#1975,#1560,#1561);
#1408=AXIS2_PLACEMENT_3D('',#1979,#1563,#1564);
#1409=AXIS2_PLACEMENT_3D('',#1983,#1566,#1567);
#1410=AXIS2_PLACEMENT_3D('',#1986,#1569,#1570);
#1411=AXIS2_PLACEMENT_3D('',#1991,#1572,#1573);
#1412=AXIS2_PLACEMENT_3D('',#1995,#1575,#1576);
#1413=AXIS2_PLACEMENT_3D('',#1999,#1578,#1579);
#1414=AXIS2_PLACEMENT_3D('',#2002,#1581,#1582);
#1415=AXIS2_PLACEMENT_3D('',#2011,#1587,#1588);
#1416=AXIS2_PLACEMENT_3D('',#2025,#1596,#1597);
#1417=AXIS2_PLACEMENT_3D('',#2032,#1601,#1602);
#1418=AXIS2_PLACEMENT_3D('',#2037,#1605,#1606);
#1419=AXIS2_PLACEMENT_3D('',#2040,#1609,#1610);
#1420=AXIS2_PLACEMENT_3D('',#2049,#1615,#1616);
#1421=AXIS2_PLACEMENT_3D('',#2052,#1619,#1620);
#1422=AXIS2_PLACEMENT_3D('',#2061,#1625,#1626);
#1423=AXIS2_PLACEMENT_3D('',#2065,#1628,#1629);
#1424=AXIS2_PLACEMENT_3D('',#2066,#1630,#1631);
#1425=AXIS2_PLACEMENT_3D('',#2067,#1632,#1633);
#1426=AXIS2_PLACEMENT_3D('',#2073,#1637,#1638);
#1427=AXIS2_PLACEMENT_3D('',#2077,#1640,#1641);
#1428=AXIS2_PLACEMENT_3D('',#2078,#1642,#1643);
#1429=AXIS2_PLACEMENT_3D('',#2079,#1644,#1645);
#1430=AXIS2_PLACEMENT_3D('',#2085,#1649,#1650);
#1431=AXIS2_PLACEMENT_3D('',#2089,#1652,#1653);
#1432=AXIS2_PLACEMENT_3D('',#2090,#1654,#1655);
#1433=AXIS2_PLACEMENT_3D('',#2091,#1656,#1657);
#1434=AXIS2_PLACEMENT_3D('',#2097,#1661,#1662);
#1435=AXIS2_PLACEMENT_3D('',#2098,#1663,#1664);
#1436=AXIS2_PLACEMENT_3D('',#2099,#1665,#1666);
#1437=AXIS2_PLACEMENT_3D('',#2100,#1667,#1668);
#1438=AXIS2_PLACEMENT_3D('',#2111,#1675,#1676);
#1439=AXIS2_PLACEMENT_3D('',#2122,#1683,#1684);
#1440=AXIS2_PLACEMENT_3D('',#2127,#1686,#1687);
#1441=AXIS2_PLACEMENT_3D('',#2131,#1689,#1690);
#1442=AXIS2_PLACEMENT_3D('',#2135,#1692,#1693);
#1443=AXIS2_PLACEMENT_3D('',#2138,#1695,#1696);
#1444=AXIS2_PLACEMENT_3D('',#2139,#1697,#1698);
#1445=AXIS2_PLACEMENT_3D('',#2144,#1700,#1701);
#1446=AXIS2_PLACEMENT_3D('',#2148,#1703,#1704);
#1447=AXIS2_PLACEMENT_3D('',#2152,#1706,#1707);
#1448=AXIS2_PLACEMENT_3D('',#2155,#1709,#1710);
#1449=AXIS2_PLACEMENT_3D('',#2158,#1713,#1714);
#1450=AXIS2_PLACEMENT_3D('',#2160,#1716,#1717);
#1451=AXIS2_PLACEMENT_3D('',#2162,#1719,#1720);
#1452=AXIS2_PLACEMENT_3D('',#2164,#1722,#1723);
#1453=AXIS2_PLACEMENT_3D('',#2166,#1725,#1726);
#1454=AXIS2_PLACEMENT_3D('',#2168,#1728,#1729);
#1455=AXIS2_PLACEMENT_3D('',#2170,#1731,#1732);
#1456=AXIS2_PLACEMENT_3D('',#2171,#1733,#1734);
#1457=AXIS2_PLACEMENT_3D('',#2177,#1738,#1739);
#1458=AXIS2_PLACEMENT_3D('',#2178,#1740,#1741);
#1459=AXIS2_PLACEMENT_3D('',#2181,#1743,#1744);
#1460=AXIS2_PLACEMENT_3D('',#2185,#1747,#1748);
#1461=AXIS2_PLACEMENT_3D('',#2186,#1749,#1750);
#1462=AXIS2_PLACEMENT_3D('',#2189,#1752,#1753);
#1463=AXIS2_PLACEMENT_3D('',#2193,#1756,#1757);
#1464=AXIS2_PLACEMENT_3D('',#2194,#1758,#1759);
#1465=AXIS2_PLACEMENT_3D('',#2197,#1761,#1762);
#1466=AXIS2_PLACEMENT_3D('',#2201,#1765,#1766);
#1467=AXIS2_PLACEMENT_3D('',#2202,#1767,#1768);
#1468=AXIS2_PLACEMENT_3D('',#2203,#1769,#1770);
#1469=AXIS2_PLACEMENT_3D('',#2217,#1778,#1779);
#1470=AXIS2_PLACEMENT_3D('',#2221,#1781,#1782);
#1471=AXIS2_PLACEMENT_3D('',#2225,#1784,#1785);
#1472=AXIS2_PLACEMENT_3D('',#2229,#1787,#1788);
#1473=AXIS2_PLACEMENT_3D('',#2230,#1789,#1790);
#1474=AXIS2_PLACEMENT_3D('',#2231,#1791,#1792);
#1475=AXIS2_PLACEMENT_3D('',#2232,#1793,#1794);
#1476=AXIS2_PLACEMENT_3D('',#2233,#1795,#1796);
#1477=AXIS2_PLACEMENT_3D('',#2234,#1797,#1798);
#1478=AXIS2_PLACEMENT_3D('',#2235,#1799,#1800);
#1479=AXIS2_PLACEMENT_3D('',#2236,#1801,#1802);
#1480=AXIS2_PLACEMENT_3D('',#2237,#1803,#1804);
#1481=AXIS2_PLACEMENT_3D('',#2238,#1805,#1806);
#1482=AXIS2_PLACEMENT_3D('',#2239,#1807,#1808);
#1483=AXIS2_PLACEMENT_3D('',#2240,#1809,#1810);
#1484=AXIS2_PLACEMENT_3D('',#2241,#1811,#1812);
#1485=AXIS2_PLACEMENT_3D('',#2242,#1813,#1814);
#1486=AXIS2_PLACEMENT_3D('',#2243,#1815,#1816);
#1487=AXIS2_PLACEMENT_3D('',#2244,#1817,#1818);
#1488=AXIS2_PLACEMENT_3D('',#2245,#1819,#1820);
#1489=AXIS2_PLACEMENT_3D('',#2246,#1821,#1822);
#1490=AXIS2_PLACEMENT_3D('',#2249,#1825,#1826);
#1491=AXIS2_PLACEMENT_3D('',#2251,#1828,#1829);
#1492=AXIS2_PLACEMENT_3D('',#2253,#1831,#1832);
#1493=AXIS2_PLACEMENT_3D('',#2255,#1834,#1835);
#1494=AXIS2_PLACEMENT_3D('',#2257,#1837,#1838);
#1495=AXIS2_PLACEMENT_3D('',#2259,#1840,#1841);
#1496=AXIS2_PLACEMENT_3D('',#2261,#1843,#1844);
#1497=AXIS2_PLACEMENT_3D('',#2262,#1845,#1846);
#1498=AXIS2_PLACEMENT_3D('',#2264,#1848,#1849);
#1499=AXIS2_PLACEMENT_3D('',#2266,#1851,#1852);
#1500=AXIS2_PLACEMENT_3D('',#2268,#1854,#1855);
#1501=AXIS2_PLACEMENT_3D('',#2270,#1857,#1858);
#1502=AXIS2_PLACEMENT_3D('',#2273,#1861,#1862);
#1503=AXIS2_PLACEMENT_3D('',#2276,#1865,#1866);
#1504=AXIS2_PLACEMENT_3D('',#2278,#1868,#1869);
#1505=AXIS2_PLACEMENT_3D('',#2280,#1871,#1872);
#1506=AXIS2_PLACEMENT_3D('',#2282,#1874,#1875);
#1507=AXIS2_PLACEMENT_3D('',#2284,#1877,#1878);
#1508=AXIS2_PLACEMENT_3D('',#2286,#1880,#1881);
#1509=AXIS2_PLACEMENT_3D('',#2288,#1883,#1884);
#1510=AXIS2_PLACEMENT_3D('',#2291,#1887,#1888);
#1511=AXIS2_PLACEMENT_3D('',#2293,#1890,#1891);
#1512=AXIS2_PLACEMENT_3D('',#2295,#1893,#1894);
#1513=AXIS2_PLACEMENT_3D('',#2297,#1896,#1897);
#1514=AXIS2_PLACEMENT_3D('',#2299,#1899,#1900);
#1515=AXIS2_PLACEMENT_3D('',#2301,#1902,#1903);
#1516=AXIS2_PLACEMENT_3D('',#2303,#1905,#1906);
#1517=AXIS2_PLACEMENT_3D('',#2305,#1908,#1909);
#1518=AXIS2_PLACEMENT_3D('',#2307,#1911,#1912);
#1519=AXIS2_PLACEMENT_3D('',#2309,#1914,#1915);
#1520=AXIS2_PLACEMENT_3D('',#2311,#1917,#1918);
#1521=AXIS2_PLACEMENT_3D('',#2312,#1919,#1920);
#1522=AXIS2_PLACEMENT_3D('',#2313,#1921,#1922);
#1523=DIRECTION('',(0.,0.,1.));
#1524=DIRECTION('',(1.,0.,0.));
#1525=DIRECTION('',(1.,0.,0.));
#1526=DIRECTION('',(0.,0.,-1.));
#1527=DIRECTION('',(0.,0.,-1.));
#1528=DIRECTION('',(0.,-0.707106781186548,0.707106781186547));
#1529=DIRECTION('',(0.,-1.,0.));
#1530=DIRECTION('',(0.,0.,-1.));
#1531=DIRECTION('',(0.,-1.,0.));
#1532=DIRECTION('',(1.,0.,0.));
#1533=DIRECTION('',(0.,0.,-1.));
#1534=DIRECTION('',(0.,-0.763762615825974,0.645497224367903));
#1535=DIRECTION('',(-1.,0.,0.));
#1536=DIRECTION('',(0.,0.,1.));
#1537=DIRECTION('',(0.,1.,0.));
#1538=DIRECTION('',(0.,0.707106781186548,0.707106781186547));
#1539=DIRECTION('',(0.,0.,-1.));
#1540=DIRECTION('',(0.,-0.763762615825975,-0.645497224367902));
#1541=DIRECTION('',(-1.,0.,0.));
#1542=DIRECTION('',(0.,0.,1.));
#1543=DIRECTION('',(0.,1.,0.));
#1544=DIRECTION('',(0.,0.,-1.));
#1545=DIRECTION('',(-1.,0.,0.));
#1546=DIRECTION('',(0.,0.,1.));
#1547=DIRECTION('',(0.,0.,-1.));
#1548=DIRECTION('',(0.,-0.707106781186548,-0.707106781186547));
#1549=DIRECTION('',(0.,1.,0.));
#1550=DIRECTION('',(0.,0.,-1.));
#1551=DIRECTION('',(0.,1.,0.));
#1552=DIRECTION('',(-1.,0.,0.));
#1553=DIRECTION('',(0.,0.,1.));
#1554=DIRECTION('',(0.,0.763762615825975,0.645497224367902));
#1555=DIRECTION('',(0.,0.,1.));
#1556=DIRECTION('',(1.,0.,0.));
#1557=DIRECTION('',(0.,0.,1.));
#1558=DIRECTION('',(1.,0.,0.));
#1559=DIRECTION('',(0.,1.,0.));
#1560=DIRECTION('',(0.,0.,1.));
#1561=DIRECTION('',(1.,0.,0.));
#1562=DIRECTION('',(1.,0.,0.));
#1563=DIRECTION('',(0.,0.,1.));
#1564=DIRECTION('',(1.,0.,0.));
#1565=DIRECTION('',(0.,-1.,0.));
#1566=DIRECTION('',(0.,0.,1.));
#1567=DIRECTION('',(1.,0.,0.));
#1568=DIRECTION('',(-1.,0.,0.));
#1569=DIRECTION('',(0.,0.,1.));
#1570=DIRECTION('',(1.,0.,0.));
#1571=DIRECTION('',(0.,-1.,0.));
#1572=DIRECTION('',(0.,0.,1.));
#1573=DIRECTION('',(1.,0.,0.));
#1574=DIRECTION('',(1.,0.,0.));
#1575=DIRECTION('',(0.,0.,1.));
#1576=DIRECTION('',(1.,0.,0.));
#1577=DIRECTION('',(0.,1.,0.));
#1578=DIRECTION('',(0.,0.,1.));
#1579=DIRECTION('',(1.,0.,0.));
#1580=DIRECTION('',(-1.,0.,0.));
#1581=DIRECTION('',(1.,0.,0.));
#1582=DIRECTION('',(0.,0.,-1.));
#1583=DIRECTION('',(0.,0.,-1.));
#1584=DIRECTION('',(0.,1.,0.));
#1585=DIRECTION('',(0.,0.,1.));
#1586=DIRECTION('',(0.,-1.,0.));
#1587=DIRECTION('',(0.,-1.,0.));
#1588=DIRECTION('',(0.,0.,-1.));
#1589=DIRECTION('',(1.,0.,0.));
#1590=DIRECTION('',(0.,0.,-1.));
#1591=DIRECTION('',(1.,0.,0.));
#1592=DIRECTION('',(0.,0.,-1.));
#1593=DIRECTION('',(-1.,0.,0.));
#1594=DIRECTION('',(0.,0.,1.));
#1595=DIRECTION('',(1.,0.,0.));
#1596=DIRECTION('',(1.,0.,0.));
#1597=DIRECTION('',(0.,0.,-1.));
#1598=DIRECTION('',(0.,-1.,0.));
#1599=DIRECTION('',(0.,0.707106781186548,-0.707106781186547));
#1600=DIRECTION('',(0.,0.763762615825974,-0.645497224367903));
#1601=DIRECTION('',(1.,0.,0.));
#1602=DIRECTION('',(0.,0.,1.));
#1603=DIRECTION('',(0.,-1.,0.));
#1604=DIRECTION('',(0.,0.,-1.));
#1605=DIRECTION('',(0.,1.,0.));
#1606=DIRECTION('',(0.,0.,1.));
#1607=DIRECTION('',(1.,0.,0.));
#1608=DIRECTION('',(1.,0.,0.));
#1609=DIRECTION('',(-1.,0.,0.));
#1610=DIRECTION('',(0.,0.,1.));
#1611=DIRECTION('',(0.,0.,-1.));
#1612=DIRECTION('',(0.,-1.,0.));
#1613=DIRECTION('',(0.,0.,1.));
#1614=DIRECTION('',(0.,1.,0.));
#1615=DIRECTION('',(0.,1.,0.));
#1616=DIRECTION('',(0.,0.,1.));
#1617=DIRECTION('',(1.,0.,0.));
#1618=DIRECTION('',(1.,0.,0.));
#1619=DIRECTION('',(-1.,0.,0.));
#1620=DIRECTION('',(0.,0.,1.));
#1621=DIRECTION('',(0.,0.,-1.));
#1622=DIRECTION('',(0.,-1.,0.));
#1623=DIRECTION('',(0.,0.,-1.));
#1624=DIRECTION('',(0.,1.,0.));
#1625=DIRECTION('',(0.,0.,-1.));
#1626=DIRECTION('',(-1.,0.,0.));
#1627=DIRECTION('',(0.,0.,-1.));
#1628=DIRECTION('',(0.,0.,1.));
#1629=DIRECTION('',(1.,0.,0.));
#1630=DIRECTION('',(0.,0.,1.));
#1631=DIRECTION('',(1.,0.,0.));
#1632=DIRECTION('',(0.,1.,0.));
#1633=DIRECTION('',(0.,0.,1.));
#1634=DIRECTION('',(0.,0.,-1.));
#1635=DIRECTION('',(-1.,0.,0.));
#1636=DIRECTION('',(1.,0.,0.));
#1637=DIRECTION('',(0.,0.,-1.));
#1638=DIRECTION('',(-1.,0.,0.));
#1639=DIRECTION('',(0.,0.,-1.));
#1640=DIRECTION('',(0.,0.,1.));
#1641=DIRECTION('',(1.,0.,0.));
#1642=DIRECTION('',(0.,0.,1.));
#1643=DIRECTION('',(1.,0.,0.));
#1644=DIRECTION('',(1.,0.,0.));
#1645=DIRECTION('',(0.,0.,-1.));
#1646=DIRECTION('',(0.,0.,-1.));
#1647=DIRECTION('',(0.,1.,0.));
#1648=DIRECTION('',(0.,-1.,0.));
#1649=DIRECTION('',(0.,0.,-1.));
#1650=DIRECTION('',(-1.,0.,0.));
#1651=DIRECTION('',(0.,0.,-1.));
#1652=DIRECTION('',(0.,0.,1.));
#1653=DIRECTION('',(1.,0.,0.));
#1654=DIRECTION('',(0.,0.,1.));
#1655=DIRECTION('',(1.,0.,0.));
#1656=DIRECTION('',(0.,-1.,0.));
#1657=DIRECTION('',(0.,0.,-1.));
#1658=DIRECTION('',(0.,0.,-1.));
#1659=DIRECTION('',(1.,0.,0.));
#1660=DIRECTION('',(-1.,0.,0.));
#1661=DIRECTION('',(0.,0.,-1.));
#1662=DIRECTION('',(-1.,0.,0.));
#1663=DIRECTION('',(0.,0.,1.));
#1664=DIRECTION('',(1.,0.,0.));
#1665=DIRECTION('',(0.,0.,1.));
#1666=DIRECTION('',(1.,0.,0.));
#1667=DIRECTION('',(0.,-1.,0.));
#1668=DIRECTION('',(0.,0.,-1.));
#1669=DIRECTION('',(-1.,0.,0.));
#1670=DIRECTION('',(-1.,0.,0.));
#1671=DIRECTION('',(0.,0.,-1.));
#1672=DIRECTION('',(1.,0.,0.));
#1673=DIRECTION('',(0.,0.,1.));
#1674=DIRECTION('',(-1.,0.,0.));
#1675=DIRECTION('',(0.,0.,1.));
#1676=DIRECTION('',(1.,0.,0.));
#1677=DIRECTION('',(1.,0.,0.));
#1678=DIRECTION('',(0.,1.,0.));
#1679=DIRECTION('',(-1.,0.,0.));
#1680=DIRECTION('',(-1.,0.,0.));
#1681=DIRECTION('',(0.,-1.,0.));
#1682=DIRECTION('',(1.,0.,0.));
#1683=DIRECTION('',(0.,0.,1.));
#1684=DIRECTION('',(1.,0.,0.));
#1685=DIRECTION('',(-1.,0.,0.));
#1686=DIRECTION('',(0.,0.,1.));
#1687=DIRECTION('',(1.,0.,0.));
#1688=DIRECTION('',(0.,1.,0.));
#1689=DIRECTION('',(0.,0.,1.));
#1690=DIRECTION('',(1.,0.,0.));
#1691=DIRECTION('',(1.,0.,0.));
#1692=DIRECTION('',(0.,0.,1.));
#1693=DIRECTION('',(1.,0.,0.));
#1694=DIRECTION('',(0.,-1.,0.));
#1695=DIRECTION('',(0.,0.,1.));
#1696=DIRECTION('',(1.,0.,0.));
#1697=DIRECTION('',(0.,0.,1.));
#1698=DIRECTION('',(1.,0.,0.));
#1699=DIRECTION('',(-1.,0.,0.));
#1700=DIRECTION('',(0.,0.,1.));
#1701=DIRECTION('',(1.,0.,0.));
#1702=DIRECTION('',(0.,1.,0.));
#1703=DIRECTION('',(0.,0.,1.));
#1704=DIRECTION('',(1.,0.,0.));
#1705=DIRECTION('',(1.,0.,0.));
#1706=DIRECTION('',(0.,0.,1.));
#1707=DIRECTION('',(1.,0.,0.));
#1708=DIRECTION('',(0.,-1.,0.));
#1709=DIRECTION('',(0.,0.,-1.));
#1710=DIRECTION('',(-1.,0.,0.));
#1711=DIRECTION('',(0.,0.,-1.));
#1712=DIRECTION('',(0.,0.,-1.));
#1713=DIRECTION('',(1.,0.,0.));
#1714=DIRECTION('',(0.,0.,-1.));
#1715=DIRECTION('',(0.,0.,-1.));
#1716=DIRECTION('',(0.,0.,-1.));
#1717=DIRECTION('',(-1.,0.,0.));
#1718=DIRECTION('',(0.,0.,-1.));
#1719=DIRECTION('',(0.,1.,0.));
#1720=DIRECTION('',(0.,0.,1.));
#1721=DIRECTION('',(0.,0.,-1.));
#1722=DIRECTION('',(0.,0.,-1.));
#1723=DIRECTION('',(-1.,0.,0.));
#1724=DIRECTION('',(0.,0.,-1.));
#1725=DIRECTION('',(-1.,0.,0.));
#1726=DIRECTION('',(0.,0.,1.));
#1727=DIRECTION('',(0.,0.,-1.));
#1728=DIRECTION('',(0.,0.,-1.));
#1729=DIRECTION('',(-1.,0.,0.));
#1730=DIRECTION('',(0.,0.,-1.));
#1731=DIRECTION('',(0.,-1.,0.));
#1732=DIRECTION('',(0.,0.,-1.));
#1733=DIRECTION('',(0.998629534754574,0.,0.0523359562429438));
#1734=DIRECTION('',(-0.0523359562429438,0.,0.998629534754574));
#1735=DIRECTION('',(0.0523359562429438,-7.5657009943608E-18,-0.998629534754574));
#1736=DIRECTION('',(0.,1.,0.));
#1737=DIRECTION('',(0.0523359562429438,0.,-0.998629534754574));
#1738=DIRECTION('',(0.,0.,1.));
#1739=DIRECTION('',(1.,0.,0.));
#1740=DIRECTION('',(0.,0.,-1.));
#1741=DIRECTION('',(-1.,0.,0.));
#1742=DIRECTION('',(5.6742757457706E-17,-0.0523359562429438,-0.998629534754574));
#1743=DIRECTION('',(0.,-0.998629534754574,0.0523359562429438));
#1744=DIRECTION('',(0.,0.0523359562429438,0.998629534754574));
#1745=DIRECTION('',(1.,0.,0.));
#1746=DIRECTION('',(0.,-0.0523359562429438,-0.998629534754574));
#1747=DIRECTION('',(0.,0.,1.));
#1748=DIRECTION('',(1.,0.,0.));
#1749=DIRECTION('',(0.,0.,-1.));
#1750=DIRECTION('',(-1.,0.,0.));
#1751=DIRECTION('',(-0.0523359562429438,0.,-0.998629534754574));
#1752=DIRECTION('',(-0.998629534754574,0.,0.0523359562429438));
#1753=DIRECTION('',(0.0523359562429438,0.,0.998629534754574));
#1754=DIRECTION('',(0.,1.,0.));
#1755=DIRECTION('',(-0.0523359562429438,0.,-0.998629534754574));
#1756=DIRECTION('',(0.,0.,1.));
#1757=DIRECTION('',(1.,0.,0.));
#1758=DIRECTION('',(0.,0.,-1.));
#1759=DIRECTION('',(-1.,0.,0.));
#1760=DIRECTION('',(0.,0.0523359562429438,-0.998629534754574));
#1761=DIRECTION('',(0.,0.998629534754574,0.0523359562429438));
#1762=DIRECTION('',(0.,-0.0523359562429438,0.998629534754574));
#1763=DIRECTION('',(1.,0.,0.));
#1764=DIRECTION('',(0.,0.0523359562429438,-0.998629534754574));
#1765=DIRECTION('',(0.,0.,1.));
#1766=DIRECTION('',(1.,0.,0.));
#1767=DIRECTION('',(0.,0.,-1.));
#1768=DIRECTION('',(-1.,0.,0.));
#1769=DIRECTION('',(0.,0.,1.));
#1770=DIRECTION('',(1.,0.,0.));
#1771=DIRECTION('',(1.,0.,0.));
#1772=DIRECTION('',(0.,-1.,0.));
#1773=DIRECTION('',(-1.,0.,0.));
#1774=DIRECTION('',(0.,1.,0.));
#1775=DIRECTION('',(1.,0.,0.));
#1776=DIRECTION('',(1.,0.,0.));
#1777=DIRECTION('',(0.,1.,0.));
#1778=DIRECTION('',(0.,0.,1.));
#1779=DIRECTION('',(1.,0.,0.));
#1780=DIRECTION('',(-1.,0.,0.));
#1781=DIRECTION('',(0.,0.,1.));
#1782=DIRECTION('',(1.,0.,0.));
#1783=DIRECTION('',(0.,-1.,0.));
#1784=DIRECTION('',(0.,0.,1.));
#1785=DIRECTION('',(1.,0.,0.));
#1786=DIRECTION('',(1.,0.,0.));
#1787=DIRECTION('',(0.,0.,1.));
#1788=DIRECTION('',(1.,0.,0.));
#1789=DIRECTION('',(0.,0.,1.));
#1790=DIRECTION('',(1.,0.,0.));
#1791=DIRECTION('',(0.,-1.,0.));
#1792=DIRECTION('',(0.,0.,-1.));
#1793=DIRECTION('',(-1.,0.,0.));
#1794=DIRECTION('',(0.,0.,1.));
#1795=DIRECTION('',(-1.,0.,0.));
#1796=DIRECTION('',(0.,0.,1.));
#1797=DIRECTION('',(-1.,-8.68552058398281E-16,0.));
#1798=DIRECTION('',(8.68552058398281E-16,-1.,0.));
#1799=DIRECTION('',(0.,-1.,0.));
#1800=DIRECTION('',(0.,0.,-1.));
#1801=DIRECTION('',(0.,-1.,0.));
#1802=DIRECTION('',(0.,0.,-1.));
#1803=DIRECTION('',(0.,0.,1.));
#1804=DIRECTION('',(1.,0.,0.));
#1805=DIRECTION('',(0.,-1.,0.));
#1806=DIRECTION('',(0.,0.,-1.));
#1807=DIRECTION('',(0.,0.,1.));
#1808=DIRECTION('',(1.,0.,0.));
#1809=DIRECTION('',(-1.,0.,0.));
#1810=DIRECTION('',(0.,0.,1.));
#1811=DIRECTION('',(0.,-1.,0.));
#1812=DIRECTION('',(0.,0.,-1.));
#1813=DIRECTION('',(0.,-1.,0.));
#1814=DIRECTION('',(0.,0.,-1.));
#1815=DIRECTION('',(-1.,0.,0.));
#1816=DIRECTION('',(0.,0.,1.));
#1817=DIRECTION('',(-1.,4.54565025230513E-17,-8.67361737988404E-16));
#1818=DIRECTION('',(-8.67361737988404E-16,0.,1.));
#1819=DIRECTION('',(0.,0.,1.));
#1820=DIRECTION('',(1.,0.,0.));
#1821=DIRECTION('',(0.,-0.707106781186547,0.707106781186548));
#1822=DIRECTION('',(-1.,0.,0.));
#1823=DIRECTION('',(1.61582506947163E-17,0.707106781186548,0.707106781186547));
#1824=DIRECTION('',(0.,-0.707106781186548,-0.707106781186547));
#1825=DIRECTION('',(0.,0.,1.));
#1826=DIRECTION('',(1.,0.,0.));
#1827=DIRECTION('',(-0.707106781186548,0.,-0.707106781186547));
#1828=DIRECTION('',(0.,0.,1.));
#1829=DIRECTION('',(1.,0.,0.));
#1830=DIRECTION('',(-0.707106781186547,0.,0.707106781186548));
#1831=DIRECTION('',(-0.707106781186547,0.,0.707106781186548));
#1832=DIRECTION('',(0.,1.,0.));
#1833=DIRECTION('',(-0.707106781186548,0.,-0.707106781186547));
#1834=DIRECTION('',(0.707106781186548,0.,0.707106781186547));
#1835=DIRECTION('',(0.,-1.,0.));
#1836=DIRECTION('',(-0.707106781186547,-2.97161694112431E-17,0.707106781186548));
#1837=DIRECTION('',(0.,0.,1.));
#1838=DIRECTION('',(1.,0.,0.));
#1839=DIRECTION('',(0.,0.707106781186548,-0.707106781186548));
#1840=DIRECTION('',(0.,0.,1.));
#1841=DIRECTION('',(1.,0.,0.));
#1842=DIRECTION('',(-9.29714444213583E-32,-0.707106781186548,0.707106781186548));
#1843=DIRECTION('',(0.,0.707106781186548,0.707106781186547));
#1844=DIRECTION('',(1.,0.,0.));
#1845=DIRECTION('',(1.,0.,0.));
#1846=DIRECTION('',(0.,0.,-1.));
#1847=DIRECTION('',(1.,0.,0.));
#1848=DIRECTION('',(1.,0.,0.));
#1849=DIRECTION('',(0.,0.,-1.));
#1850=DIRECTION('',(1.,0.,0.));
#1851=DIRECTION('',(0.,0.707106781186547,0.707106781186548));
#1852=DIRECTION('',(-1.,0.,0.));
#1853=DIRECTION('',(-1.92296268638356E-16,0.707106781186548,-0.707106781186547));
#1854=DIRECTION('',(0.,0.707106781186547,0.707106781186548));
#1855=DIRECTION('',(1.,0.,0.));
#1856=DIRECTION('',(0.,-0.707106781186548,0.707106781186547));
#1857=DIRECTION('',(-0.577350269189626,0.577350269189625,0.577350269189626));
#1858=DIRECTION('',(0.707106781186547,0.,0.707106781186548));
#1859=DIRECTION('',(-0.707106781186547,-2.77555756156289E-17,-0.707106781186548));
#1860=DIRECTION('',(-0.707106781186547,-0.707106781186548,-1.19609907444043E-16));
#1861=DIRECTION('',(0.577350269189626,0.577350269189626,0.577350269189626));
#1862=DIRECTION('',(0.707106781186548,0.,-0.707106781186547));
#1863=DIRECTION('',(-0.707106781186548,0.707106781186548,0.));
#1864=DIRECTION('',(-0.707106781186548,0.,0.707106781186547));
#1865=DIRECTION('',(-0.707106781186548,0.707106781186547,0.));
#1866=DIRECTION('',(0.,0.,1.));
#1867=DIRECTION('',(0.707106781186547,0.707106781186548,-1.19609907444043E-16));
#1868=DIRECTION('',(0.707106781186548,0.,-0.707106781186547));
#1869=DIRECTION('',(0.,1.,0.));
#1870=DIRECTION('',(0.707106781186547,-2.77555756156289E-17,0.707106781186548));
#1871=DIRECTION('',(0.,0.707106781186547,-0.707106781186548));
#1872=DIRECTION('',(1.,0.,0.));
#1873=DIRECTION('',(-1.92296268638356E-16,-0.707106781186548,-0.707106781186547));
#1874=DIRECTION('',(0.,0.707106781186547,-0.707106781186548));
#1875=DIRECTION('',(-1.,0.,0.));
#1876=DIRECTION('',(0.,0.707106781186548,0.707106781186547));
#1877=DIRECTION('',(-0.707106781186547,0.,-0.707106781186548));
#1878=DIRECTION('',(0.,-1.,0.));
#1879=DIRECTION('',(0.707106781186548,0.,-0.707106781186547));
#1880=DIRECTION('',(0.707106781186548,0.707106781186548,0.));
#1881=DIRECTION('',(0.,0.,1.));
#1882=DIRECTION('',(0.707106781186548,-0.707106781186548,0.));
#1883=DIRECTION('',(0.,-0.707106781186547,0.707106781186548));
#1884=DIRECTION('',(-1.,0.,0.));
#1885=DIRECTION('',(-1.92296268638356E-16,0.707106781186548,0.707106781186547));
#1886=DIRECTION('',(0.,-0.707106781186548,-0.707106781186547));
#1887=DIRECTION('',(-0.577350269189626,0.577350269189625,-0.577350269189626));
#1888=DIRECTION('',(-0.707106781186547,0.,0.707106781186548));
#1889=DIRECTION('',(-0.707106781186547,-2.77555756156289E-17,0.707106781186548));
#1890=DIRECTION('',(-0.577350269189626,-0.577350269189625,0.577350269189626));
#1891=DIRECTION('',(0.707106781186547,0.,0.707106781186548));
#1892=DIRECTION('',(-0.707106781186547,0.707106781186548,-1.19609907444043E-16));
#1893=DIRECTION('',(0.577350269189626,-0.577350269189626,0.577350269189626));
#1894=DIRECTION('',(0.707106781186548,0.,-0.707106781186547));
#1895=DIRECTION('',(-0.707106781186548,-0.707106781186548,0.));
#1896=DIRECTION('',(0.577350269189626,0.577350269189626,-0.577350269189626));
#1897=DIRECTION('',(-0.707106781186548,0.,-0.707106781186547));
#1898=DIRECTION('',(-0.707106781186548,0.,-0.707106781186547));
#1899=DIRECTION('',(-0.707106781186548,0.,-0.707106781186547));
#1900=DIRECTION('',(0.,-1.,0.));
#1901=DIRECTION('',(0.707106781186547,-2.77555756156289E-17,-0.707106781186548));
#1902=DIRECTION('',(0.707106781186548,0.707106781186547,0.));
#1903=DIRECTION('',(0.,0.,-1.));
#1904=DIRECTION('',(0.707106781186547,-0.707106781186548,-1.19609907444043E-16));
#1905=DIRECTION('',(-0.707106781186548,0.707106781186548,0.));
#1906=DIRECTION('',(0.,0.,-1.));
#1907=DIRECTION('',(0.707106781186548,0.707106781186548,0.));
#1908=DIRECTION('',(0.707106781186547,0.,-0.707106781186548));
#1909=DIRECTION('',(0.,1.,0.));
#1910=DIRECTION('',(0.707106781186548,0.,0.707106781186547));
#1911=DIRECTION('',(-0.577350269189626,-0.577350269189625,-0.577350269189626));
#1912=DIRECTION('',(-0.707106781186547,0.,0.707106781186548));
#1913=DIRECTION('',(-1.92296268638356E-16,-0.707106781186548,0.707106781186547));
#1914=DIRECTION('',(0.577350269189626,-0.577350269189626,-0.577350269189626));
#1915=DIRECTION('',(-0.707106781186548,0.,-0.707106781186547));
#1916=DIRECTION('',(0.,0.707106781186548,-0.707106781186547));
#1917=DIRECTION('',(0.,-0.707106781186547,-0.707106781186548));
#1918=DIRECTION('',(-1.,0.,0.));
#1919=DIRECTION('',(0.,-0.645497224367903,-0.763762615825973));
#1920=DIRECTION('',(1.,0.,0.));
#1921=DIRECTION('',(0.,0.645497224367902,-0.763762615825974));
#1922=DIRECTION('',(1.,0.,0.));
#1923=CARTESIAN_POINT('',(0.,0.,0.));
#1924=CARTESIAN_POINT('',(-0.005,0.028,0.0031));
#1925=CARTESIAN_POINT('',(-0.005,0.032,0.0031));
#1926=CARTESIAN_POINT('',(-0.005,0.032,0.0021));
#1927=CARTESIAN_POINT('',(-0.005,0.032,-0.002));
#1928=CARTESIAN_POINT('',(-0.005,0.0295,0.0046));
#1929=CARTESIAN_POINT('',(-0.005,0.031,0.0031));
#1930=CARTESIAN_POINT('',(-0.005,0.028,0.0031));
#1931=CARTESIAN_POINT('',(-0.005,0.024,0.0031));
#1932=CARTESIAN_POINT('',(-0.005,0.024,0.0031));
#1933=CARTESIAN_POINT('',(-0.005,0.024,-0.004));
#1934=CARTESIAN_POINT('',(-0.005,0.028,-0.004));
#1935=CARTESIAN_POINT('',(-0.005,0.029,-0.004));
#1936=CARTESIAN_POINT('',(-0.005,0.032,-0.004));
#1937=CARTESIAN_POINT('',(-0.005,0.0310139867028167,-0.00116666666666667));
#1938=CARTESIAN_POINT('',(-0.005,0.032,-0.002));
#1939=CARTESIAN_POINT('',(-0.005,-0.014,0.0031));
#1940=CARTESIAN_POINT('',(-0.005,-0.014,0.0031));
#1941=CARTESIAN_POINT('',(-0.005,-0.017,0.0031));
#1942=CARTESIAN_POINT('',(-0.005,-0.01,0.0031));
#1943=CARTESIAN_POINT('',(-0.005,-0.017,0.0031));
#1944=CARTESIAN_POINT('',(-0.005,-0.018,0.0021));
#1945=CARTESIAN_POINT('',(-0.005,-0.018,0.0031));
#1946=CARTESIAN_POINT('',(-0.005,-0.018,-0.002));
#1947=CARTESIAN_POINT('',(-0.005,-0.0131523327588493,0.00209702659436653));
#1948=CARTESIAN_POINT('',(-0.005,-0.0170139867028168,-0.00116666666666667));
#1949=CARTESIAN_POINT('',(-0.005,-0.018,-0.004));
#1950=CARTESIAN_POINT('',(-0.005,-0.015,-0.004));
#1951=CARTESIAN_POINT('',(-0.005,-0.014,-0.004));
#1952=CARTESIAN_POINT('',(-0.005,-0.01,-0.004));
#1953=CARTESIAN_POINT('',(-0.005,-0.01,0.0031));
#1954=CARTESIAN_POINT('',(0.019,-0.014,0.0031));
#1955=CARTESIAN_POINT('',(0.019,-0.018,0.0031));
#1956=CARTESIAN_POINT('',(0.019,-0.018,0.0021));
#1957=CARTESIAN_POINT('',(0.019,-0.018,-0.002));
#1958=CARTESIAN_POINT('',(0.019,-0.0155,0.0046));
#1959=CARTESIAN_POINT('',(0.019,-0.017,0.0031));
#1960=CARTESIAN_POINT('',(0.019,-0.014,0.0031));
#1961=CARTESIAN_POINT('',(0.019,-0.01,0.0031));
#1962=CARTESIAN_POINT('',(0.019,-0.01,0.0031));
#1963=CARTESIAN_POINT('',(0.019,-0.01,-0.004));
#1964=CARTESIAN_POINT('',(0.019,-0.014,-0.004));
#1965=CARTESIAN_POINT('',(0.019,-0.015,-0.004));
#1966=CARTESIAN_POINT('',(0.019,-0.018,-0.004));
#1967=CARTESIAN_POINT('',(0.019,-0.0170139867028168,-0.00116666666666667));
#1968=CARTESIAN_POINT('',(0.019,-0.0170139867028168,-0.00116666666666667));
#1969=CARTESIAN_POINT('',(0.007,0.007,0.));
#1970=CARTESIAN_POINT('',(-0.002,-0.002,0.));
#1971=CARTESIAN_POINT('',(-0.008,-0.002,0.));
#1972=CARTESIAN_POINT('',(-0.002,-0.008,0.));
#1973=CARTESIAN_POINT('',(-0.008,0.007,0.));
#1974=CARTESIAN_POINT('',(-0.008,0.016,0.));
#1975=CARTESIAN_POINT('',(-0.002,0.016,0.));
#1976=CARTESIAN_POINT('',(-0.002,0.022,0.));
#1977=CARTESIAN_POINT('',(0.007,0.022,0.));
#1978=CARTESIAN_POINT('',(0.016,0.022,0.));
#1979=CARTESIAN_POINT('',(0.016,0.016,0.));
#1980=CARTESIAN_POINT('',(0.022,0.016,0.));
#1981=CARTESIAN_POINT('',(0.022,0.007,0.));
#1982=CARTESIAN_POINT('',(0.022,-0.002,0.));
#1983=CARTESIAN_POINT('',(0.016,-0.002,0.));
#1984=CARTESIAN_POINT('',(0.016,-0.008,0.));
#1985=CARTESIAN_POINT('',(0.007,-0.008,0.));
#1986=CARTESIAN_POINT('',(1.99005104861445E-19,0.014,0.));
#1987=CARTESIAN_POINT('',(0.,0.0205,0.));
#1988=CARTESIAN_POINT('',(-0.0065,0.014,0.));
#1989=CARTESIAN_POINT('',(-0.0065,0.007,0.));
#1990=CARTESIAN_POINT('',(-0.0065,7.9602041944578E-19,0.));
#1991=CARTESIAN_POINT('',(5.77005106740744E-19,8.31691078717092E-19,0.));
#1992=CARTESIAN_POINT('',(0.,-0.0065,0.));
#1993=CARTESIAN_POINT('',(0.007,-0.0065,0.));
#1994=CARTESIAN_POINT('',(0.014,-0.0065,0.));
#1995=CARTESIAN_POINT('',(0.014,7.04731412115578E-19,0.));
#1996=CARTESIAN_POINT('',(0.0205,5.42101086242752E-19,0.));
#1997=CARTESIAN_POINT('',(0.0205,0.007,0.));
#1998=CARTESIAN_POINT('',(0.0205,0.014,0.));
#1999=CARTESIAN_POINT('',(0.014,0.014,0.));
#2000=CARTESIAN_POINT('',(0.014,0.0205,0.));
#2001=CARTESIAN_POINT('',(0.007,0.0205,0.));
#2002=CARTESIAN_POINT('',(0.024,-0.006,0.0031));
#2003=CARTESIAN_POINT('',(0.024,-0.017,0.0031));
#2004=CARTESIAN_POINT('',(0.024,-0.017,0.0021));
#2005=CARTESIAN_POINT('',(0.024,-0.017,-0.003));
#2006=CARTESIAN_POINT('',(0.024,0.032,-0.003));
#2007=CARTESIAN_POINT('',(0.024,0.031,-0.003));
#2008=CARTESIAN_POINT('',(0.024,0.031,0.0031));
#2009=CARTESIAN_POINT('',(0.024,0.031,0.0021));
#2010=CARTESIAN_POINT('',(0.024,-0.006,0.0021));
#2011=CARTESIAN_POINT('',(0.0215,0.032,0.0031));
#2012=CARTESIAN_POINT('',(0.019,0.032,-0.002));
#2013=CARTESIAN_POINT('',(0.019,0.032,-0.002));
#2014=CARTESIAN_POINT('',(0.019,0.032,0.0031));
#2015=CARTESIAN_POINT('',(0.019,0.032,0.0021));
#2016=CARTESIAN_POINT('',(0.024,0.032,0.0021));
#2017=CARTESIAN_POINT('',(0.023,0.032,0.0021));
#2018=CARTESIAN_POINT('',(0.023,0.032,-0.004));
#2019=CARTESIAN_POINT('',(0.023,0.032,-0.003));
#2020=CARTESIAN_POINT('',(0.0215,0.032,-0.003));
#2021=CARTESIAN_POINT('',(-0.009,0.032,-0.003));
#2022=CARTESIAN_POINT('',(-0.009,0.032,0.0031));
#2023=CARTESIAN_POINT('',(-0.009,0.032,0.0021));
#2024=CARTESIAN_POINT('',(-0.005,0.032,0.0021));
#2025=CARTESIAN_POINT('',(0.019,0.028,0.0031));
#2026=CARTESIAN_POINT('',(0.019,0.028,0.0031));
#2027=CARTESIAN_POINT('',(0.019,0.031,0.0031));
#2028=CARTESIAN_POINT('',(0.019,0.024,0.0031));
#2029=CARTESIAN_POINT('',(0.019,0.031,0.0031));
#2030=CARTESIAN_POINT('',(0.019,0.0271523327588493,0.00209702659436654));
#2031=CARTESIAN_POINT('',(0.019,0.0310139867028167,-0.00116666666666667));
#2032=CARTESIAN_POINT('',(0.019,0.032,-0.004));
#2033=CARTESIAN_POINT('',(0.019,0.029,-0.004));
#2034=CARTESIAN_POINT('',(0.019,0.028,-0.004));
#2035=CARTESIAN_POINT('',(0.019,0.024,-0.004));
#2036=CARTESIAN_POINT('',(0.019,0.024,0.0031));
#2037=CARTESIAN_POINT('',(0.0175,0.024,0.0031));
#2038=CARTESIAN_POINT('',(0.0175,0.024,-0.004));
#2039=CARTESIAN_POINT('',(0.0175,0.024,0.0031));
#2040=CARTESIAN_POINT('',(-0.01,0.02,0.0031));
#2041=CARTESIAN_POINT('',(-0.01,0.031,-0.004));
#2042=CARTESIAN_POINT('',(-0.01,0.031,0.0021));
#2043=CARTESIAN_POINT('',(-0.01,0.031,-0.003));
#2044=CARTESIAN_POINT('',(-0.01,-0.018,-0.003));
#2045=CARTESIAN_POINT('',(-0.01,-0.017,-0.003));
#2046=CARTESIAN_POINT('',(-0.01,-0.017,0.0031));
#2047=CARTESIAN_POINT('',(-0.01,-0.017,0.0021));
#2048=CARTESIAN_POINT('',(-0.01,0.02,0.0021));
#2049=CARTESIAN_POINT('',(-0.0035,-0.01,0.0031));
#2050=CARTESIAN_POINT('',(-0.0035,-0.01,-0.004));
#2051=CARTESIAN_POINT('',(-0.0035,-0.01,0.0031));
#2052=CARTESIAN_POINT('',(-0.0042,0.007,0.0031));
#2053=CARTESIAN_POINT('',(-0.0042,0.014,0.0031));
#2054=CARTESIAN_POINT('',(-0.0042,0.014,0.0021));
#2055=CARTESIAN_POINT('',(-0.0042,0.014,0.0014));
#2056=CARTESIAN_POINT('',(-0.0042,5.14351655641888E-19,0.0021));
#2057=CARTESIAN_POINT('',(-0.0042,5.14351655641888E-19,0.0021));
#2058=CARTESIAN_POINT('',(-0.0042,5.14351655641888E-19,0.0031));
#2059=CARTESIAN_POINT('',(-0.0042,5.14351655641888E-19,0.0014));
#2060=CARTESIAN_POINT('',(-0.0042,0.007,0.0014));
#2061=CARTESIAN_POINT('',(-7.71386625426296E-19,0.014,0.0031));
#2062=CARTESIAN_POINT('',(-6.75411512864187E-19,0.0182,0.0031));
#2063=CARTESIAN_POINT('',(-6.75411512864187E-19,0.0182,0.0021));
#2064=CARTESIAN_POINT('',(-7.71386625426296E-19,0.0182,0.0014));
#2065=CARTESIAN_POINT('',(-7.71386625426296E-19,0.014,0.0021));
#2066=CARTESIAN_POINT('',(-7.71386625426296E-19,0.014,0.0014));
#2067=CARTESIAN_POINT('',(0.00248042335096249,0.0182,0.0031));
#2068=CARTESIAN_POINT('',(0.014,0.0182,0.0031));
#2069=CARTESIAN_POINT('',(0.014,0.0182,0.0021));
#2070=CARTESIAN_POINT('',(0.014,0.0182,0.0014));
#2071=CARTESIAN_POINT('',(-6.75411512864187E-19,0.0182,0.0021));
#2072=CARTESIAN_POINT('',(0.00248042335096249,0.0182,0.0014));
#2073=CARTESIAN_POINT('',(0.014,0.014,0.0031));
#2074=CARTESIAN_POINT('',(0.0182,0.014,0.0031));
#2075=CARTESIAN_POINT('',(0.0182,0.014,0.0021));
#2076=CARTESIAN_POINT('',(0.0182,0.014,0.0014));
#2077=CARTESIAN_POINT('',(0.014,0.014,0.0021));
#2078=CARTESIAN_POINT('',(0.014,0.014,0.0014));
#2079=CARTESIAN_POINT('',(0.0182,0.0115195766490375,0.0031));
#2080=CARTESIAN_POINT('',(0.0182,0.,0.0031));
#2081=CARTESIAN_POINT('',(0.0182,0.,0.0021));
#2082=CARTESIAN_POINT('',(0.0182,0.,0.0014));
#2083=CARTESIAN_POINT('',(0.0182,0.014,0.0021));
#2084=CARTESIAN_POINT('',(0.0182,0.00248042335096249,0.0014));
#2085=CARTESIAN_POINT('',(0.014,6.12323399573674E-20,0.0031));
#2086=CARTESIAN_POINT('',(0.014,-0.0042,0.0031));
#2087=CARTESIAN_POINT('',(0.014,-0.0042,0.0021));
#2088=CARTESIAN_POINT('',(0.014,-0.0042,0.0014));
#2089=CARTESIAN_POINT('',(0.014,6.12323399573674E-20,0.0021));
#2090=CARTESIAN_POINT('',(0.014,6.12323399573674E-20,0.0014));
#2091=CARTESIAN_POINT('',(0.0024804233509625,-0.0042,0.0031));
#2092=CARTESIAN_POINT('',(0.,-0.0042,0.0031));
#2093=CARTESIAN_POINT('',(0.,-0.0042,0.0021));
#2094=CARTESIAN_POINT('',(0.,-0.0042,0.0014));
#2095=CARTESIAN_POINT('',(0.014,-0.0042,0.0021));
#2096=CARTESIAN_POINT('',(0.007,-0.0042,0.0014));
#2097=CARTESIAN_POINT('',(7.88256679593662E-19,6.90856696815146E-19,0.0031));
#2098=CARTESIAN_POINT('',(7.88256679593662E-19,6.90856696815146E-19,0.0021));
#2099=CARTESIAN_POINT('',(7.88256679593662E-19,0.,0.0014));
#2100=CARTESIAN_POINT('',(0.0215,-0.018,0.0031));
#2101=CARTESIAN_POINT('',(-0.005,-0.018,-0.002));
#2102=CARTESIAN_POINT('',(0.0215,-0.018,0.0021));
#2103=CARTESIAN_POINT('',(-0.009,-0.018,0.0021));
#2104=CARTESIAN_POINT('',(-0.009,-0.018,0.0031));
#2105=CARTESIAN_POINT('',(-0.009,-0.018,-0.003));
#2106=CARTESIAN_POINT('',(0.024,-0.018,-0.003));
#2107=CARTESIAN_POINT('',(0.023,-0.018,-0.003));
#2108=CARTESIAN_POINT('',(0.023,-0.018,0.0031));
#2109=CARTESIAN_POINT('',(0.023,-0.018,0.0021));
#2110=CARTESIAN_POINT('',(0.0215,-0.018,0.0021));
#2111=CARTESIAN_POINT('',(0.007,0.007,0.0031));
#2112=CARTESIAN_POINT('',(0.007,-0.017,0.0031));
#2113=CARTESIAN_POINT('',(0.023,-0.017,0.0031));
#2114=CARTESIAN_POINT('',(0.023,0.007,0.0031));
#2115=CARTESIAN_POINT('',(0.023,0.031,0.0031));
#2116=CARTESIAN_POINT('',(0.019,0.031,0.0031));
#2117=CARTESIAN_POINT('',(-0.01,0.031,0.0031));
#2118=CARTESIAN_POINT('',(-0.009,0.031,0.0031));
#2119=CARTESIAN_POINT('',(-0.009,0.007,0.0031));
#2120=CARTESIAN_POINT('',(-0.009,-0.017,0.0031));
#2121=CARTESIAN_POINT('',(0.007,-0.017,0.0031));
#2122=CARTESIAN_POINT('',(0.014,6.12323399573674E-20,0.0031));
#2123=CARTESIAN_POINT('',(0.0192,8.17085981638753E-35,0.0031));
#2124=CARTESIAN_POINT('',(0.014,-0.0052,0.0031));
#2125=CARTESIAN_POINT('',(0.,-0.0052,0.0031));
#2126=CARTESIAN_POINT('',(-1.31481477614101E-34,-0.0052,0.0031));
#2127=CARTESIAN_POINT('',(7.88256679593662E-19,6.90856696815146E-19,0.0031));
#2128=CARTESIAN_POINT('',(-0.0052,4.72326645838732E-19,0.0031));
#2129=CARTESIAN_POINT('',(-0.0052,0.014,0.0031));
#2130=CARTESIAN_POINT('',(-0.0052,0.014,0.0031));
#2131=CARTESIAN_POINT('',(-7.71386625426296E-19,0.014,0.0031));
#2132=CARTESIAN_POINT('',(-6.52560295587495E-19,0.0192,0.0031));
#2133=CARTESIAN_POINT('',(0.014,0.0192,0.0031));
#2134=CARTESIAN_POINT('',(0.014,0.0192,0.0031));
#2135=CARTESIAN_POINT('',(0.014,0.014,0.0031));
#2136=CARTESIAN_POINT('',(0.0192,0.014,0.0031));
#2137=CARTESIAN_POINT('',(0.0192,0.,0.0031));
#2138=CARTESIAN_POINT('',(0.007,0.007,0.0014));
#2139=CARTESIAN_POINT('',(1.99005104861445E-19,0.014,0.0014));
#2140=CARTESIAN_POINT('',(3.9801020972289E-19,0.0205,0.0014));
#2141=CARTESIAN_POINT('',(-0.0065,0.014,0.0014));
#2142=CARTESIAN_POINT('',(0.007,0.0205,0.0014));
#2143=CARTESIAN_POINT('',(0.014,0.0205,0.0014));
#2144=CARTESIAN_POINT('',(0.014,0.014,0.0014));
#2145=CARTESIAN_POINT('',(0.0205,0.014,0.0014));
#2146=CARTESIAN_POINT('',(0.0205,0.007,0.0014));
#2147=CARTESIAN_POINT('',(0.0205,5.42101086242752E-19,0.0014));
#2148=CARTESIAN_POINT('',(0.014,7.04731412115578E-19,0.0014));
#2149=CARTESIAN_POINT('',(0.014,-0.0065,0.0014));
#2150=CARTESIAN_POINT('',(0.007,-0.0065,0.0014));
#2151=CARTESIAN_POINT('',(0.,-0.0065,0.0014));
#2152=CARTESIAN_POINT('',(5.77005106740744E-19,8.31691078717092E-19,0.0014));
#2153=CARTESIAN_POINT('',(-0.0065,7.9602041944578E-19,0.0014));
#2154=CARTESIAN_POINT('',(-0.0065,0.007,0.0014));
#2155=CARTESIAN_POINT('',(1.99005104861445E-19,0.014,0.0014));
#2156=CARTESIAN_POINT('',(3.9801020972289E-19,0.0205,0.0014));
#2157=CARTESIAN_POINT('',(-0.0065,0.014,0.0014));
#2158=CARTESIAN_POINT('',(-0.0065,0.007,0.0014));
#2159=CARTESIAN_POINT('',(-0.0065,7.9602041944578E-19,0.0014));
#2160=CARTESIAN_POINT('',(5.77005106740744E-19,8.31691078717092E-19,0.0014));
#2161=CARTESIAN_POINT('',(0.,-0.0065,0.0014));
#2162=CARTESIAN_POINT('',(0.007,-0.0065,0.0014));
#2163=CARTESIAN_POINT('',(0.014,-0.0065,0.0014));
#2164=CARTESIAN_POINT('',(0.014,7.04731412115578E-19,0.0014));
#2165=CARTESIAN_POINT('',(0.0205,5.42101086242752E-19,0.0014));
#2166=CARTESIAN_POINT('',(0.0205,0.007,0.0014));
#2167=CARTESIAN_POINT('',(0.0205,0.014,0.0014));
#2168=CARTESIAN_POINT('',(0.014,0.014,0.0014));
#2169=CARTESIAN_POINT('',(0.014,0.0205,0.0014));
#2170=CARTESIAN_POINT('',(0.007,0.0205,0.0014));
#2171=CARTESIAN_POINT('',(-0.008,0.007,0.));
#2172=CARTESIAN_POINT('',(-0.008,-0.002,4.53319947845445E-20));
#2173=CARTESIAN_POINT('',(-0.00781794417813103,-0.002,-0.00347383202187853));
#2174=CARTESIAN_POINT('',(-0.00781794417813103,0.016,-0.00347383202187853));
#2175=CARTESIAN_POINT('',(-0.00781794417813103,0.016,-0.00347383202187853));
#2176=CARTESIAN_POINT('',(-0.008,0.016,-3.61662624633977E-19));
#2177=CARTESIAN_POINT('',(-0.002,0.016,0.));
#2178=CARTESIAN_POINT('',(-0.002,0.016,-0.00347383202187853));
#2179=CARTESIAN_POINT('',(-0.002,0.0218179441781311,-0.00347383202187853));
#2180=CARTESIAN_POINT('',(-0.002,0.022,0.));
#2181=CARTESIAN_POINT('',(0.007,0.022,0.));
#2182=CARTESIAN_POINT('',(0.016,0.0218179441781311,-0.00347383202187853));
#2183=CARTESIAN_POINT('',(0.016,0.0218179441781311,-0.00347383202187853));
#2184=CARTESIAN_POINT('',(0.016,0.022,0.));
#2185=CARTESIAN_POINT('',(0.016,0.016,0.));
#2186=CARTESIAN_POINT('',(0.016,0.016,-0.00347383202187853));
#2187=CARTESIAN_POINT('',(0.0218179441781311,0.016,-0.00347383202187853));
#2188=CARTESIAN_POINT('',(0.022,0.016,0.));
#2189=CARTESIAN_POINT('',(0.022,0.007,0.));
#2190=CARTESIAN_POINT('',(0.0218179441781311,0.007,-0.00347383202187853));
#2191=CARTESIAN_POINT('',(0.0218179441781311,-0.002,-0.00347383202187853));
#2192=CARTESIAN_POINT('',(0.022,-0.002,0.));
#2193=CARTESIAN_POINT('',(0.016,-0.002,0.));
#2194=CARTESIAN_POINT('',(0.016,-0.002,-0.00347383202187853));
#2195=CARTESIAN_POINT('',(0.016,-0.00781794417813103,-0.00347383202187853));
#2196=CARTESIAN_POINT('',(0.016,-0.008,4.53319947845445E-20));
#2197=CARTESIAN_POINT('',(0.007,-0.008,0.));
#2198=CARTESIAN_POINT('',(0.007,-0.00781794417813103,-0.00347383202187853));
#2199=CARTESIAN_POINT('',(-0.002,-0.00781794417813103,-0.00347383202187853));
#2200=CARTESIAN_POINT('',(-0.002,-0.008,4.52078280792471E-19));
#2201=CARTESIAN_POINT('',(-0.002,-0.002,0.));
#2202=CARTESIAN_POINT('',(-0.002,-0.002,-0.00347383202187853));
#2203=CARTESIAN_POINT('',(0.007,0.007,-0.004));
#2204=CARTESIAN_POINT('',(0.007,0.031,-0.004));
#2205=CARTESIAN_POINT('',(-0.009,0.031,-0.004));
#2206=CARTESIAN_POINT('',(0.023,0.031,-0.004));
#2207=CARTESIAN_POINT('',(0.023,-0.018,-0.004));
#2208=CARTESIAN_POINT('',(0.023,-0.017,-0.004));
#2209=CARTESIAN_POINT('',(-0.01,-0.017,-0.004));
#2210=CARTESIAN_POINT('',(-0.009,-0.017,-0.004));
#2211=CARTESIAN_POINT('',(-0.009,0.032,-0.004));
#2212=CARTESIAN_POINT('',(-0.010002,0.029,-0.004));
#2213=CARTESIAN_POINT('',(-0.010002,-0.015,-0.004));
#2214=CARTESIAN_POINT('',(-0.00831725894550832,-0.002,-0.004));
#2215=CARTESIAN_POINT('',(-0.00831725894550831,0.016,-0.004));
#2216=CARTESIAN_POINT('',(-0.00831725894550832,-0.002,-0.004));
#2217=CARTESIAN_POINT('',(-0.002,-0.002,-0.004));
#2218=CARTESIAN_POINT('',(-0.002,-0.00831725894550832,-0.004));
#2219=CARTESIAN_POINT('',(0.007,-0.00831725894550832,-0.004));
#2220=CARTESIAN_POINT('',(0.016,-0.00831725894550832,-0.004));
#2221=CARTESIAN_POINT('',(0.016,-0.002,-0.004));
#2222=CARTESIAN_POINT('',(0.0223172589455083,-0.002,-0.004));
#2223=CARTESIAN_POINT('',(0.0223172589455083,0.007,-0.004));
#2224=CARTESIAN_POINT('',(0.0223172589455083,0.016,-0.004));
#2225=CARTESIAN_POINT('',(0.016,0.016,-0.004));
#2226=CARTESIAN_POINT('',(0.016,0.0223172589455083,-0.004));
#2227=CARTESIAN_POINT('',(-0.002,0.0223172589455083,-0.004));
#2228=CARTESIAN_POINT('',(-0.002,0.0223172589455083,-0.004));
#2229=CARTESIAN_POINT('',(-0.002,0.016,-0.004));
#2230=CARTESIAN_POINT('',(0.016,0.016,-0.0035));
#2231=CARTESIAN_POINT('',(0.0223172589455083,0.016,-0.0035));
#2232=CARTESIAN_POINT('',(0.016,0.0223172589455083,-0.0035));
#2233=CARTESIAN_POINT('',(0.007,0.0223172589455083,-0.0035));
#2234=CARTESIAN_POINT('',(-0.002,0.0223172589455083,-0.0035));
#2235=CARTESIAN_POINT('',(0.0223172589455083,0.007,-0.0035));
#2236=CARTESIAN_POINT('',(0.0223172589455083,-0.002,-0.0035));
#2237=CARTESIAN_POINT('',(-0.002,0.016,-0.0035));
#2238=CARTESIAN_POINT('',(-0.00831725894550831,0.016,-0.0035));
#2239=CARTESIAN_POINT('',(0.016,-0.002,-0.0035));
#2240=CARTESIAN_POINT('',(0.016,-0.00831725894550832,-0.0035));
#2241=CARTESIAN_POINT('',(-0.00831725894550832,0.007,-0.0035));
#2242=CARTESIAN_POINT('',(-0.00831725894550832,-0.002,-0.0035));
#2243=CARTESIAN_POINT('',(0.007,-0.00831725894550832,-0.0035));
#2244=CARTESIAN_POINT('',(-0.002,-0.00831725894550832,-0.0035));
#2245=CARTESIAN_POINT('',(-0.002,-0.002,-0.0035));
#2246=CARTESIAN_POINT('',(0.007,0.0192,0.0031));
#2247=CARTESIAN_POINT('',(-6.75411512864187E-19,0.0182,0.0021));
#2248=CARTESIAN_POINT('',(0.014,0.0192,0.0031));
#2249=CARTESIAN_POINT('',(0.014,0.014,0.0021));
#2250=CARTESIAN_POINT('',(0.0192,0.014,0.0031));
#2251=CARTESIAN_POINT('',(-7.71386625426296E-19,0.014,0.0021));
#2252=CARTESIAN_POINT('',(-0.0042,0.014,0.0021));
#2253=CARTESIAN_POINT('',(0.0192,0.007,0.0031));
#2254=CARTESIAN_POINT('',(0.0192,0.,0.0031));
#2255=CARTESIAN_POINT('',(-0.0052,0.007,0.0031));
#2256=CARTESIAN_POINT('',(-0.0042,5.14351655641888E-19,0.0021));
#2257=CARTESIAN_POINT('',(0.014,6.12323399573674E-20,0.0021));
#2258=CARTESIAN_POINT('',(0.014,-0.0052,0.0031));
#2259=CARTESIAN_POINT('',(7.88256679593662E-19,6.90856696815146E-19,0.0021));
#2260=CARTESIAN_POINT('',(0.,-0.0042,0.0021));
#2261=CARTESIAN_POINT('',(0.007,-0.0052,0.0031));
#2262=CARTESIAN_POINT('',(-0.010002,-0.018,-0.004));
#2263=CARTESIAN_POINT('',(-0.010002,-0.0170139867028168,-0.00116666666666667));
#2264=CARTESIAN_POINT('',(-0.010002,0.032,-0.004));
#2265=CARTESIAN_POINT('',(-0.010002,0.0310139867028167,-0.00116666666666667));
#2266=CARTESIAN_POINT('',(0.0215,0.032,0.0021));
#2267=CARTESIAN_POINT('',(-0.009,0.032,0.0021));
#2268=CARTESIAN_POINT('',(0.007,0.031,0.0031));
#2269=CARTESIAN_POINT('',(0.023,0.0315,0.0026));
#2270=CARTESIAN_POINT('',(-0.009,0.032,0.0021));
#2271=CARTESIAN_POINT('',(-0.0095,0.031,0.0026));
#2272=CARTESIAN_POINT('',(-0.009,0.032,0.0021));
#2273=CARTESIAN_POINT('',(0.024,0.031,0.0021));
#2274=CARTESIAN_POINT('',(0.024,0.031,0.0021));
#2275=CARTESIAN_POINT('',(0.024,0.031,0.0021));
#2276=CARTESIAN_POINT('',(-0.01,0.031,0.0031));
#2277=CARTESIAN_POINT('',(-0.009,0.032,-0.003));
#2278=CARTESIAN_POINT('',(-0.01,0.02,0.0021));
#2279=CARTESIAN_POINT('',(-0.01,-0.017,0.0021));
#2280=CARTESIAN_POINT('',(0.007,-0.017,0.0031));
#2281=CARTESIAN_POINT('',(-0.009,-0.0175,0.0026));
#2282=CARTESIAN_POINT('',(0.0215,-0.018,0.0021));
#2283=CARTESIAN_POINT('',(0.023,-0.018,0.0021));
#2284=CARTESIAN_POINT('',(0.024,-0.006,0.0021));
#2285=CARTESIAN_POINT('',(0.0235,-0.017,0.0026));
#2286=CARTESIAN_POINT('',(0.023,0.032,0.0031));
#2287=CARTESIAN_POINT('',(0.0235,0.0315,-0.003));
#2288=CARTESIAN_POINT('',(0.0215,0.032,-0.003));
#2289=CARTESIAN_POINT('',(-0.009,0.032,-0.003));
#2290=CARTESIAN_POINT('',(0.023,0.031,-0.004));
#2291=CARTESIAN_POINT('',(-0.009,0.032,-0.003));
#2292=CARTESIAN_POINT('',(-0.0095,0.031,-0.0035));
#2293=CARTESIAN_POINT('',(-0.01,-0.017,0.0021));
#2294=CARTESIAN_POINT('',(-0.01,-0.017,0.0021));
#2295=CARTESIAN_POINT('',(0.023,-0.018,0.0021));
#2296=CARTESIAN_POINT('',(0.023,-0.018,0.0021));
#2297=CARTESIAN_POINT('',(0.023,0.031,-0.004));
#2298=CARTESIAN_POINT('',(0.023,0.031,-0.004));
#2299=CARTESIAN_POINT('',(-0.009,0.007,-0.004));
#2300=CARTESIAN_POINT('',(-0.009,-0.017,-0.004));
#2301=CARTESIAN_POINT('',(-0.009,-0.018,0.0031));
#2302=CARTESIAN_POINT('',(-0.0095,-0.0175,-0.003));
#2303=CARTESIAN_POINT('',(0.024,-0.017,0.0031));
#2304=CARTESIAN_POINT('',(0.023,-0.018,-0.003));
#2305=CARTESIAN_POINT('',(0.023,0.007,-0.004));
#2306=CARTESIAN_POINT('',(0.0235,-0.017,-0.0035));
#2307=CARTESIAN_POINT('',(-0.009,-0.017,-0.004));
#2308=CARTESIAN_POINT('',(-0.009,-0.017,-0.004));
#2309=CARTESIAN_POINT('',(0.023,-0.018,-0.003));
#2310=CARTESIAN_POINT('',(0.023,-0.018,-0.003));
#2311=CARTESIAN_POINT('',(0.0215,-0.018,-0.003));
#2312=CARTESIAN_POINT('',(-0.010002,0.032,-0.002));
#2313=CARTESIAN_POINT('',(-0.010002,-0.0170139867028168,-0.00116666666666667));
#2314=MECHANICAL_DESIGN_GEOMETRIC_PRESENTATION_REPRESENTATION('',(#1387),
#2315);
#2315=(
GEOMETRIC_REPRESENTATION_CONTEXT(3)
GLOBAL_UNCERTAINTY_ASSIGNED_CONTEXT((#2316))
GLOBAL_UNIT_ASSIGNED_CONTEXT((#2319,#2318,#2317))
REPRESENTATION_CONTEXT('Part 1','TOP_LEVEL_ASSEMBLY_PART')
);
#2316=UNCERTAINTY_MEASURE_WITH_UNIT(LENGTH_MEASURE(1.E-8),#2319,
'DISTANCE_ACCURACY_VALUE','Maximum Tolerance applied to model');
#2317=(
NAMED_UNIT(*)
SI_UNIT($,.STERADIAN.)
SOLID_ANGLE_UNIT()
);
#2318=(
NAMED_UNIT(*)
PLANE_ANGLE_UNIT()
SI_UNIT($,.RADIAN.)
);
#2319=(
LENGTH_UNIT()
NAMED_UNIT(*)
SI_UNIT($,.METRE.)
);
#2320=PRODUCT_DEFINITION_SHAPE('','',#2321);
#2321=PRODUCT_DEFINITION('','',#2323,#2322);
#2322=PRODUCT_DEFINITION_CONTEXT('',#2329,'design');
#2323=PRODUCT_DEFINITION_FORMATION_WITH_SPECIFIED_SOURCE('','',#2325,
 .NOT_KNOWN.);
#2324=PRODUCT_RELATED_PRODUCT_CATEGORY('','',(#2325));
#2325=PRODUCT('Part 1','Part 1','Part 1',(#2327));
#2326=PRODUCT_CATEGORY('','');
#2327=PRODUCT_CONTEXT('',#2329,'mechanical');
#2328=APPLICATION_PROTOCOL_DEFINITION('international standard',
'ap242_managed_model_based_3d_engineering',2020,#2329);
#2329=APPLICATION_CONTEXT('managed model based 3d engineering');
ENDSEC;
END-ISO-10303-21;
